M48
; DRILL file {KiCad (6.0.10)} date Wed Jun 21 21:11:54 2023
; FORMAT={-:-/ absolute / inch / decimal}
; #@! TF.CreationDate,2023-06-21T21:11:54+02:00
; #@! TF.GenerationSoftware,Kicad,Pcbnew,(6.0.10)
; #@! TF.FileFunction,Plated,1,2,PTH
FMAT,2
INCH
; #@! TA.AperFunction,Plated,PTH,ViaDrill
T1C0.0118
; #@! TA.AperFunction,Plated,PTH,ComponentDrill
T2C0.0197
; #@! TA.AperFunction,Plated,PTH,ComponentDrill
T3C0.0339
; #@! TA.AperFunction,Plated,PTH,ComponentDrill
T4C0.0433
; #@! TA.AperFunction,Plated,PTH,ComponentDrill
T5C0.0512
; #@! TA.AperFunction,Plated,PTH,ComponentDrill
T6C0.0630
; #@! TA.AperFunction,Plated,PTH,ComponentDrill
T7C0.1260
%
G90
G05
T1
X5.0787Y-3.2283
X5.0787Y-4.3701
X5.2362Y-4.3701
X5.748Y-3.248
X5.8268Y-3.248
X5.9055Y-3.248
T2
X4.689Y-2.8543
X4.689Y-4.7047
X4.7167Y-2.7875
X4.7167Y-2.9211
X4.7167Y-4.6379
X4.7167Y-4.7715
X4.7835Y-2.7598
X4.7835Y-2.9488
X4.7835Y-4.6102
X4.7835Y-4.7992
X4.8503Y-2.7875
X4.8503Y-2.9211
X4.8503Y-4.6379
X4.8503Y-4.7715
X4.878Y-2.8543
X4.878Y-4.7047
X7.0315Y-2.8543
X7.0315Y-4.7047
X7.0592Y-2.7875
X7.0592Y-2.9211
X7.0592Y-4.6379
X7.0592Y-4.7715
X7.126Y-2.7598
X7.126Y-2.9488
X7.126Y-4.6102
X7.126Y-4.7992
X7.1928Y-2.7875
X7.1928Y-2.9211
X7.1928Y-4.6379
X7.1928Y-4.7715
X7.2205Y-2.8543
X7.2205Y-4.7047
T3
X5.0Y-2.7559
X5.0Y-4.8031
X5.1Y-2.7559
X5.1Y-4.8031
X5.2Y-2.7559
X5.2Y-4.8031
X5.3Y-2.7559
X5.3Y-4.8031
X5.4Y-2.7559
X5.4Y-4.8031
X5.5Y-2.7559
X5.5Y-4.8031
X5.6Y-2.7559
X5.6Y-4.8031
X5.7Y-2.7559
X5.7Y-4.8031
X5.8Y-2.7559
X5.8Y-4.8031
X5.9Y-2.7559
X5.9Y-4.8031
X6.122Y-2.7559
X6.2094Y-4.8031
X6.222Y-2.7559
X6.3094Y-4.8031
X6.322Y-2.7559
X6.4094Y-4.8031
X6.422Y-2.7559
X6.5094Y-4.8031
X6.522Y-2.7559
X6.6094Y-4.8031
X6.622Y-2.7559
X6.7094Y-4.8031
X6.8094Y-4.8031
X6.9094Y-4.8031
T4
X4.9606Y-3.6811
X4.9606Y-3.7795
X4.9606Y-3.878
X5.2059Y-4.1232
X5.3043Y-4.1232
X5.4028Y-4.1232
T5
X5.1764Y-3.376
X5.1764Y-3.5531
X5.4323Y-3.376
X5.4323Y-3.5531
T6
X5.0553Y-3.5827
X5.0553Y-3.9764
X5.5533Y-3.5827
X5.5533Y-3.9764
T7
X4.7835Y-2.8543
X4.7835Y-4.7047
X7.126Y-2.8543
X7.126Y-4.7047
T0
M30
