%TF.GenerationSoftware,KiCad,Pcbnew,(6.0.10)*%
%TF.CreationDate,2023-06-21T21:11:52+02:00*%
%TF.ProjectId,FOX-PDA-v1 controller shield,464f582d-5044-4412-9d76-3120636f6e74,rev?*%
%TF.SameCoordinates,Original*%
%TF.FileFunction,Copper,L1,Top*%
%TF.FilePolarity,Positive*%
%FSLAX46Y46*%
G04 Gerber Fmt 4.6, Leading zero omitted, Abs format (unit mm)*
G04 Created by KiCad (PCBNEW (6.0.10)) date 2023-06-21 21:11:52*
%MOMM*%
%LPD*%
G01*
G04 APERTURE LIST*
G04 Aperture macros list*
%AMRoundRect*
0 Rectangle with rounded corners*
0 $1 Rounding radius*
0 $2 $3 $4 $5 $6 $7 $8 $9 X,Y pos of 4 corners*
0 Add a 4 corners polygon primitive as box body*
4,1,4,$2,$3,$4,$5,$6,$7,$8,$9,$2,$3,0*
0 Add four circle primitives for the rounded corners*
1,1,$1+$1,$2,$3*
1,1,$1+$1,$4,$5*
1,1,$1+$1,$6,$7*
1,1,$1+$1,$8,$9*
0 Add four rect primitives between the rounded corners*
20,1,$1+$1,$2,$3,$4,$5,0*
20,1,$1+$1,$4,$5,$6,$7,0*
20,1,$1+$1,$6,$7,$8,$9,0*
20,1,$1+$1,$8,$9,$2,$3,0*%
G04 Aperture macros list end*
%TA.AperFunction,SMDPad,CuDef*%
%ADD10RoundRect,0.250000X0.475000X-0.250000X0.475000X0.250000X-0.475000X0.250000X-0.475000X-0.250000X0*%
%TD*%
%TA.AperFunction,SMDPad,CuDef*%
%ADD11R,0.950000X0.950000*%
%TD*%
%TA.AperFunction,SMDPad,CuDef*%
%ADD12RoundRect,0.250000X-0.450000X0.262500X-0.450000X-0.262500X0.450000X-0.262500X0.450000X0.262500X0*%
%TD*%
%TA.AperFunction,ComponentPad*%
%ADD13C,0.800000*%
%TD*%
%TA.AperFunction,ComponentPad*%
%ADD14C,6.400000*%
%TD*%
%TA.AperFunction,ComponentPad*%
%ADD15C,1.650000*%
%TD*%
%TA.AperFunction,ComponentPad*%
%ADD16C,1.950000*%
%TD*%
%TA.AperFunction,ComponentPad*%
%ADD17C,2.400000*%
%TD*%
%TA.AperFunction,SMDPad,CuDef*%
%ADD18RoundRect,0.250000X-0.475000X0.250000X-0.475000X-0.250000X0.475000X-0.250000X0.475000X0.250000X0*%
%TD*%
%TA.AperFunction,SMDPad,CuDef*%
%ADD19RoundRect,0.250000X0.450000X-0.262500X0.450000X0.262500X-0.450000X0.262500X-0.450000X-0.262500X0*%
%TD*%
%TA.AperFunction,ComponentPad*%
%ADD20C,1.300000*%
%TD*%
%TA.AperFunction,ViaPad*%
%ADD21C,0.600000*%
%TD*%
%TA.AperFunction,Conductor*%
%ADD22C,0.600000*%
%TD*%
%TA.AperFunction,Conductor*%
%ADD23C,0.400000*%
%TD*%
%TA.AperFunction,Conductor*%
%ADD24C,0.200000*%
%TD*%
G04 APERTURE END LIST*
D10*
%TO.P,C2,1*%
%TO.N,PA2*%
X129000000Y-113862500D03*
%TO.P,C2,2*%
%TO.N,VSS*%
X129000000Y-111962500D03*
%TD*%
D11*
%TO.P,LED1,1*%
%TO.N,VSS*%
X146000000Y-81250000D03*
%TO.P,LED1,2*%
%TO.N,Net-(LED1-Pad2)*%
X146000000Y-79750000D03*
%TD*%
D12*
%TO.P,R5,1*%
%TO.N,PG14*%
X148000000Y-76087500D03*
%TO.P,R5,2*%
%TO.N,Net-(LED2-Pad2)*%
X148000000Y-77912500D03*
%TD*%
D13*
%TO.P,H2,1,1*%
%TO.N,unconnected-(H2-Pad1)*%
X178600000Y-72500000D03*
X183400000Y-72500000D03*
D14*
X181000000Y-72500000D03*
D13*
X181000000Y-70100000D03*
X179302944Y-70802944D03*
X182697056Y-74197056D03*
X182697056Y-70802944D03*
X181000000Y-74900000D03*
X179302944Y-74197056D03*
%TD*%
%TO.P,H1,1,1*%
%TO.N,unconnected-(H1-Pad1)*%
X181000000Y-117100000D03*
X182697056Y-121197056D03*
X179302944Y-121197056D03*
X181000000Y-121900000D03*
X179302944Y-117802944D03*
D14*
X181000000Y-119500000D03*
D13*
X182697056Y-117802944D03*
X183400000Y-119500000D03*
X178600000Y-119500000D03*
%TD*%
D12*
%TO.P,R6,1*%
%TO.N,PG12*%
X150000000Y-76087500D03*
%TO.P,R6,2*%
%TO.N,Net-(LED3-Pad2)*%
X150000000Y-77912500D03*
%TD*%
D14*
%TO.P,H4,1,1*%
%TO.N,unconnected-(H4-Pad1)*%
X121500000Y-72500000D03*
D13*
X123900000Y-72500000D03*
X119802944Y-70802944D03*
X121500000Y-74900000D03*
X123197056Y-74197056D03*
X119802944Y-74197056D03*
X119100000Y-72500000D03*
X123197056Y-70802944D03*
X121500000Y-70100000D03*
%TD*%
D11*
%TO.P,LED3,1*%
%TO.N,VSS*%
X150000000Y-81250000D03*
%TO.P,LED3,2*%
%TO.N,Net-(LED3-Pad2)*%
X150000000Y-79750000D03*
%TD*%
D15*
%TO.P,S1,1,1*%
%TO.N,VDD*%
X132230000Y-104730000D03*
%TO.P,S1,2,2*%
%TO.N,JOYSTICK_X*%
X134730000Y-104730000D03*
%TO.P,S1,3,3*%
%TO.N,VSS*%
X137230000Y-104730000D03*
%TO.P,S1,11,1'*%
%TO.N,VDD*%
X126000000Y-93500000D03*
%TO.P,S1,12,2'*%
%TO.N,JOYSTICK_Y*%
X126000000Y-96000000D03*
%TO.P,S1,13,3'*%
%TO.N,VSS*%
X126000000Y-98500000D03*
D16*
%TO.P,S1,A1,COM_1*%
X137980000Y-90250000D03*
%TO.P,S1,B1,COM_2*%
X131480000Y-90250000D03*
%TO.P,S1,C1,NO_1*%
%TO.N,JOYSTICK_BUTTON*%
X137980000Y-85750000D03*
%TO.P,S1,D1,NO_2*%
X131480000Y-85750000D03*
D17*
%TO.P,S1,MH1,MH1*%
%TO.N,VSS*%
X128405000Y-101000000D03*
%TO.P,S1,MH2,MH2*%
X141055000Y-101000000D03*
%TO.P,S1,MH3,MH3*%
X141055000Y-91000000D03*
%TO.P,S1,MH4,MH4*%
X128405000Y-91000000D03*
%TD*%
D12*
%TO.P,R2,1*%
%TO.N,JOYSTICK_Y*%
X127000000Y-112000000D03*
%TO.P,R2,2*%
%TO.N,PA2*%
X127000000Y-113825000D03*
%TD*%
D13*
%TO.P,H3,1,1*%
%TO.N,unconnected-(H3-Pad1)*%
X123197056Y-121197056D03*
X123900000Y-119500000D03*
X119802944Y-121197056D03*
X119100000Y-119500000D03*
X121500000Y-121900000D03*
D14*
X121500000Y-119500000D03*
D13*
X123197056Y-117802944D03*
X121500000Y-117100000D03*
X119802944Y-117802944D03*
%TD*%
D10*
%TO.P,C3,1*%
%TO.N,PA0*%
X133000000Y-113862500D03*
%TO.P,C3,2*%
%TO.N,VSS*%
X133000000Y-111962500D03*
%TD*%
D11*
%TO.P,LED2,1*%
%TO.N,VSS*%
X148000000Y-81250000D03*
%TO.P,LED2,2*%
%TO.N,Net-(LED2-Pad2)*%
X148000000Y-79750000D03*
%TD*%
D12*
%TO.P,R3,1*%
%TO.N,JOYSTICK_X*%
X131000000Y-112000000D03*
%TO.P,R3,2*%
%TO.N,PA0*%
X131000000Y-113825000D03*
%TD*%
D18*
%TO.P,C1,1*%
%TO.N,PB5*%
X129000000Y-79050000D03*
%TO.P,C1,2*%
%TO.N,VSS*%
X129000000Y-80950000D03*
%TD*%
D19*
%TO.P,R1,1*%
%TO.N,JOYSTICK_BUTTON*%
X127000000Y-80912500D03*
%TO.P,R1,2*%
%TO.N,PB5*%
X127000000Y-79087500D03*
%TD*%
D12*
%TO.P,R4,1*%
%TO.N,PG15*%
X146000000Y-76087500D03*
%TO.P,R4,2*%
%TO.N,Net-(LED1-Pad2)*%
X146000000Y-77912500D03*
%TD*%
D20*
%TO.P,J4,1,1*%
%TO.N,PI1*%
X155500000Y-70000000D03*
%TO.P,J4,2,2*%
%TO.N,PA10*%
X158040000Y-70000000D03*
%TO.P,J4,3,3*%
%TO.N,PI0*%
X160580000Y-70000000D03*
%TO.P,J4,4,4*%
%TO.N,PA9*%
X163120000Y-70000000D03*
%TO.P,J4,5,5*%
%TO.N,PC7*%
X165660000Y-70000000D03*
%TO.P,J4,6,6*%
%TO.N,PG8*%
X168200000Y-70000000D03*
%TD*%
%TO.P,J3,1,1*%
%TO.N,PF11*%
X149860000Y-122000000D03*
%TO.P,J3,2,2*%
%TO.N,PC5*%
X147320000Y-122000000D03*
%TO.P,J3,3,3*%
%TO.N,PB0*%
X144780000Y-122000000D03*
%TO.P,J3,4,4*%
%TO.N,PA5*%
X142240000Y-122000000D03*
%TO.P,J3,5,5*%
%TO.N,PB1*%
X139700000Y-122000000D03*
%TO.P,J3,6,6*%
%TO.N,PA6*%
X137160000Y-122000000D03*
%TO.P,J3,7,7*%
%TO.N,PA7*%
X134620000Y-122000000D03*
%TO.P,J3,8,8*%
%TO.N,PA0*%
X132080000Y-122000000D03*
%TO.P,J3,9,9*%
%TO.N,PA3*%
X129540000Y-122000000D03*
%TO.P,J3,10,10*%
%TO.N,PA2*%
X127000000Y-122000000D03*
%TD*%
%TO.P,J1,1,1*%
%TO.N,VDD*%
X175500000Y-122000000D03*
%TO.P,J1,2,2*%
X172960000Y-122000000D03*
%TO.P,J1,3,3*%
%TO.N,VSS*%
X170420000Y-122000000D03*
%TO.P,J1,4,4*%
X167880000Y-122000000D03*
%TO.P,J1,5,5*%
%TO.N,PB13*%
X165340000Y-122000000D03*
%TO.P,J1,6,6*%
%TO.N,PB11*%
X162800000Y-122000000D03*
%TO.P,J1,7,7*%
%TO.N,PB12*%
X160260000Y-122000000D03*
%TO.P,J1,8,8*%
%TO.N,PB10*%
X157720000Y-122000000D03*
%TD*%
%TO.P,J2,1,1*%
%TO.N,PB5*%
X127000000Y-70000000D03*
%TO.P,J2,2,2*%
%TO.N,PG15*%
X129540000Y-70000000D03*
%TO.P,J2,3,3*%
%TO.N,PG14*%
X132080000Y-70000000D03*
%TO.P,J2,4,4*%
%TO.N,PG12*%
X134620000Y-70000000D03*
%TO.P,J2,5,5*%
%TO.N,PG13*%
X137160000Y-70000000D03*
%TO.P,J2,6,6*%
%TO.N,PG11*%
X139700000Y-70000000D03*
%TO.P,J2,7,7*%
%TO.N,PB4*%
X142240000Y-70000000D03*
%TO.P,J2,8,8*%
%TO.N,PG10*%
X144780000Y-70000000D03*
%TO.P,J2,9,9*%
%TO.N,PD6*%
X147320000Y-70000000D03*
%TO.P,J2,10,10*%
%TO.N,PI3*%
X149860000Y-70000000D03*
%TD*%
D21*
%TO.N,VSS*%
X129000000Y-82000000D03*
X146000000Y-82500000D03*
X148000000Y-82500000D03*
X133000000Y-111000000D03*
X150000000Y-82500000D03*
X129000000Y-111000000D03*
%TD*%
D22*
%TO.N,VDD*%
X132230000Y-98770000D02*
X133000000Y-98000000D01*
X132230000Y-104730000D02*
X132230000Y-98770000D01*
X133000000Y-93500000D02*
X126000000Y-93500000D01*
X171500000Y-116000000D02*
X145000000Y-116000000D01*
X144000000Y-115000000D02*
X144000000Y-99000000D01*
X143000000Y-98000000D02*
X134000000Y-98000000D01*
X133000000Y-98000000D02*
X134000000Y-98000000D01*
X172960000Y-117460000D02*
X171500000Y-116000000D01*
X175500000Y-122000000D02*
X172960000Y-122000000D01*
X134000000Y-94500000D02*
X133000000Y-93500000D01*
X172960000Y-122000000D02*
X172960000Y-117460000D01*
X145000000Y-116000000D02*
X144000000Y-115000000D01*
X134000000Y-98000000D02*
X134000000Y-94500000D01*
X144000000Y-99000000D02*
X143000000Y-98000000D01*
D23*
%TO.N,VSS*%
X133000000Y-111962500D02*
X133000000Y-111000000D01*
D24*
X150000000Y-81250000D02*
X150000000Y-82500000D01*
X146000000Y-81250000D02*
X146000000Y-82500000D01*
D23*
X129000000Y-111962500D02*
X129000000Y-111000000D01*
D24*
X148000000Y-81250000D02*
X148000000Y-82500000D01*
D23*
X129000000Y-80950000D02*
X129000000Y-82000000D01*
%TO.N,PB5*%
X128962500Y-79087500D02*
X129000000Y-79050000D01*
X127000000Y-70000000D02*
X127000000Y-79087500D01*
X127000000Y-79087500D02*
X128962500Y-79087500D01*
%TO.N,PG15*%
X146000000Y-75000000D02*
X145500000Y-74500000D01*
X129540000Y-70000000D02*
X129540000Y-73540000D01*
X145500000Y-74500000D02*
X130500000Y-74500000D01*
X146000000Y-75000000D02*
X146000000Y-76087500D01*
X129540000Y-73540000D02*
X130500000Y-74500000D01*
%TO.N,PG14*%
X133000000Y-73500000D02*
X147000000Y-73500000D01*
X132080000Y-70000000D02*
X132080000Y-72580000D01*
X132080000Y-72580000D02*
X133000000Y-73500000D01*
X148000000Y-74500000D02*
X148000000Y-76087500D01*
X147000000Y-73500000D02*
X148000000Y-74500000D01*
%TO.N,PG12*%
X134620000Y-71620000D02*
X134620000Y-70000000D01*
X135500000Y-72500000D02*
X134620000Y-71620000D01*
X150000000Y-76087500D02*
X150000000Y-74000000D01*
X150000000Y-74000000D02*
X148500000Y-72500000D01*
X148500000Y-72500000D02*
X135500000Y-72500000D01*
%TO.N,PA0*%
X132080000Y-113920000D02*
X132137500Y-113862500D01*
X132080000Y-122000000D02*
X132080000Y-113920000D01*
X133000000Y-113862500D02*
X132137500Y-113862500D01*
X131037500Y-113862500D02*
X131000000Y-113825000D01*
X132137500Y-113862500D02*
X131037500Y-113862500D01*
%TO.N,PA2*%
X128962500Y-113825000D02*
X129000000Y-113862500D01*
X127000000Y-113825000D02*
X128962500Y-113825000D01*
X127000000Y-113825000D02*
X127000000Y-122000000D01*
%TO.N,JOYSTICK_X*%
X134730000Y-106270000D02*
X134730000Y-104730000D01*
X131000000Y-112000000D02*
X131000000Y-110000000D01*
X131000000Y-110000000D02*
X134730000Y-106270000D01*
%TO.N,JOYSTICK_Y*%
X124000000Y-96000000D02*
X126000000Y-96000000D01*
X127000000Y-108000000D02*
X123000000Y-104000000D01*
X127000000Y-112000000D02*
X127000000Y-108000000D01*
X123000000Y-97000000D02*
X124000000Y-96000000D01*
X123000000Y-104000000D02*
X123000000Y-97000000D01*
%TO.N,JOYSTICK_BUTTON*%
X128750000Y-85750000D02*
X131480000Y-85750000D01*
X127000000Y-84000000D02*
X128750000Y-85750000D01*
X131480000Y-85750000D02*
X137980000Y-85750000D01*
X127000000Y-80912500D02*
X127000000Y-84000000D01*
D24*
%TO.N,Net-(LED1-Pad2)*%
X146000000Y-77912500D02*
X146000000Y-79750000D01*
%TO.N,Net-(LED2-Pad2)*%
X148000000Y-77912500D02*
X148000000Y-79750000D01*
%TO.N,Net-(LED3-Pad2)*%
X150000000Y-77912500D02*
X150000000Y-79750000D01*
%TD*%
M02*
