%TF.GenerationSoftware,KiCad,Pcbnew,(6.0.10)*%
%TF.CreationDate,2023-06-21T21:11:52+02:00*%
%TF.ProjectId,FOX-PDA-v1 controller shield,464f582d-5044-4412-9d76-3120636f6e74,rev?*%
%TF.SameCoordinates,Original*%
%TF.FileFunction,Soldermask,Bot*%
%TF.FilePolarity,Negative*%
%FSLAX46Y46*%
G04 Gerber Fmt 4.6, Leading zero omitted, Abs format (unit mm)*
G04 Created by KiCad (PCBNEW (6.0.10)) date 2023-06-21 21:11:52*
%MOMM*%
%LPD*%
G01*
G04 APERTURE LIST*
%ADD10C,0.800000*%
%ADD11C,6.400000*%
%ADD12C,1.650000*%
%ADD13C,1.950000*%
%ADD14C,2.400000*%
%ADD15C,1.300000*%
G04 APERTURE END LIST*
D10*
%TO.C,H2*%
X178600000Y-72500000D03*
X183400000Y-72500000D03*
D11*
X181000000Y-72500000D03*
D10*
X181000000Y-70100000D03*
X179302944Y-70802944D03*
X182697056Y-74197056D03*
X182697056Y-70802944D03*
X181000000Y-74900000D03*
X179302944Y-74197056D03*
%TD*%
%TO.C,H1*%
X181000000Y-117100000D03*
X182697056Y-121197056D03*
X179302944Y-121197056D03*
X181000000Y-121900000D03*
X179302944Y-117802944D03*
D11*
X181000000Y-119500000D03*
D10*
X182697056Y-117802944D03*
X183400000Y-119500000D03*
X178600000Y-119500000D03*
%TD*%
D11*
%TO.C,H4*%
X121500000Y-72500000D03*
D10*
X123900000Y-72500000D03*
X119802944Y-70802944D03*
X121500000Y-74900000D03*
X123197056Y-74197056D03*
X119802944Y-74197056D03*
X119100000Y-72500000D03*
X123197056Y-70802944D03*
X121500000Y-70100000D03*
%TD*%
D12*
%TO.C,S1*%
X132230000Y-104730000D03*
X134730000Y-104730000D03*
X137230000Y-104730000D03*
X126000000Y-93500000D03*
X126000000Y-96000000D03*
X126000000Y-98500000D03*
D13*
X137980000Y-90250000D03*
X131480000Y-90250000D03*
X137980000Y-85750000D03*
X131480000Y-85750000D03*
D14*
X128405000Y-101000000D03*
X141055000Y-101000000D03*
X141055000Y-91000000D03*
X128405000Y-91000000D03*
%TD*%
D10*
%TO.C,H3*%
X123197056Y-121197056D03*
X123900000Y-119500000D03*
X119802944Y-121197056D03*
X119100000Y-119500000D03*
X121500000Y-121900000D03*
D11*
X121500000Y-119500000D03*
D10*
X123197056Y-117802944D03*
X121500000Y-117100000D03*
X119802944Y-117802944D03*
%TD*%
D15*
%TO.C,J4*%
X155500000Y-70000000D03*
X158040000Y-70000000D03*
X160580000Y-70000000D03*
X163120000Y-70000000D03*
X165660000Y-70000000D03*
X168200000Y-70000000D03*
%TD*%
%TO.C,J3*%
X149860000Y-122000000D03*
X147320000Y-122000000D03*
X144780000Y-122000000D03*
X142240000Y-122000000D03*
X139700000Y-122000000D03*
X137160000Y-122000000D03*
X134620000Y-122000000D03*
X132080000Y-122000000D03*
X129540000Y-122000000D03*
X127000000Y-122000000D03*
%TD*%
%TO.C,J1*%
X175500000Y-122000000D03*
X172960000Y-122000000D03*
X170420000Y-122000000D03*
X167880000Y-122000000D03*
X165340000Y-122000000D03*
X162800000Y-122000000D03*
X160260000Y-122000000D03*
X157720000Y-122000000D03*
%TD*%
%TO.C,J2*%
X127000000Y-70000000D03*
X129540000Y-70000000D03*
X132080000Y-70000000D03*
X134620000Y-70000000D03*
X137160000Y-70000000D03*
X139700000Y-70000000D03*
X142240000Y-70000000D03*
X144780000Y-70000000D03*
X147320000Y-70000000D03*
X149860000Y-70000000D03*
%TD*%
M02*
