%TF.GenerationSoftware,KiCad,Pcbnew,(6.0.10)*%
%TF.CreationDate,2023-06-21T21:11:07+02:00*%
%TF.ProjectId,FOX-PDA-v1,464f582d-5044-4412-9d76-312e6b696361,rev?*%
%TF.SameCoordinates,Original*%
%TF.FileFunction,Drillmap*%
%TF.FilePolarity,Positive*%
%FSLAX45Y45*%
G04 Gerber Fmt 4.5, Leading zero omitted, Abs format (unit mm)*
G04 Created by KiCad (PCBNEW (6.0.10)) date 2023-06-21 21:11:07*
%MOMM*%
%LPD*%
G01*
G04 APERTURE LIST*
%ADD10C,0.050000*%
%ADD11C,0.200000*%
%ADD12C,0.065000*%
G04 APERTURE END LIST*
D10*
X18150000Y-12100000D02*
G75*
G03*
X18550000Y-11700000I0J400000D01*
G01*
X18550000Y-7000000D02*
X18550000Y-11700000D01*
X11800000Y-11700000D02*
G75*
G03*
X12200000Y-12100000I400000J0D01*
G01*
X12200000Y-6600000D02*
G75*
G03*
X11800000Y-7000000I0J-400000D01*
G01*
X11800000Y-11700000D02*
X11800000Y-7000000D01*
X18550000Y-7000000D02*
G75*
G03*
X18150000Y-6600000I-400000J0D01*
G01*
X12200000Y-6600000D02*
X18150000Y-6600000D01*
X18150000Y-12100000D02*
X12200000Y-12100000D01*
D11*
D12*
X17907200Y-10318500D02*
X17972200Y-10383500D01*
X17972200Y-10318500D02*
X17907200Y-10383500D01*
X17907200Y-10896500D02*
X17972200Y-10961500D01*
X17972200Y-10896500D02*
X17907200Y-10961500D01*
D11*
X12055119Y-12412976D02*
X12055119Y-12212976D01*
X12102738Y-12212976D01*
X12131309Y-12222500D01*
X12150357Y-12241548D01*
X12159881Y-12260595D01*
X12169405Y-12298690D01*
X12169405Y-12327262D01*
X12159881Y-12365357D01*
X12150357Y-12384405D01*
X12131309Y-12403452D01*
X12102738Y-12412976D01*
X12055119Y-12412976D01*
X12255119Y-12412976D02*
X12255119Y-12279643D01*
X12255119Y-12317738D02*
X12264643Y-12298690D01*
X12274167Y-12289167D01*
X12293214Y-12279643D01*
X12312262Y-12279643D01*
X12378928Y-12412976D02*
X12378928Y-12279643D01*
X12378928Y-12212976D02*
X12369405Y-12222500D01*
X12378928Y-12232024D01*
X12388452Y-12222500D01*
X12378928Y-12212976D01*
X12378928Y-12232024D01*
X12502738Y-12412976D02*
X12483690Y-12403452D01*
X12474167Y-12384405D01*
X12474167Y-12212976D01*
X12607500Y-12412976D02*
X12588452Y-12403452D01*
X12578928Y-12384405D01*
X12578928Y-12212976D01*
X12836071Y-12412976D02*
X12836071Y-12212976D01*
X12902738Y-12355833D01*
X12969405Y-12212976D01*
X12969405Y-12412976D01*
X13150357Y-12412976D02*
X13150357Y-12308214D01*
X13140833Y-12289167D01*
X13121786Y-12279643D01*
X13083690Y-12279643D01*
X13064643Y-12289167D01*
X13150357Y-12403452D02*
X13131309Y-12412976D01*
X13083690Y-12412976D01*
X13064643Y-12403452D01*
X13055119Y-12384405D01*
X13055119Y-12365357D01*
X13064643Y-12346309D01*
X13083690Y-12336786D01*
X13131309Y-12336786D01*
X13150357Y-12327262D01*
X13245595Y-12279643D02*
X13245595Y-12479643D01*
X13245595Y-12289167D02*
X13264643Y-12279643D01*
X13302738Y-12279643D01*
X13321786Y-12289167D01*
X13331309Y-12298690D01*
X13340833Y-12317738D01*
X13340833Y-12374881D01*
X13331309Y-12393928D01*
X13321786Y-12403452D01*
X13302738Y-12412976D01*
X13264643Y-12412976D01*
X13245595Y-12403452D01*
X13426548Y-12393928D02*
X13436071Y-12403452D01*
X13426548Y-12412976D01*
X13417024Y-12403452D01*
X13426548Y-12393928D01*
X13426548Y-12412976D01*
X13426548Y-12289167D02*
X13436071Y-12298690D01*
X13426548Y-12308214D01*
X13417024Y-12298690D01*
X13426548Y-12289167D01*
X13426548Y-12308214D01*
D12*
X11732500Y-12710000D02*
X11797500Y-12775000D01*
X11797500Y-12710000D02*
X11732500Y-12775000D01*
D11*
X12093214Y-12632976D02*
X12112262Y-12632976D01*
X12131309Y-12642500D01*
X12140833Y-12652024D01*
X12150357Y-12671071D01*
X12159881Y-12709167D01*
X12159881Y-12756786D01*
X12150357Y-12794881D01*
X12140833Y-12813928D01*
X12131309Y-12823452D01*
X12112262Y-12832976D01*
X12093214Y-12832976D01*
X12074167Y-12823452D01*
X12064643Y-12813928D01*
X12055119Y-12794881D01*
X12045595Y-12756786D01*
X12045595Y-12709167D01*
X12055119Y-12671071D01*
X12064643Y-12652024D01*
X12074167Y-12642500D01*
X12093214Y-12632976D01*
X12245595Y-12813928D02*
X12255119Y-12823452D01*
X12245595Y-12832976D01*
X12236071Y-12823452D01*
X12245595Y-12813928D01*
X12245595Y-12832976D01*
X12426548Y-12632976D02*
X12388452Y-12632976D01*
X12369405Y-12642500D01*
X12359881Y-12652024D01*
X12340833Y-12680595D01*
X12331309Y-12718690D01*
X12331309Y-12794881D01*
X12340833Y-12813928D01*
X12350357Y-12823452D01*
X12369405Y-12832976D01*
X12407500Y-12832976D01*
X12426548Y-12823452D01*
X12436071Y-12813928D01*
X12445595Y-12794881D01*
X12445595Y-12747262D01*
X12436071Y-12728214D01*
X12426548Y-12718690D01*
X12407500Y-12709167D01*
X12369405Y-12709167D01*
X12350357Y-12718690D01*
X12340833Y-12728214D01*
X12331309Y-12747262D01*
X12626548Y-12632976D02*
X12531309Y-12632976D01*
X12521786Y-12728214D01*
X12531309Y-12718690D01*
X12550357Y-12709167D01*
X12597976Y-12709167D01*
X12617024Y-12718690D01*
X12626548Y-12728214D01*
X12636071Y-12747262D01*
X12636071Y-12794881D01*
X12626548Y-12813928D01*
X12617024Y-12823452D01*
X12597976Y-12832976D01*
X12550357Y-12832976D01*
X12531309Y-12823452D01*
X12521786Y-12813928D01*
X12759881Y-12632976D02*
X12778928Y-12632976D01*
X12797976Y-12642500D01*
X12807500Y-12652024D01*
X12817024Y-12671071D01*
X12826548Y-12709167D01*
X12826548Y-12756786D01*
X12817024Y-12794881D01*
X12807500Y-12813928D01*
X12797976Y-12823452D01*
X12778928Y-12832976D01*
X12759881Y-12832976D01*
X12740833Y-12823452D01*
X12731309Y-12813928D01*
X12721786Y-12794881D01*
X12712262Y-12756786D01*
X12712262Y-12709167D01*
X12721786Y-12671071D01*
X12731309Y-12652024D01*
X12740833Y-12642500D01*
X12759881Y-12632976D01*
X12912262Y-12832976D02*
X12912262Y-12699643D01*
X12912262Y-12718690D02*
X12921786Y-12709167D01*
X12940833Y-12699643D01*
X12969405Y-12699643D01*
X12988452Y-12709167D01*
X12997976Y-12728214D01*
X12997976Y-12832976D01*
X12997976Y-12728214D02*
X13007500Y-12709167D01*
X13026548Y-12699643D01*
X13055119Y-12699643D01*
X13074167Y-12709167D01*
X13083690Y-12728214D01*
X13083690Y-12832976D01*
X13178928Y-12832976D02*
X13178928Y-12699643D01*
X13178928Y-12718690D02*
X13188452Y-12709167D01*
X13207500Y-12699643D01*
X13236071Y-12699643D01*
X13255119Y-12709167D01*
X13264643Y-12728214D01*
X13264643Y-12832976D01*
X13264643Y-12728214D02*
X13274167Y-12709167D01*
X13293214Y-12699643D01*
X13321786Y-12699643D01*
X13340833Y-12709167D01*
X13350357Y-12728214D01*
X13350357Y-12832976D01*
X13740833Y-12623452D02*
X13569405Y-12880595D01*
X13997976Y-12632976D02*
X14017024Y-12632976D01*
X14036071Y-12642500D01*
X14045595Y-12652024D01*
X14055119Y-12671071D01*
X14064643Y-12709167D01*
X14064643Y-12756786D01*
X14055119Y-12794881D01*
X14045595Y-12813928D01*
X14036071Y-12823452D01*
X14017024Y-12832976D01*
X13997976Y-12832976D01*
X13978928Y-12823452D01*
X13969405Y-12813928D01*
X13959881Y-12794881D01*
X13950357Y-12756786D01*
X13950357Y-12709167D01*
X13959881Y-12671071D01*
X13969405Y-12652024D01*
X13978928Y-12642500D01*
X13997976Y-12632976D01*
X14150357Y-12813928D02*
X14159881Y-12823452D01*
X14150357Y-12832976D01*
X14140833Y-12823452D01*
X14150357Y-12813928D01*
X14150357Y-12832976D01*
X14283690Y-12632976D02*
X14302738Y-12632976D01*
X14321786Y-12642500D01*
X14331309Y-12652024D01*
X14340833Y-12671071D01*
X14350357Y-12709167D01*
X14350357Y-12756786D01*
X14340833Y-12794881D01*
X14331309Y-12813928D01*
X14321786Y-12823452D01*
X14302738Y-12832976D01*
X14283690Y-12832976D01*
X14264643Y-12823452D01*
X14255119Y-12813928D01*
X14245595Y-12794881D01*
X14236071Y-12756786D01*
X14236071Y-12709167D01*
X14245595Y-12671071D01*
X14255119Y-12652024D01*
X14264643Y-12642500D01*
X14283690Y-12632976D01*
X14426548Y-12652024D02*
X14436071Y-12642500D01*
X14455119Y-12632976D01*
X14502738Y-12632976D01*
X14521786Y-12642500D01*
X14531309Y-12652024D01*
X14540833Y-12671071D01*
X14540833Y-12690119D01*
X14531309Y-12718690D01*
X14417024Y-12832976D01*
X14540833Y-12832976D01*
X14721786Y-12632976D02*
X14626548Y-12632976D01*
X14617024Y-12728214D01*
X14626548Y-12718690D01*
X14645595Y-12709167D01*
X14693214Y-12709167D01*
X14712262Y-12718690D01*
X14721786Y-12728214D01*
X14731309Y-12747262D01*
X14731309Y-12794881D01*
X14721786Y-12813928D01*
X14712262Y-12823452D01*
X14693214Y-12832976D01*
X14645595Y-12832976D01*
X14626548Y-12823452D01*
X14617024Y-12813928D01*
X14902738Y-12632976D02*
X14864643Y-12632976D01*
X14845595Y-12642500D01*
X14836071Y-12652024D01*
X14817024Y-12680595D01*
X14807500Y-12718690D01*
X14807500Y-12794881D01*
X14817024Y-12813928D01*
X14826548Y-12823452D01*
X14845595Y-12832976D01*
X14883690Y-12832976D01*
X14902738Y-12823452D01*
X14912262Y-12813928D01*
X14921786Y-12794881D01*
X14921786Y-12747262D01*
X14912262Y-12728214D01*
X14902738Y-12718690D01*
X14883690Y-12709167D01*
X14845595Y-12709167D01*
X14826548Y-12718690D01*
X14817024Y-12728214D01*
X14807500Y-12747262D01*
X14997976Y-12632976D02*
X14997976Y-12671071D01*
X15074167Y-12632976D02*
X15074167Y-12671071D01*
X15369405Y-12909167D02*
X15359881Y-12899643D01*
X15340833Y-12871071D01*
X15331309Y-12852024D01*
X15321786Y-12823452D01*
X15312262Y-12775833D01*
X15312262Y-12737738D01*
X15321786Y-12690119D01*
X15331309Y-12661548D01*
X15340833Y-12642500D01*
X15359881Y-12613928D01*
X15369405Y-12604405D01*
X15436071Y-12652024D02*
X15445595Y-12642500D01*
X15464643Y-12632976D01*
X15512262Y-12632976D01*
X15531309Y-12642500D01*
X15540833Y-12652024D01*
X15550357Y-12671071D01*
X15550357Y-12690119D01*
X15540833Y-12718690D01*
X15426548Y-12832976D01*
X15550357Y-12832976D01*
X15788452Y-12832976D02*
X15788452Y-12632976D01*
X15874167Y-12832976D02*
X15874167Y-12728214D01*
X15864643Y-12709167D01*
X15845595Y-12699643D01*
X15817024Y-12699643D01*
X15797976Y-12709167D01*
X15788452Y-12718690D01*
X15997976Y-12832976D02*
X15978928Y-12823452D01*
X15969405Y-12813928D01*
X15959881Y-12794881D01*
X15959881Y-12737738D01*
X15969405Y-12718690D01*
X15978928Y-12709167D01*
X15997976Y-12699643D01*
X16026548Y-12699643D01*
X16045595Y-12709167D01*
X16055119Y-12718690D01*
X16064643Y-12737738D01*
X16064643Y-12794881D01*
X16055119Y-12813928D01*
X16045595Y-12823452D01*
X16026548Y-12832976D01*
X15997976Y-12832976D01*
X16178928Y-12832976D02*
X16159881Y-12823452D01*
X16150357Y-12804405D01*
X16150357Y-12632976D01*
X16331309Y-12823452D02*
X16312262Y-12832976D01*
X16274167Y-12832976D01*
X16255119Y-12823452D01*
X16245595Y-12804405D01*
X16245595Y-12728214D01*
X16255119Y-12709167D01*
X16274167Y-12699643D01*
X16312262Y-12699643D01*
X16331309Y-12709167D01*
X16340833Y-12728214D01*
X16340833Y-12747262D01*
X16245595Y-12766309D01*
X16417024Y-12823452D02*
X16436071Y-12832976D01*
X16474167Y-12832976D01*
X16493214Y-12823452D01*
X16502738Y-12804405D01*
X16502738Y-12794881D01*
X16493214Y-12775833D01*
X16474167Y-12766309D01*
X16445595Y-12766309D01*
X16426548Y-12756786D01*
X16417024Y-12737738D01*
X16417024Y-12728214D01*
X16426548Y-12709167D01*
X16445595Y-12699643D01*
X16474167Y-12699643D01*
X16493214Y-12709167D01*
X16569405Y-12909167D02*
X16578928Y-12899643D01*
X16597976Y-12871071D01*
X16607500Y-12852024D01*
X16617024Y-12823452D01*
X16626548Y-12775833D01*
X16626548Y-12737738D01*
X16617024Y-12690119D01*
X16607500Y-12661548D01*
X16597976Y-12642500D01*
X16578928Y-12613928D01*
X16569405Y-12604405D01*
X16931310Y-12909167D02*
X16921786Y-12899643D01*
X16902738Y-12871071D01*
X16893214Y-12852024D01*
X16883690Y-12823452D01*
X16874167Y-12775833D01*
X16874167Y-12737738D01*
X16883690Y-12690119D01*
X16893214Y-12661548D01*
X16902738Y-12642500D01*
X16921786Y-12613928D01*
X16931310Y-12604405D01*
X17007500Y-12699643D02*
X17007500Y-12832976D01*
X17007500Y-12718690D02*
X17017024Y-12709167D01*
X17036071Y-12699643D01*
X17064643Y-12699643D01*
X17083690Y-12709167D01*
X17093214Y-12728214D01*
X17093214Y-12832976D01*
X17217024Y-12832976D02*
X17197976Y-12823452D01*
X17188452Y-12813928D01*
X17178929Y-12794881D01*
X17178929Y-12737738D01*
X17188452Y-12718690D01*
X17197976Y-12709167D01*
X17217024Y-12699643D01*
X17245595Y-12699643D01*
X17264643Y-12709167D01*
X17274167Y-12718690D01*
X17283690Y-12737738D01*
X17283690Y-12794881D01*
X17274167Y-12813928D01*
X17264643Y-12823452D01*
X17245595Y-12832976D01*
X17217024Y-12832976D01*
X17340833Y-12699643D02*
X17417024Y-12699643D01*
X17369405Y-12632976D02*
X17369405Y-12804405D01*
X17378929Y-12823452D01*
X17397976Y-12832976D01*
X17417024Y-12832976D01*
X17636071Y-12699643D02*
X17636071Y-12899643D01*
X17636071Y-12709167D02*
X17655119Y-12699643D01*
X17693214Y-12699643D01*
X17712262Y-12709167D01*
X17721786Y-12718690D01*
X17731310Y-12737738D01*
X17731310Y-12794881D01*
X17721786Y-12813928D01*
X17712262Y-12823452D01*
X17693214Y-12832976D01*
X17655119Y-12832976D01*
X17636071Y-12823452D01*
X17845595Y-12832976D02*
X17826548Y-12823452D01*
X17817024Y-12804405D01*
X17817024Y-12632976D01*
X18007500Y-12832976D02*
X18007500Y-12728214D01*
X17997976Y-12709167D01*
X17978929Y-12699643D01*
X17940833Y-12699643D01*
X17921786Y-12709167D01*
X18007500Y-12823452D02*
X17988452Y-12832976D01*
X17940833Y-12832976D01*
X17921786Y-12823452D01*
X17912262Y-12804405D01*
X17912262Y-12785357D01*
X17921786Y-12766309D01*
X17940833Y-12756786D01*
X17988452Y-12756786D01*
X18007500Y-12747262D01*
X18074167Y-12699643D02*
X18150357Y-12699643D01*
X18102738Y-12632976D02*
X18102738Y-12804405D01*
X18112262Y-12823452D01*
X18131310Y-12832976D01*
X18150357Y-12832976D01*
X18293214Y-12823452D02*
X18274167Y-12832976D01*
X18236071Y-12832976D01*
X18217024Y-12823452D01*
X18207500Y-12804405D01*
X18207500Y-12728214D01*
X18217024Y-12709167D01*
X18236071Y-12699643D01*
X18274167Y-12699643D01*
X18293214Y-12709167D01*
X18302738Y-12728214D01*
X18302738Y-12747262D01*
X18207500Y-12766309D01*
X18474167Y-12832976D02*
X18474167Y-12632976D01*
X18474167Y-12823452D02*
X18455119Y-12832976D01*
X18417024Y-12832976D01*
X18397976Y-12823452D01*
X18388452Y-12813928D01*
X18378929Y-12794881D01*
X18378929Y-12737738D01*
X18388452Y-12718690D01*
X18397976Y-12709167D01*
X18417024Y-12699643D01*
X18455119Y-12699643D01*
X18474167Y-12709167D01*
X18550357Y-12909167D02*
X18559881Y-12899643D01*
X18578929Y-12871071D01*
X18588452Y-12852024D01*
X18597976Y-12823452D01*
X18607500Y-12775833D01*
X18607500Y-12737738D01*
X18597976Y-12690119D01*
X18588452Y-12661548D01*
X18578929Y-12642500D01*
X18559881Y-12613928D01*
X18550357Y-12604405D01*
M02*
