M48
; DRILL file {KiCad (6.0.10)} date Wed Jun 21 21:11:05 2023
; FORMAT={-:-/ absolute / inch / decimal}
; #@! TF.CreationDate,2023-06-21T21:11:05+02:00
; #@! TF.GenerationSoftware,Kicad,Pcbnew,(6.0.10)
; #@! TF.FileFunction,Plated,1,6,PTH
FMAT,2
INCH
; #@! TA.AperFunction,Plated,PTH,ViaDrill
T1C0.0079
; #@! TA.AperFunction,Plated,PTH,ViaDrill
T2C0.0157
; #@! TA.AperFunction,Plated,PTH,ComponentDrill
T3C0.0197
; #@! TA.AperFunction,Plated,PTH,ComponentDrill
T4C0.0339
; #@! TA.AperFunction,Plated,PTH,ComponentDrill
T5C0.0937
; #@! TA.AperFunction,Plated,PTH,ComponentDrill
T6C0.1260
%
G90
G05
T1
X4.6742Y-3.5748
X4.7077Y-3.7677
X4.7077Y-3.8012
X4.7077Y-3.8346
X4.7077Y-3.8681
X4.7077Y-3.9016
X4.7077Y-3.935
X4.7077Y-3.9685
X4.7077Y-4.002
X4.7077Y-4.0354
X4.7077Y-4.0689
X4.7077Y-4.1024
X4.7077Y-4.1358
X4.7077Y-4.1693
X4.7077Y-4.2028
X4.7254Y-3.5413
X4.7441Y-3.0423
X4.7687Y-3.6575
X4.7864Y-3.7224
X4.8199Y-3.7224
X4.8514Y-3.9035
X4.8514Y-3.9685
X4.8514Y-4.0335
X4.8809Y-3.5888
X4.8888Y-3.8661
X4.8888Y-4.0709
X4.9262Y-3.5886
X4.9537Y-3.8661
X4.9537Y-4.0709
X4.9675Y-4.315
X4.9705Y-3.623
X4.9941Y-3.5994
X5.0187Y-3.8661
X5.0187Y-4.0709
X5.0561Y-3.9035
X5.0561Y-3.9685
X5.0561Y-4.0335
X5.1683Y-3.0384
X5.1683Y-3.5482
X5.2287Y-3.1181
X5.2287Y-3.1772
X5.2287Y-3.2362
X5.2589Y-3.6929
X5.2589Y-4.2441
X5.3366Y-3.0394
X5.3366Y-3.0787
X5.3366Y-3.1181
X5.3366Y-3.1969
X5.3366Y-3.2362
X5.3366Y-3.2756
X5.3366Y-3.315
X5.3378Y-3.1575
X5.4157Y-3.0394
X5.4157Y-3.0787
X5.4157Y-3.1181
X5.4157Y-3.1575
X5.4157Y-3.1969
X5.4157Y-3.2362
X5.4157Y-3.2756
X5.4157Y-3.315
X5.4213Y-3.8425
X5.5118Y-3.4685
X5.5354Y-3.7165
X5.6654Y-3.6073
X5.6752Y-3.5758
X5.6752Y-3.8022
X5.6781Y-3.6486
X5.6988Y-3.8081
X5.7106Y-3.5758
X5.7106Y-3.6112
X5.7185Y-4.2185
X5.7303Y-4.3081
X5.7303Y-4.3376
X5.7343Y-3.5719
X5.7421Y-3.6132
X5.7421Y-4.2106
X5.7431Y-3.811
X5.7456Y-3.7382
X5.75Y-4.2579
X5.75Y-4.2894
X5.7505Y-4.3219
X5.7505Y-4.3533
X5.7505Y-4.3848
X5.7505Y-4.4163
X5.7781Y-4.436
X5.784Y-3.5399
X5.784Y-3.7382
X5.7968Y-3.5591
X5.8095Y-4.436
X5.8157Y-3.8654
X5.8197Y-3.8146
X5.8204Y-3.7594
X5.8209Y-4.2116
X5.8223Y-3.783
X5.8228Y-3.7008
X5.8236Y-3.8406
X5.8244Y-4.1252
X5.8287Y-4.1575
X5.8346Y-3.7303
X5.8524Y-4.2016
X5.8543Y-3.8533
X5.8543Y-4.4252
X5.8607Y-4.3652
X5.8614Y-4.1681
X5.8671Y-3.6422
X5.8671Y-3.6806
X5.8671Y-3.7382
X5.8671Y-3.7638
X5.8671Y-3.7894
X5.8671Y-3.815
X5.876Y-4.0266
X5.8839Y-4.436
X5.8873Y-3.8538
X5.8898Y-4.0482
X5.8903Y-4.3061
X5.8927Y-3.7382
X5.8927Y-3.7638
X5.8927Y-3.7894
X5.8927Y-3.815
X5.9098Y-3.7035
X5.9183Y-3.6422
X5.9183Y-3.6806
X5.9183Y-3.7382
X5.9183Y-3.7638
X5.9183Y-3.7894
X5.9183Y-3.815
X5.9183Y-3.8725
X5.9183Y-3.9109
X5.9193Y-4.2766
X5.9193Y-4.3061
X5.9198Y-4.247
X5.9198Y-4.3356
X5.9198Y-4.3652
X5.9439Y-3.815
X5.9469Y-3.7031
X5.9488Y-4.3066
X5.9547Y-3.8533
X5.9631Y-4.436
X5.9665Y-3.7234
X5.9783Y-4.3356
X5.9793Y-3.3888
X5.9793Y-3.4311
X5.9793Y-3.6959
X5.9823Y-3.7382
X5.9823Y-3.7958
X5.9823Y-3.8215
X5.9919Y-3.607
X5.9919Y-3.9141
X5.9946Y-4.436
X5.9969Y-3.5402
X5.9983Y-3.6326
X5.9988Y-3.5764
X6.0059Y-3.3888
X6.0059Y-3.4311
X6.0175Y-3.6582
X6.0217Y-4.2018
X6.0236Y-4.0925
X6.0261Y-4.436
X6.0276Y-3.5551
X6.03Y-4.1762
X6.0315Y-4.125
X6.0413Y-3.5177
X6.0431Y-3.7158
X6.0431Y-3.8182
X6.0433Y-4.3967
X6.0495Y-3.8629
X6.0495Y-3.8885
X6.0551Y-4.065
X6.0571Y-4.0965
X6.0576Y-4.436
X6.0615Y-4.1762
X6.075Y-3.8374
X6.0768Y-3.5177
X6.0807Y-3.4941
X6.0827Y-4.1604
X6.0891Y-4.1959
X6.0891Y-4.2274
X6.0891Y-4.2589
X6.0891Y-4.2904
X6.0891Y-4.3219
X6.0891Y-4.3533
X6.0891Y-4.3848
X6.0891Y-4.4163
X6.0906Y-4.44
X6.1063Y-3.8337
X6.1083Y-3.9537
X6.1181Y-4.2441
X6.122Y-4.312
X6.124Y-3.7303
X6.1358Y-3.8474
X6.1378Y-3.8888
X6.1398Y-3.9626
X6.1457Y-3.2244
X6.1457Y-3.7205
X6.1516Y-3.9301
X6.1673Y-3.7283
X6.1693Y-3.8652
X6.1732Y-3.9685
X6.1772Y-3.2244
X6.185Y-3.8829
X6.2047Y-3.935
X6.2047Y-3.9636
X6.2087Y-3.2244
X6.2362Y-3.6654
X6.2402Y-3.2244
X6.252Y-3.6929
X6.2667Y-3.4606
X6.2717Y-3.2244
X6.2717Y-3.7185
X6.2874Y-3.7461
X6.3031Y-3.2244
X6.3031Y-3.3425
X6.3031Y-3.5782
X6.3031Y-3.7756
X6.3209Y-3.8031
X6.4013Y-3.4412
X6.4016Y-3.4803
X6.9291Y-4.0669
X6.9291Y-4.311
X6.9409Y-4.189
X7.2559Y-3.685
X7.2559Y-3.7638
X7.2559Y-3.8425
T2
X4.6978Y-4.315
X4.7431Y-4.2067
X4.7451Y-3.7441
X4.7654Y-3.1705
X4.8396Y-4.315
X5.5728Y-3.8691
X5.5728Y-3.9301
X5.6388Y-4.28
X5.6398Y-4.3381
X5.9001Y-4.1171
X5.9001Y-4.4951
X5.9395Y-4.1171
X5.9395Y-4.4951
X6.5305Y-3.3947
X6.5305Y-3.4557
X6.5551Y-4.3504
X6.5551Y-4.5
X6.5669Y-4.3898
X6.5669Y-4.4606
X6.5945Y-4.3504
X6.5945Y-4.5
X6.626Y-3.1693
X6.6299Y-3.3071
X6.6339Y-4.3504
X6.6339Y-4.5
X6.6654Y-3.1693
X6.7215Y-3.9833
X6.7215Y-4.0443
X6.8543Y-4.5118
X6.8858Y-4.3504
X6.8878Y-4.311
X6.8937Y-4.5118
X6.9252Y-4.3504
X6.9331Y-4.5118
X6.9449Y-2.6516
X6.9449Y-2.8996
X6.9606Y-3.9961
X6.9646Y-4.3504
X7.1181Y-4.0433
X7.122Y-4.3346
T3
X4.7087Y-2.7559
X4.7087Y-4.6063
X4.7363Y-2.6891
X4.7363Y-2.8227
X4.7363Y-4.5395
X4.7363Y-4.6731
X4.8031Y-2.6614
X4.8031Y-2.8504
X4.8031Y-4.5118
X4.8031Y-4.7008
X4.87Y-2.6891
X4.87Y-2.8227
X4.87Y-4.5395
X4.87Y-4.6731
X4.8976Y-2.7559
X4.8976Y-4.6063
X7.0512Y-2.7559
X7.0512Y-4.6063
X7.0789Y-2.6891
X7.0789Y-2.8227
X7.0789Y-4.5395
X7.0789Y-4.6731
X7.1457Y-2.6614
X7.1457Y-2.8504
X7.1457Y-4.5118
X7.1457Y-4.7008
X7.2125Y-2.6891
X7.2125Y-2.8227
X7.2125Y-4.5395
X7.2125Y-4.6731
X7.2402Y-2.7559
X7.2402Y-4.6063
T4
X5.0197Y-2.6575
X5.0197Y-4.7047
X5.1197Y-2.6575
X5.1197Y-4.7047
X5.2197Y-2.6575
X5.2197Y-4.7047
X5.3197Y-2.6575
X5.3197Y-4.7047
X5.4197Y-2.6575
X5.4197Y-4.7047
X5.5197Y-2.6575
X5.5197Y-4.7047
X5.6197Y-2.6575
X5.6197Y-4.7047
X5.7197Y-2.6575
X5.7197Y-4.7047
X5.8197Y-2.6575
X5.8197Y-4.7047
X5.9197Y-2.6575
X5.9197Y-4.7047
X6.1417Y-2.6575
X6.2291Y-4.7047
X6.2417Y-2.6575
X6.3291Y-4.7047
X6.3417Y-2.6575
X6.4291Y-4.7047
X6.4417Y-2.6575
X6.5291Y-4.7047
X6.5417Y-2.6575
X6.6291Y-4.7047
X6.6417Y-2.6575
X6.7291Y-4.7047
X6.8291Y-4.7047
X6.9291Y-4.7047
T5
X6.9024Y-3.0551
X6.9024Y-3.5591
T6
X4.8031Y-2.7559
X4.8031Y-4.6063
X7.1457Y-2.7559
X7.1457Y-4.6063
T0
M30
