%TF.GenerationSoftware,KiCad,Pcbnew,(6.0.10)*%
%TF.CreationDate,2023-06-21T21:11:03+02:00*%
%TF.ProjectId,FOX-PDA-v1,464f582d-5044-4412-9d76-312e6b696361,rev?*%
%TF.SameCoordinates,Original*%
%TF.FileFunction,Copper,L4,Inr*%
%TF.FilePolarity,Positive*%
%FSLAX46Y46*%
G04 Gerber Fmt 4.6, Leading zero omitted, Abs format (unit mm)*
G04 Created by KiCad (PCBNEW (6.0.10)) date 2023-06-21 21:11:03*
%MOMM*%
%LPD*%
G01*
G04 APERTURE LIST*
%TA.AperFunction,ComponentPad*%
%ADD10C,0.800000*%
%TD*%
%TA.AperFunction,ComponentPad*%
%ADD11C,6.400000*%
%TD*%
%TA.AperFunction,ComponentPad*%
%ADD12C,1.300000*%
%TD*%
%TA.AperFunction,ComponentPad*%
%ADD13C,3.570000*%
%TD*%
%TA.AperFunction,ViaPad*%
%ADD14C,0.450000*%
%TD*%
%TA.AperFunction,ViaPad*%
%ADD15C,0.800000*%
%TD*%
%TA.AperFunction,Conductor*%
%ADD16C,0.127000*%
%TD*%
%TA.AperFunction,Conductor*%
%ADD17C,0.090000*%
%TD*%
G04 APERTURE END LIST*
D10*
%TO.N,unconnected-(H2-Pad1)*%
%TO.C,H2*%
X179100000Y-70000000D03*
X183900000Y-70000000D03*
D11*
X181500000Y-70000000D03*
D10*
X181500000Y-67600000D03*
X179802944Y-68302944D03*
X183197056Y-71697056D03*
X183197056Y-68302944D03*
X181500000Y-72400000D03*
X179802944Y-71697056D03*
%TD*%
D12*
%TO.N,PF11*%
%TO.C,J6*%
X150360000Y-119500000D03*
%TO.N,PC5*%
X147820000Y-119500000D03*
%TO.N,PB0*%
X145280000Y-119500000D03*
%TO.N,PA5*%
X142740000Y-119500000D03*
%TO.N,PB1*%
X140200000Y-119500000D03*
%TO.N,PA6*%
X137660000Y-119500000D03*
%TO.N,PA7*%
X135120000Y-119500000D03*
%TO.N,PA0*%
X132580000Y-119500000D03*
%TO.N,PA3*%
X130040000Y-119500000D03*
%TO.N,PA2*%
X127500000Y-119500000D03*
%TD*%
%TO.N,PI1*%
%TO.C,J7*%
X156000000Y-67500000D03*
%TO.N,PA10*%
X158540000Y-67500000D03*
%TO.N,PI0*%
X161080000Y-67500000D03*
%TO.N,PA9*%
X163620000Y-67500000D03*
%TO.N,PC7*%
X166160000Y-67500000D03*
%TO.N,PG8*%
X168700000Y-67500000D03*
%TD*%
%TO.N,PB5*%
%TO.C,J5*%
X127500000Y-67500000D03*
%TO.N,PG15*%
X130040000Y-67500000D03*
%TO.N,PG14*%
X132580000Y-67500000D03*
%TO.N,PG12*%
X135120000Y-67500000D03*
%TO.N,PG13*%
X137660000Y-67500000D03*
%TO.N,PG11*%
X140200000Y-67500000D03*
%TO.N,PB4*%
X142740000Y-67500000D03*
%TO.N,PG10*%
X145280000Y-67500000D03*
%TO.N,PD6*%
X147820000Y-67500000D03*
%TO.N,PI3*%
X150360000Y-67500000D03*
%TD*%
D10*
%TO.N,unconnected-(H1-Pad1)*%
%TO.C,H1*%
X181500000Y-114600000D03*
X183197056Y-118697056D03*
X179802944Y-118697056D03*
X181500000Y-119400000D03*
X179802944Y-115302944D03*
D11*
X181500000Y-117000000D03*
D10*
X183197056Y-115302944D03*
X183900000Y-117000000D03*
X179100000Y-117000000D03*
%TD*%
%TO.N,unconnected-(H3-Pad1)*%
%TO.C,H3*%
X123697056Y-118697056D03*
X124400000Y-117000000D03*
X120302944Y-118697056D03*
X119600000Y-117000000D03*
X122000000Y-119400000D03*
D11*
X122000000Y-117000000D03*
D10*
X123697056Y-115302944D03*
X122000000Y-114600000D03*
X120302944Y-115302944D03*
%TD*%
D11*
%TO.N,unconnected-(H4-Pad1)*%
%TO.C,H4*%
X122000000Y-70000000D03*
D10*
X124400000Y-70000000D03*
X120302944Y-68302944D03*
X122000000Y-72400000D03*
X123697056Y-71697056D03*
X120302944Y-71697056D03*
X119600000Y-70000000D03*
X123697056Y-68302944D03*
X122000000Y-67600000D03*
%TD*%
D12*
%TO.N,VDD*%
%TO.C,J3*%
X176000000Y-119500000D03*
X173460000Y-119500000D03*
%TO.N,VSS*%
X170920000Y-119500000D03*
X168380000Y-119500000D03*
%TO.N,PB13*%
X165840000Y-119500000D03*
%TO.N,PB11*%
X163300000Y-119500000D03*
%TO.N,PB12*%
X160760000Y-119500000D03*
%TO.N,PB10*%
X158220000Y-119500000D03*
%TD*%
D13*
%TO.N,VSS*%
%TO.C,J1*%
X175320000Y-90400000D03*
X175320000Y-77600000D03*
%TD*%
D14*
%TO.N,VCAP2*%
X153493750Y-94381250D03*
D15*
%TO.N,VDD*%
X143250000Y-110187500D03*
D14*
X144225000Y-92675000D03*
X160100000Y-90887500D03*
X137560000Y-81200000D03*
X135580000Y-80200000D03*
X137560000Y-82200000D03*
D15*
X168500000Y-110500000D03*
X167500000Y-110500000D03*
D14*
X126175000Y-109600000D03*
X146912500Y-94950000D03*
X150325000Y-99337500D03*
X149025000Y-92512500D03*
X147920000Y-97550000D03*
X150325000Y-92512500D03*
X162600000Y-88400000D03*
X137560000Y-83200000D03*
X137560000Y-84200000D03*
D15*
X149862500Y-104575000D03*
D14*
X151950000Y-96412500D03*
X148050000Y-105600000D03*
D15*
X150862500Y-114175000D03*
D14*
X123975000Y-91155000D03*
X137560000Y-79200000D03*
D15*
X166800000Y-111500000D03*
D14*
X137560000Y-77200000D03*
D15*
X166500000Y-110500000D03*
D14*
X125125000Y-91150000D03*
X137560000Y-78200000D03*
D15*
X122925000Y-109600000D03*
X141550000Y-99825000D03*
%TO.N,VSS*%
X176900000Y-110500000D03*
X175900000Y-110500000D03*
D14*
X124175000Y-103400000D03*
X132810000Y-80700000D03*
X150325000Y-94950000D03*
X149025000Y-96900000D03*
X119575000Y-99100000D03*
X127475000Y-103400000D03*
D15*
X141550000Y-98275000D03*
D14*
X151550000Y-94575000D03*
X143900000Y-91625000D03*
X132810000Y-79200000D03*
D15*
X150862500Y-104575000D03*
D14*
X152320000Y-89920000D03*
X145550000Y-110175000D03*
X154450000Y-88750000D03*
X150325000Y-98362500D03*
D15*
X119325000Y-109600000D03*
X167500000Y-114300000D03*
D14*
X149675000Y-96900000D03*
X119575000Y-100800000D03*
X125825000Y-98200000D03*
D15*
X169300000Y-80500000D03*
X166800000Y-113300000D03*
D14*
X119575000Y-106750000D03*
X147720000Y-98180000D03*
X123225000Y-100800000D03*
X118725000Y-90800000D03*
X144150000Y-90825000D03*
X124175000Y-98200000D03*
X176000000Y-103300000D03*
X160100000Y-84900000D03*
X149675000Y-95600000D03*
X128425000Y-100800000D03*
X125825000Y-103400000D03*
D15*
X166500000Y-114300000D03*
D14*
X156650000Y-94700000D03*
X119575000Y-98250000D03*
X184300000Y-93600000D03*
X176300000Y-106400000D03*
X132810000Y-82200000D03*
X151950000Y-94950000D03*
D15*
X165875000Y-86225000D03*
D14*
X184300000Y-95600000D03*
X131275000Y-77175000D03*
X150325000Y-93487500D03*
X150325000Y-95600000D03*
X155400000Y-107800000D03*
X119575000Y-99950000D03*
X155500000Y-109525000D03*
X149675000Y-96250000D03*
X133575000Y-93800000D03*
D15*
X168300000Y-80500000D03*
D14*
X137700000Y-97600000D03*
X151850000Y-110125000D03*
D15*
X174900000Y-110500000D03*
D14*
X176000000Y-109500000D03*
X149675000Y-94950000D03*
X150325000Y-96250000D03*
X120500000Y-77275000D03*
X145250000Y-107150000D03*
X123225000Y-102450000D03*
D15*
X176400000Y-67350000D03*
D14*
X119575000Y-103350000D03*
X145550000Y-109425000D03*
D15*
X149862500Y-114175000D03*
D14*
X149025000Y-96250000D03*
X119575000Y-97400000D03*
D15*
X176800000Y-101500000D03*
D14*
X154500000Y-105675000D03*
X123225000Y-99150000D03*
D15*
X168400000Y-84000000D03*
X121040000Y-80530000D03*
D14*
X119575000Y-102500000D03*
D15*
X180800000Y-102700000D03*
D14*
X119575000Y-105900000D03*
X122425000Y-94550000D03*
D15*
X176400000Y-73650000D03*
D14*
X128425000Y-99150000D03*
X150975000Y-96900000D03*
X145650000Y-90725000D03*
X119575000Y-104200000D03*
X127475000Y-98200000D03*
X128425000Y-102450000D03*
D15*
X168500000Y-114300000D03*
D14*
X140000000Y-88100000D03*
X157600000Y-99950000D03*
X131275000Y-90125000D03*
X149025000Y-93487500D03*
D15*
X120475000Y-106850000D03*
D14*
X145937500Y-94950000D03*
D15*
X143225000Y-108712500D03*
D14*
X149025000Y-95600000D03*
X157600000Y-100675000D03*
X119575000Y-95700000D03*
X150325000Y-96900000D03*
X137560000Y-80200000D03*
X119575000Y-101650000D03*
X119575000Y-105050000D03*
D15*
X174950000Y-109500000D03*
D14*
X121575000Y-94550000D03*
D15*
X180900000Y-110100000D03*
D14*
X133575000Y-107800000D03*
X157100000Y-98625000D03*
X154700000Y-112775000D03*
X149025000Y-94950000D03*
D15*
X170725000Y-102725000D03*
D14*
X120025000Y-89950000D03*
X147900000Y-94000000D03*
D15*
X120525000Y-95100000D03*
D14*
X184300000Y-97600000D03*
X121125000Y-92900000D03*
X140600000Y-94400000D03*
X162592500Y-87407500D03*
X119575000Y-96550000D03*
X152950000Y-106725000D03*
%TO.N,SDMMC_CK*%
X152370000Y-90840000D03*
X135550000Y-79200000D03*
%TO.N,SDMMC_D3*%
X153450000Y-89350000D03*
X135550000Y-82200000D03*
%TO.N,SDMMC_D2*%
X154350000Y-89350000D03*
X135550000Y-83200000D03*
%TO.N,SDMMC_CMD*%
X135550000Y-81200000D03*
X151875000Y-93875000D03*
%TO.N,SDMMC_D1*%
X156100000Y-94500000D03*
X135550000Y-77200000D03*
%TO.N,SDMMC_D0*%
X155550000Y-94750000D03*
X135550000Y-78200000D03*
%TO.N,PSRAM_A19*%
X145050000Y-90825000D03*
X154662500Y-112175000D03*
%TO.N,PSRAM_NBL1*%
X146912500Y-89912500D03*
X146762500Y-112675000D03*
%TO.N,PSRAM_NBL0*%
X147562500Y-112675000D03*
X147237500Y-90400000D03*
%TO.N,PSRAM_CE#*%
X152193750Y-91618750D03*
X147940000Y-104780000D03*
%TO.N,PSRAM_A20*%
X153162500Y-106075000D03*
X145050000Y-91725000D03*
%TO.N,PSRAM_A21*%
X151100000Y-109387500D03*
X145850000Y-91775000D03*
%TO.N,PSRAM_DQ2*%
X152356250Y-92268750D03*
X148880000Y-105870000D03*
%TO.N,PSRAM_WE#*%
X151050000Y-94060000D03*
X153962500Y-106075000D03*
%TO.N,PSRAM_DQ3*%
X152843750Y-92918750D03*
X150362500Y-107875000D03*
%TO.N,PSRAM_OE#*%
X146062500Y-112175000D03*
X150110000Y-94070000D03*
%TO.N,PSRAM_A0*%
X148200000Y-94750000D03*
X146062500Y-110575000D03*
%TO.N,PSRAM_A2*%
X144150000Y-96575000D03*
X145850000Y-106950000D03*
%TO.N,PSRAM_A1*%
X146050000Y-108950000D03*
X147837500Y-95487500D03*
%TO.N,NRST*%
X159175000Y-87900000D03*
X144750000Y-96725000D03*
%TO.N,PSRAM_A3*%
X145875000Y-96800000D03*
X146062500Y-111375000D03*
%TO.N,PSRAM_A4*%
X147887500Y-96087500D03*
X146050000Y-108150000D03*
%TO.N,PSRAM_A5*%
X147820000Y-96890000D03*
X146062500Y-109775000D03*
%TO.N,PSRAM_A15*%
X153493750Y-96981250D03*
X154662500Y-108975000D03*
%TO.N,PSRAM_A14*%
X155100000Y-97375000D03*
X151462500Y-112675000D03*
%TO.N,PSRAM_A13*%
X154662500Y-107375000D03*
X154306250Y-97468750D03*
%TO.N,PSRAM_DQ1*%
X153656250Y-98118750D03*
X148650000Y-106720000D03*
%TO.N,PSRAM_A12*%
X154662500Y-110575000D03*
X155850000Y-97725000D03*
%TO.N,PSRAM_A11*%
X154662500Y-106575000D03*
X151250000Y-97875000D03*
%TO.N,PSRAM_DQ0*%
X147850000Y-106975000D03*
X153656250Y-98768750D03*
%TO.N,PSRAM_A18*%
X153500000Y-111675000D03*
X156700000Y-98175000D03*
%TO.N,PSRAM_A7*%
X148700000Y-97875000D03*
X149612500Y-109375000D03*
%TO.N,PSRAM_A10*%
X154662500Y-108175000D03*
X149537500Y-97887500D03*
%TO.N,PSRAM_DQ10*%
X152193750Y-99418750D03*
X148862500Y-110875000D03*
%TO.N,PSRAM_A17*%
X150350000Y-109375000D03*
X156250000Y-99825000D03*
%TO.N,PSRAM_A16*%
X155900000Y-98775000D03*
X150350000Y-108625000D03*
%TO.N,PSRAM_DQ15*%
X153862500Y-112675000D03*
X156800000Y-100800000D03*
%TO.N,PSRAM_A9*%
X154662500Y-109775000D03*
X149600000Y-102825000D03*
%TO.N,PSRAM_DQ8*%
X148700000Y-112400000D03*
X153000000Y-103950000D03*
%TO.N,PSRAM_DQ11*%
X150362500Y-110125000D03*
X153800000Y-103250000D03*
%TO.N,PSRAM_DQ14*%
X155150000Y-100425000D03*
X152262500Y-112675000D03*
%TO.N,PSRAM_DQ13*%
X155950000Y-100650000D03*
X153062500Y-112675000D03*
%TO.N,PSRAM_A8*%
X154662500Y-111375000D03*
X149250000Y-102275000D03*
%TO.N,PSRAM_DQ9*%
X149450000Y-112675000D03*
X153200000Y-104775000D03*
%TO.N,PSRAM_DQ12*%
X150362500Y-110875000D03*
X153850000Y-104050000D03*
%TO.N,VCAP1*%
X151950000Y-97065000D03*
%TO.N,WIFI_UART_TX*%
X126250000Y-92025000D03*
X126850000Y-91425000D03*
D15*
%TO.N,VCC*%
X165875000Y-87775000D03*
X176100000Y-114600000D03*
X170725000Y-101175000D03*
X174100000Y-114600000D03*
X175100000Y-114600000D03*
D14*
%TO.N,SDMMC_SW*%
X153100000Y-90300000D03*
X135550000Y-84200000D03*
%TO.N,PD6*%
X151875000Y-87150000D03*
X151875000Y-86075000D03*
%TO.N,PI3*%
X152550000Y-87150000D03*
X152550000Y-86075000D03*
%TO.N,PI1*%
X158400000Y-93100000D03*
X156100000Y-81900000D03*
%TO.N,PA10*%
X158800000Y-93800000D03*
X156900000Y-81900000D03*
%TO.N,PI0*%
X157700000Y-81900000D03*
X159300000Y-94450000D03*
%TO.N,PA9*%
X158500000Y-81900000D03*
X159700000Y-95150000D03*
%TO.N,PC7*%
X159300000Y-81900000D03*
X160100000Y-95900000D03*
%TO.N,PG8*%
X160100000Y-81900000D03*
X160550000Y-96600000D03*
%TD*%
D16*
%TO.N,SDMMC_CK*%
X149200000Y-79700000D02*
X136050000Y-79700000D01*
X152370000Y-90840000D02*
X152501500Y-90971500D01*
X136050000Y-79700000D02*
X135550000Y-79200000D01*
X152501500Y-90971500D02*
X153978500Y-90971500D01*
X153978500Y-90971500D02*
X155550000Y-89400000D01*
X155550000Y-86050000D02*
X149200000Y-79700000D01*
X155550000Y-89400000D02*
X155550000Y-86050000D01*
%TO.N,SDMMC_D3*%
X154750000Y-87550000D02*
X153450000Y-88850000D01*
X136050000Y-81700000D02*
X150150000Y-81700000D01*
X153450000Y-88850000D02*
X153450000Y-89350000D01*
X154750000Y-86300000D02*
X154750000Y-87550000D01*
X150150000Y-81700000D02*
X154750000Y-86300000D01*
X135550000Y-82200000D02*
X136050000Y-81700000D01*
%TO.N,SDMMC_D2*%
X153032500Y-88667500D02*
X154350000Y-87350000D01*
X154350000Y-87350000D02*
X154350000Y-86500000D01*
X154350000Y-86500000D02*
X150550000Y-82700000D01*
X153850000Y-89850000D02*
X153150000Y-89850000D01*
X136050000Y-82700000D02*
X135550000Y-83200000D01*
X153150000Y-89850000D02*
X153032500Y-89732500D01*
X154350000Y-89350000D02*
X153850000Y-89850000D01*
X153032500Y-89732500D02*
X153032500Y-88667500D01*
X150550000Y-82700000D02*
X136050000Y-82700000D01*
%TO.N,SDMMC_CMD*%
X152682500Y-90462500D02*
X152682500Y-90472935D01*
X151980000Y-90410000D02*
X152630000Y-90410000D01*
X152630000Y-90410000D02*
X152682500Y-90462500D01*
X155150000Y-89300000D02*
X155150000Y-86131580D01*
X151750000Y-90640000D02*
X151980000Y-90410000D01*
X136050000Y-80700000D02*
X135550000Y-81200000D01*
X151875000Y-93875000D02*
X151750000Y-93750000D01*
X152927065Y-90717500D02*
X153732500Y-90717500D01*
X151750000Y-93750000D02*
X151750000Y-90640000D01*
X153732500Y-90717500D02*
X155150000Y-89300000D01*
X155150000Y-86131580D02*
X149718420Y-80700000D01*
X152682500Y-90472935D02*
X152927065Y-90717500D01*
X149718420Y-80700000D02*
X136050000Y-80700000D01*
%TO.N,SDMMC_D1*%
X148300000Y-77700000D02*
X156250000Y-85650000D01*
X156250000Y-85650000D02*
X156250000Y-94350000D01*
X136035000Y-77700000D02*
X148300000Y-77700000D01*
X156250000Y-94350000D02*
X156100000Y-94500000D01*
X135550000Y-77225000D02*
X136025000Y-77700000D01*
X135550000Y-77200000D02*
X135550000Y-77225000D01*
%TO.N,SDMMC_D0*%
X155682500Y-94327065D02*
X155900000Y-94109565D01*
X155550000Y-94750000D02*
X155682500Y-94617500D01*
X155900000Y-94109565D02*
X155900000Y-85853950D01*
X155682500Y-94617500D02*
X155682500Y-94327065D01*
X136050000Y-78700000D02*
X135550000Y-78200000D01*
X148746050Y-78700000D02*
X136050000Y-78700000D01*
X155900000Y-85853950D02*
X148746050Y-78700000D01*
D17*
%TO.N,PSRAM_A19*%
X144750000Y-90825000D02*
X145050000Y-90825000D01*
X143950000Y-95625000D02*
X144795851Y-95625000D01*
X144500000Y-98079149D02*
X143450000Y-97029149D01*
X144300000Y-91275000D02*
X144750000Y-90825000D01*
X144300000Y-92025000D02*
X144300000Y-91275000D01*
X144950000Y-95470851D02*
X144950000Y-92675000D01*
X146825000Y-112000000D02*
X146250000Y-112575000D01*
X146250000Y-112575000D02*
X145800000Y-112575000D01*
X153665272Y-112074000D02*
X153334728Y-112074000D01*
X143450000Y-96125000D02*
X143950000Y-95625000D01*
X154662500Y-112175000D02*
X154487500Y-112000000D01*
X144500000Y-111275000D02*
X144500000Y-98079149D01*
X143450000Y-97029149D02*
X143450000Y-96125000D01*
X154487500Y-112000000D02*
X153739272Y-112000000D01*
X144795851Y-95625000D02*
X144950000Y-95470851D01*
X144950000Y-92675000D02*
X144300000Y-92025000D01*
X153334728Y-112074000D02*
X153260728Y-112000000D01*
X145800000Y-112575000D02*
X144500000Y-111275000D01*
X153260728Y-112000000D02*
X146825000Y-112000000D01*
X153739272Y-112000000D02*
X153665272Y-112074000D01*
%TO.N,PSRAM_A20*%
X147200000Y-92475000D02*
X145800000Y-92475000D01*
X148626000Y-93901000D02*
X147200000Y-92475000D01*
X148626000Y-97251000D02*
X148626000Y-93901000D01*
X150850000Y-98025000D02*
X150250000Y-97425000D01*
X150250000Y-97425000D02*
X148800000Y-97425000D01*
X152000000Y-104912500D02*
X152000000Y-100375000D01*
X152000000Y-100375000D02*
X150850000Y-99225000D01*
X150850000Y-99225000D02*
X150850000Y-98025000D01*
X148800000Y-97425000D02*
X148626000Y-97251000D01*
X145800000Y-92475000D02*
X145050000Y-91725000D01*
X153162500Y-106075000D02*
X152000000Y-104912500D01*
%TO.N,PSRAM_A21*%
X144050000Y-95925000D02*
X144900000Y-95925000D01*
X143750000Y-96875000D02*
X143750000Y-96225000D01*
X144850000Y-91325000D02*
X145400000Y-91325000D01*
X144651000Y-91524000D02*
X144850000Y-91325000D01*
X144651000Y-91890272D02*
X144651000Y-91524000D01*
X143750000Y-96225000D02*
X144050000Y-95925000D01*
X144900000Y-95925000D02*
X145232000Y-95593000D01*
X144800000Y-110825000D02*
X144800000Y-97925000D01*
X151100000Y-111125000D02*
X150675000Y-111550000D01*
X151100000Y-109387500D02*
X151100000Y-111125000D01*
X145400000Y-91325000D02*
X145850000Y-91775000D01*
X146451772Y-111550000D02*
X146227772Y-111774000D01*
X145232000Y-95593000D02*
X145232000Y-92471272D01*
X146227772Y-111774000D02*
X145749000Y-111774000D01*
X145232000Y-92471272D02*
X144651000Y-91890272D01*
X144800000Y-97925000D02*
X143750000Y-96875000D01*
X150675000Y-111550000D02*
X146451772Y-111550000D01*
X145749000Y-111774000D02*
X144800000Y-110825000D01*
%TO.N,PSRAM_WE#*%
X153962500Y-106750000D02*
X153962500Y-106075000D01*
X153300000Y-97525000D02*
X153700000Y-97525000D01*
X154187500Y-106975000D02*
X153962500Y-106750000D01*
X154164000Y-97989000D02*
X154164000Y-102289000D01*
X154850000Y-106975000D02*
X154187500Y-106975000D01*
X151050000Y-94060000D02*
X150950000Y-94160000D01*
X152950000Y-97175000D02*
X153300000Y-97525000D01*
X152950000Y-95925000D02*
X152950000Y-97175000D01*
X155050000Y-105352429D02*
X155117000Y-105419429D01*
X150950000Y-94160000D02*
X150950000Y-95125000D01*
X155050000Y-103175000D02*
X155050000Y-105352429D01*
X155117000Y-105419429D02*
X155117000Y-106708000D01*
X154164000Y-102289000D02*
X155050000Y-103175000D01*
X150950000Y-95125000D02*
X151500000Y-95675000D01*
X153700000Y-97525000D02*
X154164000Y-97989000D01*
X151500000Y-95675000D02*
X152700000Y-95675000D01*
X152700000Y-95675000D02*
X152950000Y-95925000D01*
X155117000Y-106708000D02*
X154850000Y-106975000D01*
%TO.N,PSRAM_A0*%
X147600000Y-107289272D02*
X147600000Y-109037500D01*
X148350000Y-97660728D02*
X148301000Y-97709728D01*
X148350000Y-94900000D02*
X148350000Y-97660728D01*
X148200000Y-94750000D02*
X148350000Y-94900000D01*
X147600000Y-109037500D02*
X146062500Y-110575000D01*
X148301000Y-98040272D02*
X148350000Y-98089272D01*
X148301000Y-97709728D02*
X148301000Y-98040272D01*
X147450000Y-107139272D02*
X147600000Y-107289272D01*
X147450000Y-99125000D02*
X147450000Y-107139272D01*
X148350000Y-98225000D02*
X147450000Y-99125000D01*
X148350000Y-98089272D02*
X148350000Y-98225000D01*
%TO.N,PSRAM_A2*%
X145300000Y-96625000D02*
X144925000Y-96250000D01*
X145300000Y-106400000D02*
X145300000Y-96625000D01*
X144475000Y-96250000D02*
X144150000Y-96575000D01*
X144925000Y-96250000D02*
X144475000Y-96250000D01*
X145850000Y-106950000D02*
X145300000Y-106400000D01*
%TO.N,PSRAM_A1*%
X145550000Y-108950000D02*
X146050000Y-108950000D01*
X146879202Y-95487500D02*
X146314000Y-96052702D01*
X146314000Y-96052702D02*
X146314000Y-105547298D01*
X146314000Y-105547298D02*
X146750000Y-105983298D01*
X146750000Y-105983298D02*
X146750000Y-107400000D01*
X146750000Y-107400000D02*
X146500000Y-107650000D01*
X145350000Y-108150000D02*
X145350000Y-108750000D01*
X145350000Y-108750000D02*
X145550000Y-108950000D01*
X147837500Y-95487500D02*
X146879202Y-95487500D01*
X146500000Y-107650000D02*
X145850000Y-107650000D01*
X145850000Y-107650000D02*
X145350000Y-108150000D01*
%TO.N,PSRAM_A3*%
X145800000Y-105625000D02*
X146500000Y-106325000D01*
X145100000Y-110412500D02*
X146062500Y-111375000D01*
X145100000Y-108000000D02*
X145100000Y-110412500D01*
X146250000Y-107400000D02*
X145700000Y-107400000D01*
X145875000Y-96800000D02*
X145800000Y-96875000D01*
X145700000Y-107400000D02*
X145100000Y-108000000D01*
X146500000Y-106325000D02*
X146500000Y-107150000D01*
X146500000Y-107150000D02*
X146250000Y-107400000D01*
X145800000Y-96875000D02*
X145800000Y-105625000D01*
%TO.N,PSRAM_A4*%
X147014000Y-105939000D02*
X146650000Y-105575000D01*
X146050000Y-108150000D02*
X146625000Y-108150000D01*
X146625000Y-108150000D02*
X147014000Y-107761000D01*
X146887500Y-96087500D02*
X147887500Y-96087500D01*
X147014000Y-107761000D02*
X147014000Y-105939000D01*
X146650000Y-96325000D02*
X146887500Y-96087500D01*
X146650000Y-105575000D02*
X146650000Y-96325000D01*
%TO.N,PSRAM_A5*%
X147232000Y-107229571D02*
X147300000Y-107297571D01*
X147820000Y-96890000D02*
X147285000Y-96890000D01*
X147050000Y-105666701D02*
X147232000Y-105848701D01*
X147050000Y-97125000D02*
X147050000Y-105666701D01*
X147232000Y-105848701D02*
X147232000Y-107229571D01*
X147300000Y-107297571D02*
X147300000Y-108537500D01*
X147285000Y-96890000D02*
X147050000Y-97125000D01*
X147300000Y-108537500D02*
X146062500Y-109775000D01*
%TO.N,PSRAM_A15*%
X156200000Y-101900000D02*
X155551000Y-101251000D01*
X156300000Y-97600000D02*
X155676000Y-96976000D01*
X156300000Y-99101772D02*
X156300000Y-97600000D01*
X155177429Y-108975000D02*
X155244429Y-108908000D01*
X155244429Y-108908000D02*
X155417000Y-108908000D01*
X155551000Y-99850772D02*
X156300000Y-99101772D01*
X155417000Y-108908000D02*
X156200000Y-108125000D01*
X155676000Y-96976000D02*
X153499000Y-96976000D01*
X156200000Y-108125000D02*
X156200000Y-101900000D01*
X153499000Y-96976000D02*
X153493750Y-96981250D01*
X155551000Y-101251000D02*
X155551000Y-99850772D01*
X154662500Y-108975000D02*
X155177429Y-108975000D01*
%TO.N,PSRAM_A13*%
X154662500Y-107375000D02*
X155050000Y-107375000D01*
X155050000Y-107375000D02*
X155400000Y-107025000D01*
X154450000Y-102025000D02*
X154450000Y-97612500D01*
X155400000Y-107025000D02*
X155400000Y-102975000D01*
X154450000Y-97612500D02*
X154306250Y-97468750D01*
X155400000Y-102975000D02*
X154450000Y-102025000D01*
%TO.N,PSRAM_A11*%
X153850000Y-99612500D02*
X153850000Y-102399894D01*
X153850000Y-102399894D02*
X154700000Y-103249894D01*
X154700000Y-103249894D02*
X154700000Y-105310728D01*
X152112500Y-97875000D02*
X153850000Y-99612500D01*
X154899000Y-106338500D02*
X154662500Y-106575000D01*
X151250000Y-97875000D02*
X152112500Y-97875000D01*
X154700000Y-105310728D02*
X154899000Y-105509728D01*
X154899000Y-105509728D02*
X154899000Y-106338500D01*
%TO.N,PSRAM_A18*%
X153500000Y-111173228D02*
X154497228Y-110176000D01*
X156700000Y-99475000D02*
X156700000Y-98175000D01*
X157000000Y-108625000D02*
X157000000Y-101450000D01*
X157200000Y-99975000D02*
X156700000Y-99475000D01*
X154497228Y-110176000D02*
X155449000Y-110176000D01*
X157000000Y-101450000D02*
X157200000Y-101250000D01*
X157200000Y-101250000D02*
X157200000Y-99975000D01*
X155449000Y-110176000D02*
X157000000Y-108625000D01*
X153500000Y-111675000D02*
X153500000Y-111173228D01*
%TO.N,PSRAM_A7*%
X148450000Y-104775001D02*
X148450000Y-98433299D01*
X149610000Y-105935001D02*
X148450000Y-104775001D01*
X148700000Y-98183299D02*
X148700000Y-97875000D01*
X148450000Y-98433299D02*
X148700000Y-98183299D01*
X149610000Y-109372500D02*
X149610000Y-105935001D01*
X149612500Y-109375000D02*
X149610000Y-109372500D01*
%TO.N,PSRAM_A10*%
X149537500Y-97887500D02*
X148850000Y-98575000D01*
X149900000Y-106675000D02*
X151400000Y-108175000D01*
X148850000Y-104675000D02*
X149900000Y-105725000D01*
X149900000Y-105725000D02*
X149900000Y-106675000D01*
X151400000Y-108175000D02*
X154662500Y-108175000D01*
X148850000Y-98575000D02*
X148850000Y-104675000D01*
%TO.N,PSRAM_A17*%
X156600000Y-101800000D02*
X156600000Y-108375000D01*
X156351000Y-101551000D02*
X156600000Y-101800000D01*
X151550000Y-108925000D02*
X150800000Y-108925000D01*
X152000000Y-109375000D02*
X151550000Y-108925000D01*
X150800000Y-108925000D02*
X150350000Y-109375000D01*
X155849000Y-109126000D02*
X155334728Y-109126000D01*
X156351000Y-99926000D02*
X156351000Y-101551000D01*
X156250000Y-99825000D02*
X156351000Y-99926000D01*
X156600000Y-108375000D02*
X155849000Y-109126000D01*
X155085728Y-109375000D02*
X152000000Y-109375000D01*
X155334728Y-109126000D02*
X155085728Y-109375000D01*
%TO.N,PSRAM_A16*%
X154750000Y-101725000D02*
X154750000Y-99325000D01*
X154750000Y-99325000D02*
X155300000Y-98775000D01*
X155201000Y-108574000D02*
X155850000Y-107925000D01*
X150401000Y-108574000D02*
X155201000Y-108574000D01*
X150350000Y-108625000D02*
X150401000Y-108574000D01*
X155300000Y-98775000D02*
X155900000Y-98775000D01*
X155850000Y-107925000D02*
X155850000Y-102825000D01*
X155850000Y-102825000D02*
X154750000Y-101725000D01*
D16*
%TO.N,SDMMC_SW*%
X136050000Y-83700000D02*
X150900000Y-83700000D01*
X152778500Y-88321500D02*
X152778500Y-89978500D01*
X150900000Y-83700000D02*
X153950000Y-86750000D01*
X135550000Y-84200000D02*
X136050000Y-83700000D01*
X153950000Y-86750000D02*
X153950000Y-87150000D01*
X153950000Y-87150000D02*
X152778500Y-88321500D01*
X152778500Y-89978500D02*
X153100000Y-90300000D01*
%TD*%
M02*
