%TF.GenerationSoftware,KiCad,Pcbnew,(6.0.10)*%
%TF.CreationDate,2023-06-21T21:11:04+02:00*%
%TF.ProjectId,FOX-PDA-v1,464f582d-5044-4412-9d76-312e6b696361,rev?*%
%TF.SameCoordinates,Original*%
%TF.FileFunction,Soldermask,Bot*%
%TF.FilePolarity,Negative*%
%FSLAX46Y46*%
G04 Gerber Fmt 4.6, Leading zero omitted, Abs format (unit mm)*
G04 Created by KiCad (PCBNEW (6.0.10)) date 2023-06-21 21:11:04*
%MOMM*%
%LPD*%
G01*
G04 APERTURE LIST*
G04 Aperture macros list*
%AMRoundRect*
0 Rectangle with rounded corners*
0 $1 Rounding radius*
0 $2 $3 $4 $5 $6 $7 $8 $9 X,Y pos of 4 corners*
0 Add a 4 corners polygon primitive as box body*
4,1,4,$2,$3,$4,$5,$6,$7,$8,$9,$2,$3,0*
0 Add four circle primitives for the rounded corners*
1,1,$1+$1,$2,$3*
1,1,$1+$1,$4,$5*
1,1,$1+$1,$6,$7*
1,1,$1+$1,$8,$9*
0 Add four rect primitives between the rounded corners*
20,1,$1+$1,$2,$3,$4,$5,0*
20,1,$1+$1,$4,$5,$6,$7,0*
20,1,$1+$1,$6,$7,$8,$9,0*
20,1,$1+$1,$8,$9,$2,$3,0*%
G04 Aperture macros list end*
%ADD10C,0.800000*%
%ADD11C,6.400000*%
%ADD12C,1.300000*%
%ADD13C,0.001000*%
%ADD14C,3.570000*%
%ADD15RoundRect,0.140000X0.170000X-0.140000X0.170000X0.140000X-0.170000X0.140000X-0.170000X-0.140000X0*%
%ADD16RoundRect,0.140000X-0.170000X0.140000X-0.170000X-0.140000X0.170000X-0.140000X0.170000X0.140000X0*%
%ADD17RoundRect,0.140000X0.140000X0.170000X-0.140000X0.170000X-0.140000X-0.170000X0.140000X-0.170000X0*%
%ADD18RoundRect,0.225000X-0.250000X0.225000X-0.250000X-0.225000X0.250000X-0.225000X0.250000X0.225000X0*%
G04 APERTURE END LIST*
D10*
%TO.C,H2*%
X179100000Y-70000000D03*
X183900000Y-70000000D03*
D11*
X181500000Y-70000000D03*
D10*
X181500000Y-67600000D03*
X179802944Y-68302944D03*
X183197056Y-71697056D03*
X183197056Y-68302944D03*
X181500000Y-72400000D03*
X179802944Y-71697056D03*
%TD*%
D12*
%TO.C,J6*%
X150360000Y-119500000D03*
X147820000Y-119500000D03*
X145280000Y-119500000D03*
X142740000Y-119500000D03*
X140200000Y-119500000D03*
X137660000Y-119500000D03*
X135120000Y-119500000D03*
X132580000Y-119500000D03*
X130040000Y-119500000D03*
X127500000Y-119500000D03*
%TD*%
%TO.C,J7*%
X156000000Y-67500000D03*
X158540000Y-67500000D03*
X161080000Y-67500000D03*
X163620000Y-67500000D03*
X166160000Y-67500000D03*
X168700000Y-67500000D03*
%TD*%
D13*
%TO.C,J2*%
X179397000Y-103510000D03*
X179397000Y-109290000D03*
%TD*%
D12*
%TO.C,J5*%
X127500000Y-67500000D03*
X130040000Y-67500000D03*
X132580000Y-67500000D03*
X135120000Y-67500000D03*
X137660000Y-67500000D03*
X140200000Y-67500000D03*
X142740000Y-67500000D03*
X145280000Y-67500000D03*
X147820000Y-67500000D03*
X150360000Y-67500000D03*
%TD*%
D10*
%TO.C,H1*%
X181500000Y-114600000D03*
X183197056Y-118697056D03*
X179802944Y-118697056D03*
X181500000Y-119400000D03*
X179802944Y-115302944D03*
D11*
X181500000Y-117000000D03*
D10*
X183197056Y-115302944D03*
X183900000Y-117000000D03*
X179100000Y-117000000D03*
%TD*%
%TO.C,H3*%
X123697056Y-118697056D03*
X124400000Y-117000000D03*
X120302944Y-118697056D03*
X119600000Y-117000000D03*
X122000000Y-119400000D03*
D11*
X122000000Y-117000000D03*
D10*
X123697056Y-115302944D03*
X122000000Y-114600000D03*
X120302944Y-115302944D03*
%TD*%
D11*
%TO.C,H4*%
X122000000Y-70000000D03*
D10*
X124400000Y-70000000D03*
X120302944Y-68302944D03*
X122000000Y-72400000D03*
X123697056Y-71697056D03*
X120302944Y-71697056D03*
X119600000Y-70000000D03*
X123697056Y-68302944D03*
X122000000Y-67600000D03*
%TD*%
D12*
%TO.C,J3*%
X176000000Y-119500000D03*
X173460000Y-119500000D03*
X170920000Y-119500000D03*
X168380000Y-119500000D03*
X165840000Y-119500000D03*
X163300000Y-119500000D03*
X160760000Y-119500000D03*
X158220000Y-119500000D03*
%TD*%
D14*
%TO.C,J1*%
X175320000Y-90400000D03*
X175320000Y-77600000D03*
%TD*%
D15*
%TO.C,C14*%
X148700000Y-99492500D03*
X148700000Y-98532500D03*
%TD*%
D16*
%TO.C,C5*%
X147400000Y-92357500D03*
X147400000Y-93317500D03*
%TD*%
%TO.C,C19*%
X151950000Y-97557500D03*
X151950000Y-98517500D03*
%TD*%
%TO.C,C18*%
X154712500Y-94145000D03*
X154712500Y-95105000D03*
%TD*%
%TO.C,C4*%
X148375000Y-92357500D03*
X148375000Y-93317500D03*
%TD*%
D17*
%TO.C,C9*%
X146905000Y-94300000D03*
X145945000Y-94300000D03*
%TD*%
D15*
%TO.C,C8*%
X153737500Y-96080000D03*
X153737500Y-95120000D03*
%TD*%
D16*
%TO.C,C3*%
X149675000Y-92357500D03*
X149675000Y-93317500D03*
%TD*%
%TO.C,C17*%
X147150000Y-97470000D03*
X147150000Y-98430000D03*
%TD*%
D17*
%TO.C,C10*%
X146905000Y-95600000D03*
X145945000Y-95600000D03*
%TD*%
D15*
%TO.C,C6*%
X152600000Y-96080000D03*
X152600000Y-95120000D03*
%TD*%
D16*
%TO.C,C2*%
X146425000Y-92357500D03*
X146425000Y-93317500D03*
%TD*%
D15*
%TO.C,C16*%
X149675000Y-99492500D03*
X149675000Y-98532500D03*
%TD*%
%TO.C,C7*%
X151300000Y-96080000D03*
X151300000Y-95120000D03*
%TD*%
D16*
%TO.C,C1*%
X150975000Y-92357500D03*
X150975000Y-93317500D03*
%TD*%
D18*
%TO.C,C20*%
X145937500Y-97750000D03*
X145937500Y-99300000D03*
%TD*%
D15*
%TO.C,C15*%
X150975000Y-99492500D03*
X150975000Y-98532500D03*
%TD*%
M02*
