%TF.GenerationSoftware,KiCad,Pcbnew,(6.0.10)*%
%TF.CreationDate,2023-06-21T21:11:03+02:00*%
%TF.ProjectId,FOX-PDA-v1,464f582d-5044-4412-9d76-312e6b696361,rev?*%
%TF.SameCoordinates,Original*%
%TF.FileFunction,Legend,Bot*%
%TF.FilePolarity,Positive*%
%FSLAX46Y46*%
G04 Gerber Fmt 4.6, Leading zero omitted, Abs format (unit mm)*
G04 Created by KiCad (PCBNEW (6.0.10)) date 2023-06-21 21:11:03*
%MOMM*%
%LPD*%
G01*
G04 APERTURE LIST*
%ADD10C,0.120000*%
G04 APERTURE END LIST*
D10*
%TO.C,C14*%
X149060000Y-99120336D02*
X149060000Y-98904664D01*
X148340000Y-99120336D02*
X148340000Y-98904664D01*
%TO.C,C5*%
X147040000Y-92729664D02*
X147040000Y-92945336D01*
X147760000Y-92729664D02*
X147760000Y-92945336D01*
%TO.C,C19*%
X152310000Y-97929664D02*
X152310000Y-98145336D01*
X151590000Y-97929664D02*
X151590000Y-98145336D01*
%TO.C,C18*%
X155072500Y-94517164D02*
X155072500Y-94732836D01*
X154352500Y-94517164D02*
X154352500Y-94732836D01*
%TO.C,C4*%
X148735000Y-92729664D02*
X148735000Y-92945336D01*
X148015000Y-92729664D02*
X148015000Y-92945336D01*
%TO.C,C9*%
X146532836Y-94660000D02*
X146317164Y-94660000D01*
X146532836Y-93940000D02*
X146317164Y-93940000D01*
%TO.C,C8*%
X153377500Y-95707836D02*
X153377500Y-95492164D01*
X154097500Y-95707836D02*
X154097500Y-95492164D01*
%TO.C,C3*%
X150035000Y-92729664D02*
X150035000Y-92945336D01*
X149315000Y-92729664D02*
X149315000Y-92945336D01*
%TO.C,C17*%
X146790000Y-97842164D02*
X146790000Y-98057836D01*
X147510000Y-97842164D02*
X147510000Y-98057836D01*
%TO.C,C10*%
X146532836Y-95960000D02*
X146317164Y-95960000D01*
X146532836Y-95240000D02*
X146317164Y-95240000D01*
%TO.C,C6*%
X152960000Y-95707836D02*
X152960000Y-95492164D01*
X152240000Y-95707836D02*
X152240000Y-95492164D01*
%TO.C,C2*%
X146785000Y-92729664D02*
X146785000Y-92945336D01*
X146065000Y-92729664D02*
X146065000Y-92945336D01*
%TO.C,C16*%
X149315000Y-99120336D02*
X149315000Y-98904664D01*
X150035000Y-99120336D02*
X150035000Y-98904664D01*
%TO.C,C7*%
X150940000Y-95707836D02*
X150940000Y-95492164D01*
X151660000Y-95707836D02*
X151660000Y-95492164D01*
%TO.C,C1*%
X150615000Y-92729664D02*
X150615000Y-92945336D01*
X151335000Y-92729664D02*
X151335000Y-92945336D01*
%TO.C,C20*%
X145427500Y-98384420D02*
X145427500Y-98665580D01*
X146447500Y-98384420D02*
X146447500Y-98665580D01*
%TO.C,C15*%
X150615000Y-99120336D02*
X150615000Y-98904664D01*
X151335000Y-99120336D02*
X151335000Y-98904664D01*
%TD*%
M02*
