%TF.GenerationSoftware,KiCad,Pcbnew,(6.0.10)*%
%TF.CreationDate,2023-06-21T21:11:03+02:00*%
%TF.ProjectId,FOX-PDA-v1,464f582d-5044-4412-9d76-312e6b696361,rev?*%
%TF.SameCoordinates,Original*%
%TF.FileFunction,Copper,L1,Top*%
%TF.FilePolarity,Positive*%
%FSLAX46Y46*%
G04 Gerber Fmt 4.6, Leading zero omitted, Abs format (unit mm)*
G04 Created by KiCad (PCBNEW (6.0.10)) date 2023-06-21 21:11:03*
%MOMM*%
%LPD*%
G01*
G04 APERTURE LIST*
G04 Aperture macros list*
%AMRoundRect*
0 Rectangle with rounded corners*
0 $1 Rounding radius*
0 $2 $3 $4 $5 $6 $7 $8 $9 X,Y pos of 4 corners*
0 Add a 4 corners polygon primitive as box body*
4,1,4,$2,$3,$4,$5,$6,$7,$8,$9,$2,$3,0*
0 Add four circle primitives for the rounded corners*
1,1,$1+$1,$2,$3*
1,1,$1+$1,$4,$5*
1,1,$1+$1,$6,$7*
1,1,$1+$1,$8,$9*
0 Add four rect primitives between the rounded corners*
20,1,$1+$1,$2,$3,$4,$5,0*
20,1,$1+$1,$4,$5,$6,$7,0*
20,1,$1+$1,$6,$7,$8,$9,0*
20,1,$1+$1,$8,$9,$2,$3,0*%
G04 Aperture macros list end*
%TA.AperFunction,SMDPad,CuDef*%
%ADD10RoundRect,0.225000X0.250000X-0.225000X0.250000X0.225000X-0.250000X0.225000X-0.250000X-0.225000X0*%
%TD*%
%TA.AperFunction,SMDPad,CuDef*%
%ADD11RoundRect,0.135000X-0.135000X-0.185000X0.135000X-0.185000X0.135000X0.185000X-0.135000X0.185000X0*%
%TD*%
%TA.AperFunction,SMDPad,CuDef*%
%ADD12R,1.000000X1.700000*%
%TD*%
%TA.AperFunction,SMDPad,CuDef*%
%ADD13RoundRect,0.140000X0.170000X-0.140000X0.170000X0.140000X-0.170000X0.140000X-0.170000X-0.140000X0*%
%TD*%
%TA.AperFunction,SMDPad,CuDef*%
%ADD14R,1.100000X1.900000*%
%TD*%
%TA.AperFunction,SMDPad,CuDef*%
%ADD15RoundRect,0.135000X0.135000X0.185000X-0.135000X0.185000X-0.135000X-0.185000X0.135000X-0.185000X0*%
%TD*%
%TA.AperFunction,SMDPad,CuDef*%
%ADD16R,1.100000X1.300000*%
%TD*%
%TA.AperFunction,ComponentPad*%
%ADD17C,0.800000*%
%TD*%
%TA.AperFunction,ComponentPad*%
%ADD18C,6.400000*%
%TD*%
%TA.AperFunction,SMDPad,CuDef*%
%ADD19RoundRect,0.225000X-0.250000X0.225000X-0.250000X-0.225000X0.250000X-0.225000X0.250000X0.225000X0*%
%TD*%
%TA.AperFunction,ComponentPad*%
%ADD20C,1.300000*%
%TD*%
%TA.AperFunction,SMDPad,CuDef*%
%ADD21R,1.385000X0.650000*%
%TD*%
%TA.AperFunction,SMDPad,CuDef*%
%ADD22RoundRect,0.225000X0.225000X0.250000X-0.225000X0.250000X-0.225000X-0.250000X0.225000X-0.250000X0*%
%TD*%
%TA.AperFunction,SMDPad,CuDef*%
%ADD23R,0.320000X0.510000*%
%TD*%
%TA.AperFunction,SMDPad,CuDef*%
%ADD24C,0.224000*%
%TD*%
%TA.AperFunction,SMDPad,CuDef*%
%ADD25R,1.150000X0.600000*%
%TD*%
%TA.AperFunction,SMDPad,CuDef*%
%ADD26R,1.150000X0.300000*%
%TD*%
%TA.AperFunction,SMDPad,CuDef*%
%ADD27R,2.000000X2.180000*%
%TD*%
%TA.AperFunction,SMDPad,CuDef*%
%ADD28R,0.950000X0.950000*%
%TD*%
%TA.AperFunction,SMDPad,CuDef*%
%ADD29R,0.500000X0.260000*%
%TD*%
%TA.AperFunction,SMDPad,CuDef*%
%ADD30R,0.590000X0.260000*%
%TD*%
%TA.AperFunction,SMDPad,CuDef*%
%ADD31R,0.620000X0.560000*%
%TD*%
%TA.AperFunction,SMDPad,CuDef*%
%ADD32R,0.600000X0.550000*%
%TD*%
%TA.AperFunction,SMDPad,CuDef*%
%ADD33R,1.000000X1.150000*%
%TD*%
%TA.AperFunction,SMDPad,CuDef*%
%ADD34R,0.400000X0.800000*%
%TD*%
%TA.AperFunction,SMDPad,CuDef*%
%ADD35R,0.800000X0.400000*%
%TD*%
%TA.AperFunction,SMDPad,CuDef*%
%ADD36R,1.200000X1.200000*%
%TD*%
%TA.AperFunction,SMDPad,CuDef*%
%ADD37R,0.800000X0.800000*%
%TD*%
%TA.AperFunction,SMDPad,CuDef*%
%ADD38RoundRect,0.135000X0.185000X-0.135000X0.185000X0.135000X-0.185000X0.135000X-0.185000X-0.135000X0*%
%TD*%
%TA.AperFunction,SMDPad,CuDef*%
%ADD39RoundRect,0.140000X0.140000X0.170000X-0.140000X0.170000X-0.140000X-0.170000X0.140000X-0.170000X0*%
%TD*%
%TA.AperFunction,SMDPad,CuDef*%
%ADD40RoundRect,0.140000X-0.140000X-0.170000X0.140000X-0.170000X0.140000X0.170000X-0.140000X0.170000X0*%
%TD*%
%TA.AperFunction,SMDPad,CuDef*%
%ADD41RoundRect,0.135000X-0.185000X0.135000X-0.185000X-0.135000X0.185000X-0.135000X0.185000X0.135000X0*%
%TD*%
%TA.AperFunction,SMDPad,CuDef*%
%ADD42R,0.930000X0.900000*%
%TD*%
%TA.AperFunction,SMDPad,CuDef*%
%ADD43R,0.780000X1.050000*%
%TD*%
%TA.AperFunction,SMDPad,CuDef*%
%ADD44R,1.830000X1.140000*%
%TD*%
%TA.AperFunction,SMDPad,CuDef*%
%ADD45R,2.800000X0.860000*%
%TD*%
%TA.AperFunction,SMDPad,CuDef*%
%ADD46R,3.330000X0.700000*%
%TD*%
%TA.AperFunction,SMDPad,CuDef*%
%ADD47R,1.100000X0.700000*%
%TD*%
%TA.AperFunction,SMDPad,CuDef*%
%ADD48R,0.914400X0.254000*%
%TD*%
%TA.AperFunction,SMDPad,CuDef*%
%ADD49R,0.914400X0.203200*%
%TD*%
%TA.AperFunction,SMDPad,CuDef*%
%ADD50RoundRect,0.140000X-0.170000X0.140000X-0.170000X-0.140000X0.170000X-0.140000X0.170000X0.140000X0*%
%TD*%
%TA.AperFunction,SMDPad,CuDef*%
%ADD51R,3.000000X1.300000*%
%TD*%
%TA.AperFunction,ComponentPad*%
%ADD52C,3.570000*%
%TD*%
%TA.AperFunction,SMDPad,CuDef*%
%ADD53C,0.330000*%
%TD*%
%TA.AperFunction,ViaPad*%
%ADD54C,0.450000*%
%TD*%
%TA.AperFunction,ViaPad*%
%ADD55C,0.800000*%
%TD*%
%TA.AperFunction,Conductor*%
%ADD56C,0.127000*%
%TD*%
%TA.AperFunction,Conductor*%
%ADD57C,0.600000*%
%TD*%
%TA.AperFunction,Conductor*%
%ADD58C,0.400000*%
%TD*%
%TA.AperFunction,Conductor*%
%ADD59C,0.800000*%
%TD*%
%TA.AperFunction,Conductor*%
%ADD60C,0.200000*%
%TD*%
%TA.AperFunction,Conductor*%
%ADD61C,0.250000*%
%TD*%
%TA.AperFunction,Conductor*%
%ADD62C,0.300000*%
%TD*%
%TA.AperFunction,Conductor*%
%ADD63C,0.090000*%
%TD*%
%TA.AperFunction,Conductor*%
%ADD64C,0.254000*%
%TD*%
G04 APERTURE END LIST*
D10*
%TO.P,C24,1*%
%TO.N,VBUS*%
X174600000Y-102725000D03*
%TO.P,C24,2*%
%TO.N,VSS*%
X174600000Y-101175000D03*
%TD*%
D11*
%TO.P,R18,1*%
%TO.N,SDMMC_CMD*%
X136050000Y-81200000D03*
%TO.P,R18,2*%
%TO.N,VDD*%
X137070000Y-81200000D03*
%TD*%
D10*
%TO.P,C25,1*%
%TO.N,VDD*%
X144200000Y-110175000D03*
%TO.P,C25,2*%
%TO.N,VSS*%
X144200000Y-108625000D03*
%TD*%
%TO.P,C40,1*%
%TO.N,VSS*%
X168000000Y-113175000D03*
%TO.P,C40,2*%
%TO.N,VDD*%
X168000000Y-111625000D03*
%TD*%
D12*
%TO.P,S1,1,NO_1*%
%TO.N,NRST*%
X172600000Y-73650000D03*
%TO.P,S1,2,NO_2*%
X172600000Y-67350000D03*
%TO.P,S1,3,COM_1*%
%TO.N,VSS*%
X176400000Y-73650000D03*
%TO.P,S1,4,COM_2*%
X176400000Y-67350000D03*
%TD*%
D13*
%TO.P,C35,1*%
%TO.N,VDD*%
X143825000Y-99825000D03*
%TO.P,C35,2*%
%TO.N,VSS*%
X143825000Y-98865000D03*
%TD*%
D11*
%TO.P,R4,1*%
%TO.N,USB_DEV_DN*%
X174490000Y-107020000D03*
%TO.P,R4,2*%
%TO.N,USB_DEV_RDN*%
X175510000Y-107020000D03*
%TD*%
D14*
%TO.P,Y2,1*%
%TO.N,RCC_OSC32_IN*%
X141250000Y-89800000D03*
%TO.P,Y2,2*%
%TO.N,Net-(C34-Pad1)*%
X138750000Y-89800000D03*
%TD*%
D15*
%TO.P,R22,1*%
%TO.N,Net-(LED1-Pad2)*%
X180210000Y-97600000D03*
%TO.P,R22,2*%
%TO.N,STATUS_LED_1*%
X179190000Y-97600000D03*
%TD*%
D11*
%TO.P,R19,1*%
%TO.N,SDMMC_CK*%
X136050000Y-79200000D03*
%TO.P,R19,2*%
%TO.N,VDD*%
X137070000Y-79200000D03*
%TD*%
D16*
%TO.P,Y1,1,IN/OUT*%
%TO.N,Net-(C31-Pad1)*%
X140620000Y-96650000D03*
%TO.P,Y1,2,GND_1*%
%TO.N,VSS*%
X140620000Y-94350000D03*
%TO.P,Y1,3,OUT/IN*%
%TO.N,RCC_OSC_IN*%
X138720000Y-94350000D03*
%TO.P,Y1,4,GND_2*%
%TO.N,VSS*%
X138720000Y-96650000D03*
%TD*%
D17*
%TO.P,H2,1,1*%
%TO.N,unconnected-(H2-Pad1)*%
X179100000Y-70000000D03*
X183900000Y-70000000D03*
D18*
X181500000Y-70000000D03*
D17*
X181500000Y-67600000D03*
X179802944Y-68302944D03*
X183197056Y-71697056D03*
X183197056Y-68302944D03*
X181500000Y-72400000D03*
X179802944Y-71697056D03*
%TD*%
D19*
%TO.P,C23,1*%
%TO.N,VCC*%
X171800000Y-101175000D03*
%TO.P,C23,2*%
%TO.N,VSS*%
X171800000Y-102725000D03*
%TD*%
D20*
%TO.P,J6,1,1*%
%TO.N,PF11*%
X150360000Y-119500000D03*
%TO.P,J6,2,2*%
%TO.N,PC5*%
X147820000Y-119500000D03*
%TO.P,J6,3,3*%
%TO.N,PB0*%
X145280000Y-119500000D03*
%TO.P,J6,4,4*%
%TO.N,PA5*%
X142740000Y-119500000D03*
%TO.P,J6,5,5*%
%TO.N,PB1*%
X140200000Y-119500000D03*
%TO.P,J6,6,6*%
%TO.N,PA6*%
X137660000Y-119500000D03*
%TO.P,J6,7,7*%
%TO.N,PA7*%
X135120000Y-119500000D03*
%TO.P,J6,8,8*%
%TO.N,PA0*%
X132580000Y-119500000D03*
%TO.P,J6,9,9*%
%TO.N,PA3*%
X130040000Y-119500000D03*
%TO.P,J6,10,10*%
%TO.N,PA2*%
X127500000Y-119500000D03*
%TD*%
%TO.P,J7,1,1*%
%TO.N,PI1*%
X156000000Y-67500000D03*
%TO.P,J7,2,2*%
%TO.N,PA10*%
X158540000Y-67500000D03*
%TO.P,J7,3,3*%
%TO.N,PI0*%
X161080000Y-67500000D03*
%TO.P,J7,4,4*%
%TO.N,PA9*%
X163620000Y-67500000D03*
%TO.P,J7,5,5*%
%TO.N,PC7*%
X166160000Y-67500000D03*
%TO.P,J7,6,6*%
%TO.N,PG8*%
X168700000Y-67500000D03*
%TD*%
D21*
%TO.P,J4,1,1*%
%TO.N,VDD*%
X160345500Y-89157500D03*
%TO.P,J4,2,2*%
%TO.N,SYS_SWDIO*%
X155529500Y-89157500D03*
%TO.P,J4,3,3*%
%TO.N,NRST*%
X160345500Y-87887500D03*
%TO.P,J4,4,4*%
%TO.N,SYS_SWCLK*%
X155529500Y-87887500D03*
%TO.P,J4,5,5*%
%TO.N,VSS*%
X160345500Y-86617500D03*
%TO.P,J4,6,6*%
%TO.N,SYS_SWO*%
X155529500Y-86617500D03*
%TD*%
D22*
%TO.P,C37,1*%
%TO.N,VDD*%
X121925000Y-109600000D03*
%TO.P,C37,2*%
%TO.N,VSS*%
X120375000Y-109600000D03*
%TD*%
D23*
%TO.P,D3,1*%
%TO.N,VBUS*%
X175950000Y-102450000D03*
%TO.P,D3,2*%
%TO.N,VSS*%
X175950000Y-101450000D03*
%TD*%
D24*
%TO.P,IC1,A1,PE3*%
%TO.N,PSRAM_A19*%
X145450000Y-91375000D03*
%TO.P,IC1,A2,PE2*%
%TO.N,unconnected-(IC1-PadA2)*%
X146100000Y-91375000D03*
%TO.P,IC1,A3,PE1*%
%TO.N,PSRAM_NBL1*%
X146750000Y-91375000D03*
%TO.P,IC1,A4,PE0*%
%TO.N,PSRAM_NBL0*%
X147400000Y-91375000D03*
%TO.P,IC1,A5,PB8*%
%TO.N,WIFI_ENABLE*%
X148050000Y-91375000D03*
%TO.P,IC1,A6,PB5*%
%TO.N,PB5*%
X148700000Y-91375000D03*
%TO.P,IC1,A7,PG14*%
%TO.N,PG14*%
X149350000Y-91375000D03*
%TO.P,IC1,A8,PG13*%
%TO.N,PG13*%
X150000000Y-91375000D03*
%TO.P,IC1,A9,PB4*%
%TO.N,PB4*%
X150650000Y-91375000D03*
%TO.P,IC1,A10,PB3*%
%TO.N,SYS_SWO*%
X151300000Y-91375000D03*
%TO.P,IC1,A11,PD7*%
%TO.N,PSRAM_CE#*%
X151950000Y-91375000D03*
%TO.P,IC1,A12,PC12*%
%TO.N,SDMMC_CK*%
X152600000Y-91375000D03*
%TO.P,IC1,A13,PA15*%
%TO.N,SDMMC_SW*%
X153250000Y-91375000D03*
%TO.P,IC1,A14,PA14*%
%TO.N,SYS_SWCLK*%
X153900000Y-91375000D03*
%TO.P,IC1,A15,PA13*%
%TO.N,SYS_SWDIO*%
X154550000Y-91375000D03*
%TO.P,IC1,B1,PE4*%
%TO.N,PSRAM_A20*%
X145450000Y-92025000D03*
%TO.P,IC1,B2,PE5*%
%TO.N,PSRAM_A21*%
X146100000Y-92025000D03*
%TO.P,IC1,B3,PE6*%
%TO.N,unconnected-(IC1-PadB3)*%
X146750000Y-92025000D03*
%TO.P,IC1,B4,PB9*%
%TO.N,unconnected-(IC1-PadB4)*%
X147400000Y-92025000D03*
%TO.P,IC1,B5,PB7*%
%TO.N,WIFI_UART_RX*%
X148050000Y-92025000D03*
%TO.P,IC1,B6,PB6*%
%TO.N,WIFI_UART_TX*%
X148700000Y-92025000D03*
%TO.P,IC1,B7,PG15*%
%TO.N,PG15*%
X149350000Y-92025000D03*
%TO.P,IC1,B8,PG12*%
%TO.N,PG12*%
X150000000Y-92025000D03*
%TO.P,IC1,B9,PG11*%
%TO.N,PG11*%
X150650000Y-92025000D03*
%TO.P,IC1,B10,PG10*%
%TO.N,PG10*%
X151300000Y-92025000D03*
%TO.P,IC1,B11,PD6*%
%TO.N,PD6*%
X151950000Y-92025000D03*
%TO.P,IC1,B12,PD0*%
%TO.N,PSRAM_DQ2*%
X152600000Y-92025000D03*
%TO.P,IC1,B13,PC11*%
%TO.N,SDMMC_D3*%
X153250000Y-92025000D03*
%TO.P,IC1,B14,PC10*%
%TO.N,SDMMC_D2*%
X153900000Y-92025000D03*
%TO.P,IC1,B15,PA12*%
%TO.N,USB_HOST_DP*%
X154550000Y-92025000D03*
%TO.P,IC1,C1,VBAT*%
%TO.N,VDD*%
X145450000Y-92675000D03*
%TO.P,IC1,C2,PI7*%
%TO.N,unconnected-(IC1-PadC2)*%
X146100000Y-92675000D03*
%TO.P,IC1,C3,PI6*%
%TO.N,unconnected-(IC1-PadC3)*%
X146750000Y-92675000D03*
%TO.P,IC1,C4,PI5*%
%TO.N,unconnected-(IC1-PadC4)*%
X147400000Y-92675000D03*
%TO.P,IC1,C5,VDD_1*%
%TO.N,VDD*%
X148050000Y-92675000D03*
%TO.P,IC1,C6,PDR_ON*%
X148700000Y-92675000D03*
%TO.P,IC1,C7,VDD_2*%
X149350000Y-92675000D03*
%TO.P,IC1,C8,VDD_3*%
X150000000Y-92675000D03*
%TO.P,IC1,C9,VDD_4*%
X150650000Y-92675000D03*
%TO.P,IC1,C10,PG9*%
%TO.N,unconnected-(IC1-PadC10)*%
X151300000Y-92675000D03*
%TO.P,IC1,C11,PD5*%
%TO.N,PSRAM_WE#*%
X151950000Y-92675000D03*
%TO.P,IC1,C12,PD1*%
%TO.N,PSRAM_DQ3*%
X152600000Y-92675000D03*
%TO.P,IC1,C13,PI3*%
%TO.N,PI3*%
X153250000Y-92675000D03*
%TO.P,IC1,C14,PI2*%
%TO.N,USB_OTG_VBUS_EN*%
X153900000Y-92675000D03*
%TO.P,IC1,C15,PA11*%
%TO.N,USB_HOST_DN*%
X154550000Y-92675000D03*
%TO.P,IC1,D1,PC13*%
%TO.N,unconnected-(IC1-PadD1)*%
X145450000Y-93325000D03*
%TO.P,IC1,D2,PI8*%
%TO.N,unconnected-(IC1-PadD2)*%
X146100000Y-93325000D03*
%TO.P,IC1,D3,PI9*%
%TO.N,unconnected-(IC1-PadD3)*%
X146750000Y-93325000D03*
%TO.P,IC1,D4,PI4*%
%TO.N,unconnected-(IC1-PadD4)*%
X147400000Y-93325000D03*
%TO.P,IC1,D5,VSS_1*%
%TO.N,VSS*%
X148050000Y-93325000D03*
%TO.P,IC1,D6,BOOT0*%
X148700000Y-93325000D03*
%TO.P,IC1,D7,VSS_2*%
X149350000Y-93325000D03*
%TO.P,IC1,D8,VSS_3*%
X150000000Y-93325000D03*
%TO.P,IC1,D9,VSS_4*%
X150650000Y-93325000D03*
%TO.P,IC1,D10,PD4*%
%TO.N,PSRAM_OE#*%
X151300000Y-93325000D03*
%TO.P,IC1,D11,PD3*%
%TO.N,unconnected-(IC1-PadD11)*%
X151950000Y-93325000D03*
%TO.P,IC1,D12,PD2*%
%TO.N,SDMMC_CMD*%
X152600000Y-93325000D03*
%TO.P,IC1,D13,PH15*%
%TO.N,unconnected-(IC1-PadD13)*%
X153250000Y-93325000D03*
%TO.P,IC1,D14,PI1*%
%TO.N,PI1*%
X153900000Y-93325000D03*
%TO.P,IC1,D15,PA10*%
%TO.N,PA10*%
X154550000Y-93325000D03*
%TO.P,IC1,E1,PC14*%
%TO.N,RCC_OSC32_IN*%
X145450000Y-93975000D03*
%TO.P,IC1,E2,PF0*%
%TO.N,PSRAM_A0*%
X146100000Y-93975000D03*
%TO.P,IC1,E3,PI10*%
%TO.N,unconnected-(IC1-PadE3)*%
X146750000Y-93975000D03*
%TO.P,IC1,E4,PI11*%
%TO.N,unconnected-(IC1-PadE4)*%
X147400000Y-93975000D03*
%TO.P,IC1,E12,PH13*%
%TO.N,unconnected-(IC1-PadE12)*%
X152600000Y-93975000D03*
%TO.P,IC1,E13,PH14*%
%TO.N,unconnected-(IC1-PadE13)*%
X153250000Y-93975000D03*
%TO.P,IC1,E14,PI0*%
%TO.N,PI0*%
X153900000Y-93975000D03*
%TO.P,IC1,E15,PA9*%
%TO.N,PA9*%
X154550000Y-93975000D03*
%TO.P,IC1,F1,PC15*%
%TO.N,RCC_OSC32_OUT*%
X145450000Y-94625000D03*
%TO.P,IC1,F2,VSS_5*%
%TO.N,VSS*%
X146100000Y-94625000D03*
%TO.P,IC1,F3,VDD_5*%
%TO.N,VDD*%
X146750000Y-94625000D03*
%TO.P,IC1,F4,PH2*%
%TO.N,unconnected-(IC1-PadF4)*%
X147400000Y-94625000D03*
%TO.P,IC1,F6,VSS_6*%
%TO.N,VSS*%
X148700000Y-94625000D03*
%TO.P,IC1,F7,VSS_7*%
X149350000Y-94625000D03*
%TO.P,IC1,F8,VSS_8*%
X150000000Y-94625000D03*
%TO.P,IC1,F9,VSS_9*%
X150650000Y-94625000D03*
%TO.P,IC1,F10,VSS_10*%
X151300000Y-94625000D03*
%TO.P,IC1,F12,VSS_11*%
X152600000Y-94625000D03*
%TO.P,IC1,F13,VCAP2*%
%TO.N,VCAP2*%
X153250000Y-94625000D03*
%TO.P,IC1,F14,PC9*%
%TO.N,SDMMC_D1*%
X153900000Y-94625000D03*
%TO.P,IC1,F15,PA8*%
%TO.N,unconnected-(IC1-PadF15)*%
X154550000Y-94625000D03*
%TO.P,IC1,G1,PH0*%
%TO.N,RCC_OSC_IN*%
X145450000Y-95275000D03*
%TO.P,IC1,G2,VSS_12*%
%TO.N,VSS*%
X146100000Y-95275000D03*
%TO.P,IC1,G3,VDD_6*%
%TO.N,VDD*%
X146750000Y-95275000D03*
%TO.P,IC1,G4,PH3*%
%TO.N,unconnected-(IC1-PadG4)*%
X147400000Y-95275000D03*
%TO.P,IC1,G6,VSS_13*%
%TO.N,VSS*%
X148700000Y-95275000D03*
%TO.P,IC1,G7,VSS_14*%
X149350000Y-95275000D03*
%TO.P,IC1,G8,VSS_15*%
X150000000Y-95275000D03*
%TO.P,IC1,G9,VSS_16*%
X150650000Y-95275000D03*
%TO.P,IC1,G10,VSS_17*%
X151300000Y-95275000D03*
%TO.P,IC1,G12,VSS_18*%
X152600000Y-95275000D03*
%TO.P,IC1,G13,VDD_7*%
%TO.N,VDD*%
X153250000Y-95275000D03*
%TO.P,IC1,G14,PC8*%
%TO.N,SDMMC_D0*%
X153900000Y-95275000D03*
%TO.P,IC1,G15,PC7*%
%TO.N,PC7*%
X154550000Y-95275000D03*
%TO.P,IC1,H1,PH1*%
%TO.N,RCC_OSC_OUT*%
X145450000Y-95925000D03*
%TO.P,IC1,H2,PF2*%
%TO.N,PSRAM_A2*%
X146100000Y-95925000D03*
%TO.P,IC1,H3,PF1*%
%TO.N,PSRAM_A1*%
X146750000Y-95925000D03*
%TO.P,IC1,H4,PH4*%
%TO.N,unconnected-(IC1-PadH4)*%
X147400000Y-95925000D03*
%TO.P,IC1,H6,VSS_19*%
%TO.N,VSS*%
X148700000Y-95925000D03*
%TO.P,IC1,H7,VSS_20*%
X149350000Y-95925000D03*
%TO.P,IC1,H8,VSS_21*%
X150000000Y-95925000D03*
%TO.P,IC1,H9,VSS_22*%
X150650000Y-95925000D03*
%TO.P,IC1,H10,VSS_23*%
X151300000Y-95925000D03*
%TO.P,IC1,H12,VSS_24*%
X152600000Y-95925000D03*
%TO.P,IC1,H13,VDDUSB*%
%TO.N,VDD*%
X153250000Y-95925000D03*
%TO.P,IC1,H14,PG8*%
%TO.N,PG8*%
X153900000Y-95925000D03*
%TO.P,IC1,H15,PC6*%
%TO.N,STATUS_LED_3*%
X154550000Y-95925000D03*
%TO.P,IC1,J1,NRST*%
%TO.N,NRST*%
X145450000Y-96575000D03*
%TO.P,IC1,J2,PF3*%
%TO.N,PSRAM_A3*%
X146100000Y-96575000D03*
%TO.P,IC1,J3,PF4*%
%TO.N,PSRAM_A4*%
X146750000Y-96575000D03*
%TO.P,IC1,J4,PH5*%
%TO.N,unconnected-(IC1-PadJ4)*%
X147400000Y-96575000D03*
%TO.P,IC1,J6,VSS_25*%
%TO.N,VSS*%
X148700000Y-96575000D03*
%TO.P,IC1,J7,VSS_26*%
X149350000Y-96575000D03*
%TO.P,IC1,J8,VSS_27*%
X150000000Y-96575000D03*
%TO.P,IC1,J9,VSS_28*%
X150650000Y-96575000D03*
%TO.P,IC1,J10,VSS_29*%
X151300000Y-96575000D03*
%TO.P,IC1,J12,VDD_8*%
%TO.N,VDD*%
X152600000Y-96575000D03*
%TO.P,IC1,J13,VDD_9*%
X153250000Y-96575000D03*
%TO.P,IC1,J14,PG7*%
%TO.N,STATUS_LED_2*%
X153900000Y-96575000D03*
%TO.P,IC1,J15,PG6*%
%TO.N,STATUS_LED_1*%
X154550000Y-96575000D03*
%TO.P,IC1,K1,PF7*%
%TO.N,STATUS_LED*%
X145450000Y-97225000D03*
%TO.P,IC1,K2,PF6*%
%TO.N,unconnected-(IC1-PadK2)*%
X146100000Y-97225000D03*
%TO.P,IC1,K3,PF5*%
%TO.N,PSRAM_A5*%
X146750000Y-97225000D03*
%TO.P,IC1,K4,VDD_10*%
%TO.N,VDD*%
X147400000Y-97225000D03*
%TO.P,IC1,K6,VSS_30*%
%TO.N,VSS*%
X148700000Y-97225000D03*
%TO.P,IC1,K7,VSS_31*%
X149350000Y-97225000D03*
%TO.P,IC1,K8,VSS_32*%
X150000000Y-97225000D03*
%TO.P,IC1,K9,VSS_33*%
X150650000Y-97225000D03*
%TO.P,IC1,K10,VSS_34*%
X151300000Y-97225000D03*
%TO.P,IC1,K12,PH12*%
%TO.N,unconnected-(IC1-PadK12)*%
X152600000Y-97225000D03*
%TO.P,IC1,K13,PG5*%
%TO.N,PSRAM_A15*%
X153250000Y-97225000D03*
%TO.P,IC1,K14,PG4*%
%TO.N,PSRAM_A14*%
X153900000Y-97225000D03*
%TO.P,IC1,K15,PG3*%
%TO.N,PSRAM_A13*%
X154550000Y-97225000D03*
%TO.P,IC1,L1,PF10*%
%TO.N,unconnected-(IC1-PadL1)*%
X145450000Y-97875000D03*
%TO.P,IC1,L2,PF9*%
%TO.N,unconnected-(IC1-PadL2)*%
X146100000Y-97875000D03*
%TO.P,IC1,L3,PF8*%
%TO.N,unconnected-(IC1-PadL3)*%
X146750000Y-97875000D03*
%TO.P,IC1,L4,BYPASS_REG*%
%TO.N,VSS*%
X147400000Y-97875000D03*
%TO.P,IC1,L12,PH11*%
%TO.N,unconnected-(IC1-PadL12)*%
X152600000Y-97875000D03*
%TO.P,IC1,L13,PH10*%
%TO.N,unconnected-(IC1-PadL13)*%
X153250000Y-97875000D03*
%TO.P,IC1,L14,PD15*%
%TO.N,PSRAM_DQ1*%
X153900000Y-97875000D03*
%TO.P,IC1,L15,PG2*%
%TO.N,PSRAM_A12*%
X154550000Y-97875000D03*
%TO.P,IC1,M1,VSSA*%
%TO.N,VSS*%
X145450000Y-98525000D03*
%TO.P,IC1,M2,PC0*%
%TO.N,unconnected-(IC1-PadM2)*%
X146100000Y-98525000D03*
%TO.P,IC1,M3,PC1*%
%TO.N,unconnected-(IC1-PadM3)*%
X146750000Y-98525000D03*
%TO.P,IC1,M4,PC2*%
%TO.N,unconnected-(IC1-PadM4)*%
X147400000Y-98525000D03*
%TO.P,IC1,M5,PC3*%
%TO.N,unconnected-(IC1-PadM5)*%
X148050000Y-98525000D03*
%TO.P,IC1,M6,PB2*%
%TO.N,unconnected-(IC1-PadM6)*%
X148700000Y-98525000D03*
%TO.P,IC1,M7,PG1*%
%TO.N,PSRAM_A11*%
X149350000Y-98525000D03*
%TO.P,IC1,M8,VSS_35*%
%TO.N,VSS*%
X150000000Y-98525000D03*
%TO.P,IC1,M9,VSS_36*%
X150650000Y-98525000D03*
%TO.P,IC1,M10,VCAP_1*%
%TO.N,VCAP1*%
X151300000Y-98525000D03*
%TO.P,IC1,M11,PH6*%
%TO.N,unconnected-(IC1-PadM11)*%
X151950000Y-98525000D03*
%TO.P,IC1,M12,PH8*%
%TO.N,unconnected-(IC1-PadM12)*%
X152600000Y-98525000D03*
%TO.P,IC1,M13,PH9*%
%TO.N,unconnected-(IC1-PadM13)*%
X153250000Y-98525000D03*
%TO.P,IC1,M14,PD14*%
%TO.N,PSRAM_DQ0*%
X153900000Y-98525000D03*
%TO.P,IC1,M15,PD13*%
%TO.N,PSRAM_A18*%
X154550000Y-98525000D03*
%TO.P,IC1,N1,VREF-*%
%TO.N,VSS*%
X145450000Y-99175000D03*
%TO.P,IC1,N2,PA1*%
%TO.N,unconnected-(IC1-PadN2)*%
X146100000Y-99175000D03*
%TO.P,IC1,N3,PA0*%
%TO.N,PA0*%
X146750000Y-99175000D03*
%TO.P,IC1,N4,PA4*%
%TO.N,unconnected-(IC1-PadN4)*%
X147400000Y-99175000D03*
%TO.P,IC1,N5,PC4*%
%TO.N,unconnected-(IC1-PadN5)*%
X148050000Y-99175000D03*
%TO.P,IC1,N6,PF13*%
%TO.N,PSRAM_A7*%
X148700000Y-99175000D03*
%TO.P,IC1,N7,PG0*%
%TO.N,PSRAM_A10*%
X149350000Y-99175000D03*
%TO.P,IC1,N8,VDD_11*%
%TO.N,VDD*%
X150000000Y-99175000D03*
%TO.P,IC1,N9,VDD_12*%
X150650000Y-99175000D03*
%TO.P,IC1,N10,VDD_13*%
X151300000Y-99175000D03*
%TO.P,IC1,N11,PE13*%
%TO.N,PSRAM_DQ10*%
X151950000Y-99175000D03*
%TO.P,IC1,N12,PH7*%
%TO.N,unconnected-(IC1-PadN12)*%
X152600000Y-99175000D03*
%TO.P,IC1,N13,PD12*%
%TO.N,PSRAM_A17*%
X153250000Y-99175000D03*
%TO.P,IC1,N14,PD11*%
%TO.N,PSRAM_A16*%
X153900000Y-99175000D03*
%TO.P,IC1,N15,PD10*%
%TO.N,PSRAM_DQ15*%
X154550000Y-99175000D03*
%TO.P,IC1,P1,VREF+*%
%TO.N,VDD*%
X145450000Y-99825000D03*
%TO.P,IC1,P2,PA2*%
%TO.N,PA2*%
X146100000Y-99825000D03*
%TO.P,IC1,P3,PA6*%
%TO.N,PA6*%
X146750000Y-99825000D03*
%TO.P,IC1,P4,PA5*%
%TO.N,PA5*%
X147400000Y-99825000D03*
%TO.P,IC1,P5,PC5*%
%TO.N,PC5*%
X148050000Y-99825000D03*
%TO.P,IC1,P6,PF12*%
%TO.N,PSRAM_A6*%
X148700000Y-99825000D03*
%TO.P,IC1,P7,PF15*%
%TO.N,PSRAM_A9*%
X149350000Y-99825000D03*
%TO.P,IC1,P8,PE8*%
%TO.N,PSRAM_DQ5*%
X150000000Y-99825000D03*
%TO.P,IC1,P9,PE9*%
%TO.N,PSRAM_DQ6*%
X150650000Y-99825000D03*
%TO.P,IC1,P10,PE11*%
%TO.N,PSRAM_DQ8*%
X151300000Y-99825000D03*
%TO.P,IC1,P11,PE14*%
%TO.N,PSRAM_DQ11*%
X151950000Y-99825000D03*
%TO.P,IC1,P12,PB12*%
%TO.N,PB12*%
X152600000Y-99825000D03*
%TO.P,IC1,P13,PB13*%
%TO.N,PB13*%
X153250000Y-99825000D03*
%TO.P,IC1,P14,PD9*%
%TO.N,PSRAM_DQ14*%
X153900000Y-99825000D03*
%TO.P,IC1,P15,PD8*%
%TO.N,PSRAM_DQ13*%
X154550000Y-99825000D03*
%TO.P,IC1,R1,VDDA*%
%TO.N,VDD*%
X145450000Y-100475000D03*
%TO.P,IC1,R2,PA3*%
%TO.N,PA3*%
X146100000Y-100475000D03*
%TO.P,IC1,R3,PA7*%
%TO.N,PA7*%
X146750000Y-100475000D03*
%TO.P,IC1,R4,PB1*%
%TO.N,PB1*%
X147400000Y-100475000D03*
%TO.P,IC1,R5,PB0*%
%TO.N,PB0*%
X148050000Y-100475000D03*
%TO.P,IC1,R6,PF11*%
%TO.N,PF11*%
X148700000Y-100475000D03*
%TO.P,IC1,R7,PF14*%
%TO.N,PSRAM_A8*%
X149350000Y-100475000D03*
%TO.P,IC1,R8,PE7*%
%TO.N,PSRAM_DQ4*%
X150000000Y-100475000D03*
%TO.P,IC1,R9,PE10*%
%TO.N,PSRAM_DQ7*%
X150650000Y-100475000D03*
%TO.P,IC1,R10,PE12*%
%TO.N,PSRAM_DQ9*%
X151300000Y-100475000D03*
%TO.P,IC1,R11,PE15*%
%TO.N,PSRAM_DQ12*%
X151950000Y-100475000D03*
%TO.P,IC1,R12,PB10*%
%TO.N,PB10*%
X152600000Y-100475000D03*
%TO.P,IC1,R13,PB11*%
%TO.N,PB11*%
X153250000Y-100475000D03*
%TO.P,IC1,R14,PB14*%
%TO.N,USB_DEV_DN*%
X153900000Y-100475000D03*
%TO.P,IC1,R15,PB15*%
%TO.N,USB_DEV_DP*%
X154550000Y-100475000D03*
%TD*%
D25*
%TO.P,IC6,1,VIN*%
%TO.N,VCC*%
X174250000Y-113350000D03*
%TO.P,IC6,2,GND*%
%TO.N,VSS*%
X174250000Y-112400000D03*
%TO.P,IC6,3,EN*%
%TO.N,VCC*%
X174250000Y-111450000D03*
%TO.P,IC6,4,FB*%
%TO.N,VDD*%
X171750000Y-111450000D03*
%TO.P,IC6,5,SW*%
%TO.N,Net-(IC6-Pad5)*%
X171750000Y-113350000D03*
%TD*%
D13*
%TO.P,C30,1*%
%TO.N,Net-(C30-Pad1)*%
X118725000Y-92280000D03*
%TO.P,C30,2*%
%TO.N,VSS*%
X118725000Y-91320000D03*
%TD*%
D26*
%TO.P,J2,A1,A1*%
%TO.N,VSS*%
X178322000Y-109750000D03*
%TO.P,J2,A4,A4*%
%TO.N,VBUS*%
X178322000Y-108950000D03*
%TO.P,J2,A5,A5*%
%TO.N,CC1*%
X178322000Y-107650000D03*
%TO.P,J2,A6,A6*%
%TO.N,USB_DEV_RDP*%
X178322000Y-106650000D03*
%TO.P,J2,A7,A7*%
%TO.N,USB_DEV_RDN*%
X178322000Y-106150000D03*
%TO.P,J2,A8,A8*%
%TO.N,unconnected-(J2-PadA8)*%
X178322000Y-105150000D03*
%TO.P,J2,A9,A9*%
%TO.N,VBUS*%
X178322000Y-103850000D03*
%TO.P,J2,A12,A12*%
%TO.N,VSS*%
X178322000Y-103050000D03*
%TO.P,J2,B1,B1*%
X178322000Y-103350000D03*
%TO.P,J2,B4,B4*%
%TO.N,VBUS*%
X178322000Y-104150000D03*
%TO.P,J2,B5,B5*%
%TO.N,CC2*%
X178322000Y-104650000D03*
%TO.P,J2,B6,B6*%
%TO.N,USB_DEV_RDP*%
X178322000Y-105650000D03*
%TO.P,J2,B7,B7*%
%TO.N,USB_DEV_RDN*%
X178322000Y-107150000D03*
%TO.P,J2,B8,B8*%
%TO.N,unconnected-(J2-PadB8)*%
X178322000Y-108150000D03*
%TO.P,J2,B9,B9*%
%TO.N,VBUS*%
X178322000Y-108650000D03*
%TO.P,J2,B12,B12*%
%TO.N,VSS*%
X178322000Y-109450000D03*
D27*
%TO.P,J2,MP1,MP1*%
%TO.N,unconnected-(J2-PadMP1)*%
X182827000Y-111510000D03*
%TO.P,J2,MP2,MP2*%
%TO.N,unconnected-(J2-PadMP2)*%
X182827000Y-101290000D03*
%TO.P,J2,MP3,MP3*%
%TO.N,unconnected-(J2-PadMP3)*%
X178897000Y-111510000D03*
%TO.P,J2,MP4,MP4*%
%TO.N,unconnected-(J2-PadMP4)*%
X178897000Y-101290000D03*
%TD*%
D28*
%TO.P,LED2,1*%
%TO.N,VSS*%
X183050000Y-95600000D03*
%TO.P,LED2,2*%
%TO.N,Net-(LED2-Pad2)*%
X181550000Y-95600000D03*
%TD*%
D29*
%TO.P,D1,1,I/O_1*%
%TO.N,SDMMC_D1*%
X133490000Y-78200000D03*
%TO.P,D1,2,I/O_2*%
%TO.N,SDMMC_D0*%
X133490000Y-78700000D03*
D30*
%TO.P,D1,3,GND_1*%
%TO.N,VSS*%
X133535000Y-79200000D03*
D29*
%TO.P,D1,4,I/O_3*%
%TO.N,SDMMC_CK*%
X133490000Y-79700000D03*
%TO.P,D1,5,I/O_4*%
%TO.N,VDD*%
X133490000Y-80200000D03*
D30*
%TO.P,D1,6,GND_2*%
%TO.N,VSS*%
X133535000Y-80700000D03*
D29*
%TO.P,D1,7,I/O_5*%
%TO.N,SDMMC_CMD*%
X133490000Y-81200000D03*
%TO.P,D1,8,I/O_6*%
%TO.N,SDMMC_D3*%
X133490000Y-81700000D03*
D30*
%TO.P,D1,9,GND_3*%
%TO.N,VSS*%
X133535000Y-82200000D03*
D29*
%TO.P,D1,10,I/O_7*%
%TO.N,SDMMC_D2*%
X133490000Y-82700000D03*
%TO.P,D1,11,I/O_8*%
%TO.N,SDMMC_SW*%
X133490000Y-83200000D03*
D30*
%TO.P,D1,12,GND_4*%
%TO.N,VSS*%
X134745000Y-82200000D03*
%TO.P,D1,13,GND_5*%
X134745000Y-80700000D03*
%TO.P,D1,14,GND_6*%
X134745000Y-79200000D03*
D31*
%TO.P,D1,15,GND_7*%
X134140000Y-79200000D03*
%TO.P,D1,16,GND_8*%
X134140000Y-80700000D03*
%TO.P,D1,17,GND_9*%
X134140000Y-82200000D03*
%TD*%
D11*
%TO.P,R13,1*%
%TO.N,SDMMC_SW*%
X136050000Y-84200000D03*
%TO.P,R13,2*%
%TO.N,VDD*%
X137070000Y-84200000D03*
%TD*%
D32*
%TO.P,FB1,1,1*%
%TO.N,VCC*%
X173200000Y-101300000D03*
%TO.P,FB1,2,2*%
%TO.N,VBUS*%
X173200000Y-102600000D03*
%TD*%
D20*
%TO.P,J5,1,1*%
%TO.N,PB5*%
X127500000Y-67500000D03*
%TO.P,J5,2,2*%
%TO.N,PG15*%
X130040000Y-67500000D03*
%TO.P,J5,3,3*%
%TO.N,PG14*%
X132580000Y-67500000D03*
%TO.P,J5,4,4*%
%TO.N,PG12*%
X135120000Y-67500000D03*
%TO.P,J5,5,5*%
%TO.N,PG13*%
X137660000Y-67500000D03*
%TO.P,J5,6,6*%
%TO.N,PG11*%
X140200000Y-67500000D03*
%TO.P,J5,7,7*%
%TO.N,PB4*%
X142740000Y-67500000D03*
%TO.P,J5,8,8*%
%TO.N,PG10*%
X145280000Y-67500000D03*
%TO.P,J5,9,9*%
%TO.N,PD6*%
X147820000Y-67500000D03*
%TO.P,J5,10,10*%
%TO.N,PI3*%
X150360000Y-67500000D03*
%TD*%
D11*
%TO.P,R2,1*%
%TO.N,USB_HOST_DN*%
X167190000Y-85000000D03*
%TO.P,R2,2*%
%TO.N,USB_HOST_RDN*%
X168210000Y-85000000D03*
%TD*%
D33*
%TO.P,L1,1*%
%TO.N,VDD*%
X169700000Y-111225000D03*
%TO.P,L1,2*%
%TO.N,Net-(IC6-Pad5)*%
X169700000Y-113575000D03*
%TD*%
D11*
%TO.P,R7,1*%
%TO.N,NRST*%
X158430000Y-90880000D03*
%TO.P,R7,2*%
%TO.N,VDD*%
X159450000Y-90880000D03*
%TD*%
D34*
%TO.P,IC3,1,GND_1*%
%TO.N,VSS*%
X119875000Y-107800000D03*
%TO.P,IC3,2,GND_2*%
X120725000Y-107800000D03*
%TO.P,IC3,3,3V3*%
%TO.N,VDD*%
X121575000Y-107800000D03*
%TO.P,IC3,4,IO0*%
%TO.N,WIFI_BOOT*%
X122425000Y-107800000D03*
%TO.P,IC3,5,IO1*%
%TO.N,unconnected-(IC3-Pad5)*%
X123275000Y-107800000D03*
%TO.P,IC3,6,IO2*%
%TO.N,unconnected-(IC3-Pad6)*%
X124125000Y-107800000D03*
%TO.P,IC3,7,IO3*%
%TO.N,unconnected-(IC3-Pad7)*%
X124975000Y-107800000D03*
%TO.P,IC3,8,IO4*%
%TO.N,unconnected-(IC3-Pad8)*%
X125825000Y-107800000D03*
%TO.P,IC3,9,IO5*%
%TO.N,unconnected-(IC3-Pad9)*%
X126675000Y-107800000D03*
%TO.P,IC3,10,IO6*%
%TO.N,unconnected-(IC3-Pad10)*%
X127525000Y-107800000D03*
%TO.P,IC3,11,IO7*%
%TO.N,unconnected-(IC3-Pad11)*%
X128375000Y-107800000D03*
%TO.P,IC3,12,IO8*%
%TO.N,unconnected-(IC3-Pad12)*%
X129225000Y-107800000D03*
%TO.P,IC3,13,IO9*%
%TO.N,unconnected-(IC3-Pad13)*%
X130075000Y-107800000D03*
%TO.P,IC3,14,IO10*%
%TO.N,unconnected-(IC3-Pad14)*%
X130925000Y-107800000D03*
%TO.P,IC3,15,IO11*%
%TO.N,unconnected-(IC3-Pad15)*%
X131775000Y-107800000D03*
D35*
%TO.P,IC3,16,IO12*%
%TO.N,unconnected-(IC3-Pad16)*%
X132825000Y-106750000D03*
%TO.P,IC3,17,IO13*%
%TO.N,unconnected-(IC3-Pad17)*%
X132825000Y-105900000D03*
%TO.P,IC3,18,IO14*%
%TO.N,unconnected-(IC3-Pad18)*%
X132825000Y-105050000D03*
%TO.P,IC3,19,IO15*%
%TO.N,unconnected-(IC3-Pad19)*%
X132825000Y-104200000D03*
%TO.P,IC3,20,IO16*%
%TO.N,unconnected-(IC3-Pad20)*%
X132825000Y-103350000D03*
%TO.P,IC3,21,IO17*%
%TO.N,unconnected-(IC3-Pad21)*%
X132825000Y-102500000D03*
%TO.P,IC3,22,IO18*%
%TO.N,unconnected-(IC3-Pad22)*%
X132825000Y-101650000D03*
%TO.P,IC3,23,IO19*%
%TO.N,unconnected-(IC3-Pad23)*%
X132825000Y-100800000D03*
%TO.P,IC3,24,IO20*%
%TO.N,unconnected-(IC3-Pad24)*%
X132825000Y-99950000D03*
%TO.P,IC3,25,IO21*%
%TO.N,unconnected-(IC3-Pad25)*%
X132825000Y-99100000D03*
%TO.P,IC3,26,IO26*%
%TO.N,unconnected-(IC3-Pad26)*%
X132825000Y-98250000D03*
%TO.P,IC3,27,NC*%
%TO.N,unconnected-(IC3-Pad27)*%
X132825000Y-97400000D03*
%TO.P,IC3,28,IO33*%
%TO.N,unconnected-(IC3-Pad28)*%
X132825000Y-96550000D03*
%TO.P,IC3,29,IO34*%
%TO.N,unconnected-(IC3-Pad29)*%
X132825000Y-95700000D03*
%TO.P,IC3,30,GND_3*%
%TO.N,VSS*%
X132825000Y-94850000D03*
D34*
%TO.P,IC3,31,IO35*%
%TO.N,unconnected-(IC3-Pad31)*%
X131775000Y-93800000D03*
%TO.P,IC3,32,IO36*%
%TO.N,unconnected-(IC3-Pad32)*%
X130925000Y-93800000D03*
%TO.P,IC3,33,IO37*%
%TO.N,unconnected-(IC3-Pad33)*%
X130075000Y-93800000D03*
%TO.P,IC3,34,IO38*%
%TO.N,unconnected-(IC3-Pad34)*%
X129225000Y-93800000D03*
%TO.P,IC3,35,IO39*%
%TO.N,unconnected-(IC3-Pad35)*%
X128375000Y-93800000D03*
%TO.P,IC3,36,IO40*%
%TO.N,unconnected-(IC3-Pad36)*%
X127525000Y-93800000D03*
%TO.P,IC3,37,IO41*%
%TO.N,unconnected-(IC3-Pad37)*%
X126675000Y-93800000D03*
%TO.P,IC3,38,IO42*%
%TO.N,unconnected-(IC3-Pad38)*%
X125825000Y-93800000D03*
%TO.P,IC3,39,TXD0*%
%TO.N,WIFI_UART_RX*%
X124975000Y-93800000D03*
%TO.P,IC3,40,RXD0*%
%TO.N,WIFI_UART_TX*%
X124125000Y-93800000D03*
%TO.P,IC3,41,IO45*%
%TO.N,unconnected-(IC3-Pad41)*%
X123275000Y-93800000D03*
%TO.P,IC3,42,GND_4*%
%TO.N,VSS*%
X122425000Y-93800000D03*
%TO.P,IC3,43,GND_5*%
X121575000Y-93800000D03*
%TO.P,IC3,44,IO46*%
%TO.N,unconnected-(IC3-Pad44)*%
X120725000Y-93800000D03*
%TO.P,IC3,45,EN*%
%TO.N,Net-(C30-Pad1)*%
X119875000Y-93800000D03*
D35*
%TO.P,IC3,46,GND_6*%
%TO.N,VSS*%
X118825000Y-94850000D03*
%TO.P,IC3,47,GND_7*%
X118825000Y-95700000D03*
%TO.P,IC3,48,GND_8*%
X118825000Y-96550000D03*
%TO.P,IC3,49,GND_9*%
X118825000Y-97400000D03*
%TO.P,IC3,50,GND_10*%
X118825000Y-98250000D03*
%TO.P,IC3,51,GND_11*%
X118825000Y-99100000D03*
%TO.P,IC3,52,GND_12*%
X118825000Y-99950000D03*
%TO.P,IC3,53,GND_13*%
X118825000Y-100800000D03*
%TO.P,IC3,54,GND_14*%
X118825000Y-101650000D03*
%TO.P,IC3,55,GND_15*%
X118825000Y-102500000D03*
%TO.P,IC3,56,GND_16*%
X118825000Y-103350000D03*
%TO.P,IC3,57,GND_17*%
X118825000Y-104200000D03*
%TO.P,IC3,58,GND_18*%
X118825000Y-105050000D03*
%TO.P,IC3,59,GND_19*%
X118825000Y-105900000D03*
%TO.P,IC3,60,GND_20*%
X118825000Y-106750000D03*
D36*
%TO.P,IC3,61,GND_21*%
X125825000Y-100800000D03*
D37*
%TO.P,IC3,62,GND_22*%
X118825000Y-107800000D03*
%TO.P,IC3,63,GND_23*%
X132825000Y-107800000D03*
%TO.P,IC3,64,GND_24*%
X132825000Y-93800000D03*
%TO.P,IC3,65,GND_25*%
X118825000Y-93800000D03*
D36*
%TO.P,IC3,66,GND_26*%
X124175000Y-102450000D03*
%TO.P,IC3,67,GND_27*%
X125825000Y-102450000D03*
%TO.P,IC3,68,GND_28*%
X127475000Y-102450000D03*
%TO.P,IC3,69,GND_29*%
X127475000Y-100800000D03*
%TO.P,IC3,70,GND_30*%
X127475000Y-99150000D03*
%TO.P,IC3,71,GND_31*%
X125825000Y-99150000D03*
%TO.P,IC3,72,GND_32*%
X124175000Y-99150000D03*
%TO.P,IC3,73,GND_33*%
X124175000Y-100800000D03*
%TD*%
D19*
%TO.P,C39,1*%
%TO.N,VSS*%
X175900000Y-111625000D03*
%TO.P,C39,2*%
%TO.N,VCC*%
X175900000Y-113175000D03*
%TD*%
D38*
%TO.P,R11,1*%
%TO.N,WIFI_UART_RX*%
X125125000Y-92710000D03*
%TO.P,R11,2*%
%TO.N,VDD*%
X125125000Y-91690000D03*
%TD*%
D15*
%TO.P,R23,1*%
%TO.N,Net-(LED2-Pad2)*%
X180210000Y-95600000D03*
%TO.P,R23,2*%
%TO.N,STATUS_LED_2*%
X179190000Y-95600000D03*
%TD*%
D11*
%TO.P,R12,1*%
%TO.N,WIFI_BOOT*%
X124610000Y-109600000D03*
%TO.P,R12,2*%
%TO.N,VDD*%
X125630000Y-109600000D03*
%TD*%
D17*
%TO.P,H1,1,1*%
%TO.N,unconnected-(H1-Pad1)*%
X181500000Y-114600000D03*
X183197056Y-118697056D03*
X179802944Y-118697056D03*
X181500000Y-119400000D03*
X179802944Y-115302944D03*
D18*
X181500000Y-117000000D03*
D17*
X183197056Y-115302944D03*
X183900000Y-117000000D03*
X179100000Y-117000000D03*
%TD*%
D39*
%TO.P,C31,1*%
%TO.N,Net-(C31-Pad1)*%
X140180000Y-98100000D03*
%TO.P,C31,2*%
%TO.N,VSS*%
X139220000Y-98100000D03*
%TD*%
D17*
%TO.P,H3,1,1*%
%TO.N,unconnected-(H3-Pad1)*%
X123697056Y-118697056D03*
X124400000Y-117000000D03*
X120302944Y-118697056D03*
X119600000Y-117000000D03*
X122000000Y-119400000D03*
D18*
X122000000Y-117000000D03*
D17*
X123697056Y-115302944D03*
X122000000Y-114600000D03*
X120302944Y-115302944D03*
%TD*%
D40*
%TO.P,C21,1*%
%TO.N,VDD*%
X149895000Y-105425000D03*
%TO.P,C21,2*%
%TO.N,VSS*%
X150855000Y-105425000D03*
%TD*%
D39*
%TO.P,C33,1*%
%TO.N,RCC_OSC32_IN*%
X141580000Y-88100000D03*
%TO.P,C33,2*%
%TO.N,VSS*%
X140620000Y-88100000D03*
%TD*%
D15*
%TO.P,R21,1*%
%TO.N,RCC_OSC32_OUT*%
X139810000Y-91500000D03*
%TO.P,R21,2*%
%TO.N,Net-(C34-Pad1)*%
X138790000Y-91500000D03*
%TD*%
D11*
%TO.P,R3,1*%
%TO.N,USB_DEV_DP*%
X174490000Y-105780000D03*
%TO.P,R3,2*%
%TO.N,USB_DEV_RDP*%
X175510000Y-105780000D03*
%TD*%
D22*
%TO.P,C27,1*%
%TO.N,VDD*%
X172975000Y-115700000D03*
%TO.P,C27,2*%
%TO.N,VSS*%
X171425000Y-115700000D03*
%TD*%
D40*
%TO.P,C34,1*%
%TO.N,Net-(C34-Pad1)*%
X138420000Y-88100000D03*
%TO.P,C34,2*%
%TO.N,VSS*%
X139380000Y-88100000D03*
%TD*%
D11*
%TO.P,R17,1*%
%TO.N,SDMMC_D3*%
X136050000Y-82200000D03*
%TO.P,R17,2*%
%TO.N,VDD*%
X137070000Y-82200000D03*
%TD*%
D41*
%TO.P,R5,1*%
%TO.N,CC1*%
X176000000Y-107890000D03*
%TO.P,R5,2*%
%TO.N,VSS*%
X176000000Y-108910000D03*
%TD*%
D28*
%TO.P,LED4,1*%
%TO.N,VSS*%
X173500000Y-109500000D03*
%TO.P,LED4,2*%
%TO.N,Net-(LED4-Pad2)*%
X172000000Y-109500000D03*
%TD*%
D41*
%TO.P,R9,1*%
%TO.N,WIFI_ENABLE*%
X121120000Y-91290000D03*
%TO.P,R9,2*%
%TO.N,VSS*%
X121120000Y-92310000D03*
%TD*%
D23*
%TO.P,D2,1*%
%TO.N,VCC*%
X168150000Y-87500000D03*
%TO.P,D2,2*%
%TO.N,VSS*%
X168150000Y-86500000D03*
%TD*%
D15*
%TO.P,R24,1*%
%TO.N,Net-(LED3-Pad2)*%
X180210000Y-93600000D03*
%TO.P,R24,2*%
%TO.N,STATUS_LED_3*%
X179190000Y-93600000D03*
%TD*%
D38*
%TO.P,R10,1*%
%TO.N,WIFI_UART_TX*%
X123975000Y-92710000D03*
%TO.P,R10,2*%
%TO.N,VDD*%
X123975000Y-91690000D03*
%TD*%
D11*
%TO.P,R15,1*%
%TO.N,SDMMC_D1*%
X136050000Y-77200000D03*
%TO.P,R15,2*%
%TO.N,VDD*%
X137070000Y-77200000D03*
%TD*%
D22*
%TO.P,C26,1*%
%TO.N,VDD*%
X172975000Y-117150000D03*
%TO.P,C26,2*%
%TO.N,VSS*%
X171425000Y-117150000D03*
%TD*%
D28*
%TO.P,LED1,1*%
%TO.N,VSS*%
X183050000Y-97600000D03*
%TO.P,LED1,2*%
%TO.N,Net-(LED1-Pad2)*%
X181550000Y-97600000D03*
%TD*%
D11*
%TO.P,R14,1*%
%TO.N,SDMMC_D0*%
X136050000Y-78200000D03*
%TO.P,R14,2*%
%TO.N,VDD*%
X137070000Y-78200000D03*
%TD*%
D38*
%TO.P,R8,1*%
%TO.N,Net-(C30-Pad1)*%
X119880000Y-92310000D03*
%TO.P,R8,2*%
%TO.N,WIFI_ENABLE*%
X119880000Y-91290000D03*
%TD*%
D42*
%TO.P,J8,DSW1,LEVER_PIN_*%
%TO.N,unconnected-(J8-PadDSW1)*%
X132525000Y-87800000D03*
D43*
%TO.P,J8,DSW2,SWITCH_PIN*%
%TO.N,SDMMC_SW*%
X132600000Y-83535000D03*
D44*
%TO.P,J8,MP1,MP1*%
%TO.N,VSS*%
X120075000Y-89890000D03*
D45*
%TO.P,J8,MP2,MP2*%
X120560000Y-77230000D03*
D46*
%TO.P,J8,MP3,MP3*%
X131325000Y-77150000D03*
%TO.P,J8,MP4,MP4*%
X131325000Y-90110000D03*
D47*
%TO.P,J8,P1,DAT2_*%
%TO.N,SDMMC_D2*%
X120060000Y-86010000D03*
%TO.P,J8,P2,CD/DAT3*%
%TO.N,SDMMC_D3*%
X120060000Y-84910000D03*
%TO.P,J8,P3,CMD*%
%TO.N,SDMMC_CMD*%
X120060000Y-83810000D03*
%TO.P,J8,P4,VDD*%
%TO.N,VDD*%
X120060000Y-82710000D03*
%TO.P,J8,P5,CLK*%
%TO.N,SDMMC_CK*%
X120060000Y-81610000D03*
%TO.P,J8,P6,VSS*%
%TO.N,VSS*%
X120060000Y-80510000D03*
%TO.P,J8,P7,DAT0*%
%TO.N,SDMMC_D0*%
X120060000Y-79410000D03*
%TO.P,J8,P8,DAT1*%
%TO.N,SDMMC_D1*%
X120060000Y-78310000D03*
%TD*%
D18*
%TO.P,H4,1,1*%
%TO.N,unconnected-(H4-Pad1)*%
X122000000Y-70000000D03*
D17*
X124400000Y-70000000D03*
X120302944Y-68302944D03*
X122000000Y-72400000D03*
X123697056Y-71697056D03*
X120302944Y-71697056D03*
X119600000Y-70000000D03*
X123697056Y-68302944D03*
X122000000Y-67600000D03*
%TD*%
D48*
%TO.P,IC5,1,D+*%
%TO.N,USB_HOST_DP*%
X166192000Y-83644400D03*
%TO.P,IC5,2,D-*%
%TO.N,USB_HOST_DN*%
X166192000Y-84355600D03*
D49*
%TO.P,IC5,3,GND*%
%TO.N,VSS*%
X167208000Y-84000000D03*
%TD*%
D28*
%TO.P,LED3,1*%
%TO.N,VSS*%
X183050000Y-93600000D03*
%TO.P,LED3,2*%
%TO.N,Net-(LED3-Pad2)*%
X181550000Y-93600000D03*
%TD*%
D15*
%TO.P,R25,1*%
%TO.N,Net-(LED4-Pad2)*%
X170660000Y-109500000D03*
%TO.P,R25,2*%
%TO.N,VDD*%
X169640000Y-109500000D03*
%TD*%
D40*
%TO.P,C38,1*%
%TO.N,VDD*%
X136080000Y-80200000D03*
%TO.P,C38,2*%
%TO.N,VSS*%
X137040000Y-80200000D03*
%TD*%
D10*
%TO.P,C22,1*%
%TO.N,VCC*%
X166900000Y-87775000D03*
%TO.P,C22,2*%
%TO.N,VSS*%
X166900000Y-86225000D03*
%TD*%
D11*
%TO.P,R20,1*%
%TO.N,Net-(C31-Pad1)*%
X142190000Y-96200000D03*
%TO.P,R20,2*%
%TO.N,RCC_OSC_OUT*%
X143210000Y-96200000D03*
%TD*%
D48*
%TO.P,IC4,1,D+*%
%TO.N,USB_DEV_DP*%
X172492000Y-106044400D03*
%TO.P,IC4,2,D-*%
%TO.N,USB_DEV_DN*%
X172492000Y-106755600D03*
D49*
%TO.P,IC4,3,GND*%
%TO.N,VSS*%
X173508000Y-106400000D03*
%TD*%
D20*
%TO.P,J3,1,1*%
%TO.N,VDD*%
X176000000Y-119500000D03*
%TO.P,J3,2,2*%
X173460000Y-119500000D03*
%TO.P,J3,3,3*%
%TO.N,VSS*%
X170920000Y-119500000D03*
%TO.P,J3,4,4*%
X168380000Y-119500000D03*
%TO.P,J3,5,5*%
%TO.N,PB13*%
X165840000Y-119500000D03*
%TO.P,J3,6,6*%
%TO.N,PB11*%
X163300000Y-119500000D03*
%TO.P,J3,7,7*%
%TO.N,PB12*%
X160760000Y-119500000D03*
%TO.P,J3,8,8*%
%TO.N,PB10*%
X158220000Y-119500000D03*
%TD*%
D11*
%TO.P,R16,1*%
%TO.N,SDMMC_D2*%
X136050000Y-83200000D03*
%TO.P,R16,2*%
%TO.N,VDD*%
X137070000Y-83200000D03*
%TD*%
D13*
%TO.P,C32,1*%
%TO.N,VSS*%
X137320000Y-95980000D03*
%TO.P,C32,2*%
%TO.N,RCC_OSC_IN*%
X137320000Y-95020000D03*
%TD*%
D39*
%TO.P,C29,1*%
%TO.N,VSS*%
X159430000Y-84900000D03*
%TO.P,C29,2*%
%TO.N,NRST*%
X158470000Y-84900000D03*
%TD*%
D50*
%TO.P,C28,1*%
%TO.N,VSS*%
X161950000Y-87420000D03*
%TO.P,C28,2*%
%TO.N,VDD*%
X161950000Y-88380000D03*
%TD*%
D51*
%TO.P,J1,1,1*%
%TO.N,VCC*%
X171620000Y-87500000D03*
%TO.P,J1,2,2*%
%TO.N,USB_HOST_RDN*%
X171620000Y-85000000D03*
%TO.P,J1,3,3*%
%TO.N,USB_HOST_RDP*%
X171620000Y-83000000D03*
%TO.P,J1,4,4*%
%TO.N,VSS*%
X171620000Y-80500000D03*
D52*
%TO.P,J1,MH1,MH1*%
X175320000Y-90400000D03*
%TO.P,J1,MH2,MH2*%
X175320000Y-77600000D03*
%TD*%
D10*
%TO.P,C36,1*%
%TO.N,VDD*%
X142525000Y-99825000D03*
%TO.P,C36,2*%
%TO.N,VSS*%
X142525000Y-98275000D03*
%TD*%
D53*
%TO.P,IC2,A1,LB#*%
%TO.N,PSRAM_NBL0*%
X147737500Y-111250000D03*
%TO.P,IC2,A2,OE#*%
%TO.N,PSRAM_OE#*%
X147737500Y-110500000D03*
%TO.P,IC2,A3,A0*%
%TO.N,PSRAM_A0*%
X147737500Y-109750000D03*
%TO.P,IC2,A4,A1*%
%TO.N,PSRAM_A1*%
X147737500Y-109000000D03*
%TO.P,IC2,A5,A2*%
%TO.N,PSRAM_A2*%
X147737500Y-108250000D03*
%TO.P,IC2,A6,ZZ#*%
%TO.N,VDD*%
X147737500Y-107500000D03*
%TO.P,IC2,B1,DQ8*%
%TO.N,PSRAM_DQ8*%
X148487500Y-111250000D03*
%TO.P,IC2,B2,UB#*%
%TO.N,PSRAM_NBL1*%
X148487500Y-110500000D03*
%TO.P,IC2,B3,A3*%
%TO.N,PSRAM_A3*%
X148487500Y-109750000D03*
%TO.P,IC2,B4,A4*%
%TO.N,PSRAM_A4*%
X148487500Y-109000000D03*
%TO.P,IC2,B5,CE#*%
%TO.N,PSRAM_CE#*%
X148487500Y-108250000D03*
%TO.P,IC2,B6,DQ0*%
%TO.N,PSRAM_DQ0*%
X148487500Y-107500000D03*
%TO.P,IC2,C1,DQ9*%
%TO.N,PSRAM_DQ9*%
X149237500Y-111250000D03*
%TO.P,IC2,C2,DQ10*%
%TO.N,PSRAM_DQ10*%
X149237500Y-110500000D03*
%TO.P,IC2,C3,A5*%
%TO.N,PSRAM_A5*%
X149237500Y-109750000D03*
%TO.P,IC2,C4,A6*%
%TO.N,PSRAM_A6*%
X149237500Y-109000000D03*
%TO.P,IC2,C5,DQ1*%
%TO.N,PSRAM_DQ1*%
X149237500Y-108250000D03*
%TO.P,IC2,C6,DQ2*%
%TO.N,PSRAM_DQ2*%
X149237500Y-107500000D03*
%TO.P,IC2,D1,VSSQ*%
%TO.N,VSS*%
X149987500Y-111250000D03*
%TO.P,IC2,D2,DQ11*%
%TO.N,PSRAM_DQ11*%
X149987500Y-110500000D03*
%TO.P,IC2,D3,A17*%
%TO.N,PSRAM_A17*%
X149987500Y-109750000D03*
%TO.P,IC2,D4,A7*%
%TO.N,PSRAM_A7*%
X149987500Y-109000000D03*
%TO.P,IC2,D5,DQ3*%
%TO.N,PSRAM_DQ3*%
X149987500Y-108250000D03*
%TO.P,IC2,D6,VDD*%
%TO.N,VDD*%
X149987500Y-107500000D03*
%TO.P,IC2,E1,VDDQ*%
X150737500Y-111250000D03*
%TO.P,IC2,E2,DQ12*%
%TO.N,PSRAM_DQ12*%
X150737500Y-110500000D03*
%TO.P,IC2,E3,A21*%
%TO.N,PSRAM_A21*%
X150737500Y-109750000D03*
%TO.P,IC2,E4,A16*%
%TO.N,PSRAM_A16*%
X150737500Y-109000000D03*
%TO.P,IC2,E5,DQ4*%
%TO.N,PSRAM_DQ4*%
X150737500Y-108250000D03*
%TO.P,IC2,E6,VSS*%
%TO.N,VSS*%
X150737500Y-107500000D03*
%TO.P,IC2,F1,DQ14*%
%TO.N,PSRAM_DQ14*%
X151487500Y-111250000D03*
%TO.P,IC2,F2,DQ13*%
%TO.N,PSRAM_DQ13*%
X151487500Y-110500000D03*
%TO.P,IC2,F3,A14*%
%TO.N,PSRAM_A14*%
X151487500Y-109750000D03*
%TO.P,IC2,F4,A15*%
%TO.N,PSRAM_A15*%
X151487500Y-109000000D03*
%TO.P,IC2,F5,DQ5*%
%TO.N,PSRAM_DQ5*%
X151487500Y-108250000D03*
%TO.P,IC2,F6,DQ6*%
%TO.N,PSRAM_DQ6*%
X151487500Y-107500000D03*
%TO.P,IC2,G1,DQ15*%
%TO.N,PSRAM_DQ15*%
X152237500Y-111250000D03*
%TO.P,IC2,G2,A19*%
%TO.N,PSRAM_A19*%
X152237500Y-110500000D03*
%TO.P,IC2,G3,A12*%
%TO.N,PSRAM_A12*%
X152237500Y-109750000D03*
%TO.P,IC2,G4,A13*%
%TO.N,PSRAM_A13*%
X152237500Y-109000000D03*
%TO.P,IC2,G5,WE#*%
%TO.N,PSRAM_WE#*%
X152237500Y-108250000D03*
%TO.P,IC2,G6,DQ7*%
%TO.N,PSRAM_DQ7*%
X152237500Y-107500000D03*
%TO.P,IC2,H1,A18*%
%TO.N,PSRAM_A18*%
X152987500Y-111250000D03*
%TO.P,IC2,H2,A8*%
%TO.N,PSRAM_A8*%
X152987500Y-110500000D03*
%TO.P,IC2,H3,A9*%
%TO.N,PSRAM_A9*%
X152987500Y-109750000D03*
%TO.P,IC2,H4,A10*%
%TO.N,PSRAM_A10*%
X152987500Y-109000000D03*
%TO.P,IC2,H5,A11*%
%TO.N,PSRAM_A11*%
X152987500Y-108250000D03*
%TO.P,IC2,H6,A20*%
%TO.N,PSRAM_A20*%
X152987500Y-107500000D03*
%TD*%
D38*
%TO.P,R6,1*%
%TO.N,CC2*%
X176000000Y-104910000D03*
%TO.P,R6,2*%
%TO.N,VSS*%
X176000000Y-103890000D03*
%TD*%
D11*
%TO.P,R1,1*%
%TO.N,USB_HOST_DP*%
X167190000Y-83000000D03*
%TO.P,R1,2*%
%TO.N,USB_HOST_RDP*%
X168210000Y-83000000D03*
%TD*%
D39*
%TO.P,C13,1*%
%TO.N,VDD*%
X150855000Y-113325000D03*
%TO.P,C13,2*%
%TO.N,VSS*%
X149895000Y-113325000D03*
%TD*%
D54*
%TO.N,VCAP2*%
X153493750Y-94381250D03*
D55*
%TO.N,VDD*%
X143250000Y-110187500D03*
D54*
X144225000Y-92675000D03*
X160100000Y-90887500D03*
X137560000Y-81200000D03*
X135580000Y-80200000D03*
X137560000Y-82200000D03*
D55*
X168500000Y-110500000D03*
X167500000Y-110500000D03*
D54*
X126175000Y-109600000D03*
X146912500Y-94950000D03*
X150325000Y-99337500D03*
X149025000Y-92512500D03*
X147920000Y-97550000D03*
X150325000Y-92512500D03*
X162600000Y-88400000D03*
X137560000Y-83200000D03*
X137560000Y-84200000D03*
D55*
X149862500Y-104575000D03*
D54*
X151950000Y-96412500D03*
X148050000Y-105600000D03*
D55*
X150862500Y-114175000D03*
D54*
X123975000Y-91155000D03*
X137560000Y-79200000D03*
D55*
X166800000Y-111500000D03*
D54*
X137560000Y-77200000D03*
D55*
X166500000Y-110500000D03*
D54*
X125125000Y-91150000D03*
X137560000Y-78200000D03*
D55*
X122925000Y-109600000D03*
X141550000Y-99825000D03*
%TO.N,VSS*%
X176900000Y-110500000D03*
X175900000Y-110500000D03*
D54*
X124175000Y-103400000D03*
X132810000Y-80700000D03*
X150325000Y-94950000D03*
X149025000Y-96900000D03*
X119575000Y-99100000D03*
X127475000Y-103400000D03*
D55*
X141550000Y-98275000D03*
D54*
X151550000Y-94575000D03*
X143900000Y-91625000D03*
X132810000Y-79200000D03*
D55*
X150862500Y-104575000D03*
D54*
X152320000Y-89920000D03*
X145550000Y-110175000D03*
X154450000Y-88750000D03*
X150325000Y-98362500D03*
D55*
X119325000Y-109600000D03*
X167500000Y-114300000D03*
D54*
X149675000Y-96900000D03*
X119575000Y-100800000D03*
X125825000Y-98200000D03*
D55*
X169300000Y-80500000D03*
X166800000Y-113300000D03*
D54*
X119575000Y-106750000D03*
X147720000Y-98180000D03*
X123225000Y-100800000D03*
X118725000Y-90800000D03*
X144150000Y-90825000D03*
X124175000Y-98200000D03*
X176000000Y-103300000D03*
X160100000Y-84900000D03*
X149675000Y-95600000D03*
X128425000Y-100800000D03*
X125825000Y-103400000D03*
D55*
X166500000Y-114300000D03*
D54*
X156650000Y-94700000D03*
X119575000Y-98250000D03*
X184300000Y-93600000D03*
X176300000Y-106400000D03*
X132810000Y-82200000D03*
X151950000Y-94950000D03*
D55*
X165875000Y-86225000D03*
D54*
X184300000Y-95600000D03*
X131275000Y-77175000D03*
X150325000Y-93487500D03*
X150325000Y-95600000D03*
X155400000Y-107800000D03*
X119575000Y-99950000D03*
X155500000Y-109525000D03*
X149675000Y-96250000D03*
X133575000Y-93800000D03*
D55*
X168300000Y-80500000D03*
D54*
X137700000Y-97600000D03*
X151850000Y-110125000D03*
D55*
X174900000Y-110500000D03*
D54*
X176000000Y-109500000D03*
X149675000Y-94950000D03*
X150325000Y-96250000D03*
X120500000Y-77275000D03*
X145250000Y-107150000D03*
X123225000Y-102450000D03*
D55*
X176400000Y-67350000D03*
D54*
X119575000Y-103350000D03*
X145550000Y-109425000D03*
D55*
X149862500Y-114175000D03*
D54*
X149025000Y-96250000D03*
X119575000Y-97400000D03*
D55*
X176800000Y-101500000D03*
D54*
X154500000Y-105675000D03*
X123225000Y-99150000D03*
D55*
X168400000Y-84000000D03*
X121040000Y-80530000D03*
D54*
X119575000Y-102500000D03*
D55*
X180800000Y-102700000D03*
D54*
X119575000Y-105900000D03*
X122425000Y-94550000D03*
D55*
X176400000Y-73650000D03*
D54*
X128425000Y-99150000D03*
X150975000Y-96900000D03*
X145650000Y-90725000D03*
X119575000Y-104200000D03*
X127475000Y-98200000D03*
X128425000Y-102450000D03*
D55*
X168500000Y-114300000D03*
D54*
X140000000Y-88100000D03*
X157600000Y-99950000D03*
X131275000Y-90125000D03*
X149025000Y-93487500D03*
D55*
X120475000Y-106850000D03*
D54*
X145937500Y-94950000D03*
D55*
X143225000Y-108712500D03*
D54*
X149025000Y-95600000D03*
X157600000Y-100675000D03*
X119575000Y-95700000D03*
X150325000Y-96900000D03*
X137560000Y-80200000D03*
X119575000Y-101650000D03*
X119575000Y-105050000D03*
D55*
X174950000Y-109500000D03*
D54*
X121575000Y-94550000D03*
D55*
X180900000Y-110100000D03*
D54*
X133575000Y-107800000D03*
X157100000Y-98625000D03*
X154700000Y-112775000D03*
X149025000Y-94950000D03*
D55*
X170725000Y-102725000D03*
D54*
X120025000Y-89950000D03*
X147900000Y-94000000D03*
D55*
X120525000Y-95100000D03*
D54*
X184300000Y-97600000D03*
X121125000Y-92900000D03*
X140600000Y-94400000D03*
X162592500Y-87407500D03*
X119575000Y-96550000D03*
X152950000Y-106725000D03*
%TO.N,SDMMC_CK*%
X152370000Y-90840000D03*
X135550000Y-79200000D03*
%TO.N,SDMMC_D3*%
X153450000Y-89350000D03*
X135550000Y-82200000D03*
%TO.N,SDMMC_D2*%
X154350000Y-89350000D03*
X135550000Y-83200000D03*
%TO.N,SDMMC_CMD*%
X135550000Y-81200000D03*
X151875000Y-93875000D03*
%TO.N,SDMMC_D1*%
X156100000Y-94500000D03*
X135550000Y-77200000D03*
%TO.N,SDMMC_D0*%
X155550000Y-94750000D03*
X135550000Y-78200000D03*
%TO.N,PSRAM_A19*%
X145050000Y-90825000D03*
X154662500Y-112175000D03*
%TO.N,PSRAM_NBL1*%
X146912500Y-89912500D03*
X146762500Y-112675000D03*
%TO.N,PSRAM_NBL0*%
X147562500Y-112675000D03*
X147237500Y-90400000D03*
%TO.N,PSRAM_CE#*%
X152193750Y-91618750D03*
X147940000Y-104780000D03*
%TO.N,PSRAM_A20*%
X153162500Y-106075000D03*
X145050000Y-91725000D03*
%TO.N,PSRAM_A21*%
X151100000Y-109387500D03*
X145850000Y-91775000D03*
%TO.N,PSRAM_DQ2*%
X152356250Y-92268750D03*
X148880000Y-105870000D03*
%TO.N,PSRAM_WE#*%
X151050000Y-94060000D03*
X153962500Y-106075000D03*
%TO.N,PSRAM_DQ3*%
X152843750Y-92918750D03*
X150362500Y-107875000D03*
%TO.N,PSRAM_OE#*%
X146062500Y-112175000D03*
X150110000Y-94070000D03*
%TO.N,PSRAM_A0*%
X148200000Y-94750000D03*
X146062500Y-110575000D03*
%TO.N,PSRAM_A2*%
X144150000Y-96575000D03*
X145850000Y-106950000D03*
%TO.N,PSRAM_A1*%
X146050000Y-108950000D03*
X147837500Y-95487500D03*
%TO.N,NRST*%
X159175000Y-87900000D03*
X144750000Y-96725000D03*
%TO.N,PSRAM_A3*%
X145875000Y-96800000D03*
X146062500Y-111375000D03*
%TO.N,PSRAM_A4*%
X147887500Y-96087500D03*
X146050000Y-108150000D03*
%TO.N,PSRAM_A5*%
X147820000Y-96890000D03*
X146062500Y-109775000D03*
%TO.N,PSRAM_A15*%
X153493750Y-96981250D03*
X154662500Y-108975000D03*
%TO.N,PSRAM_A14*%
X155100000Y-97375000D03*
X151462500Y-112675000D03*
%TO.N,PSRAM_A13*%
X154662500Y-107375000D03*
X154306250Y-97468750D03*
%TO.N,PSRAM_DQ1*%
X153656250Y-98118750D03*
X148650000Y-106720000D03*
%TO.N,PSRAM_A12*%
X154662500Y-110575000D03*
X155850000Y-97725000D03*
%TO.N,PSRAM_A11*%
X154662500Y-106575000D03*
X151250000Y-97875000D03*
%TO.N,PSRAM_DQ0*%
X147850000Y-106975000D03*
X153656250Y-98768750D03*
%TO.N,PSRAM_A18*%
X153500000Y-111675000D03*
X156700000Y-98175000D03*
%TO.N,PSRAM_A7*%
X148700000Y-97875000D03*
X149612500Y-109375000D03*
%TO.N,PSRAM_A10*%
X154662500Y-108175000D03*
X149537500Y-97887500D03*
%TO.N,PSRAM_DQ10*%
X152193750Y-99418750D03*
X148862500Y-110875000D03*
%TO.N,PSRAM_A17*%
X150350000Y-109375000D03*
X156250000Y-99825000D03*
%TO.N,PSRAM_A16*%
X155900000Y-98775000D03*
X150350000Y-108625000D03*
%TO.N,PSRAM_DQ15*%
X153862500Y-112675000D03*
X156800000Y-100800000D03*
%TO.N,PSRAM_A9*%
X154662500Y-109775000D03*
X149600000Y-102825000D03*
%TO.N,PSRAM_DQ8*%
X148700000Y-112400000D03*
X153000000Y-103950000D03*
%TO.N,PSRAM_DQ11*%
X150362500Y-110125000D03*
X153800000Y-103250000D03*
%TO.N,PSRAM_DQ14*%
X155150000Y-100425000D03*
X152262500Y-112675000D03*
%TO.N,PSRAM_DQ13*%
X155950000Y-100650000D03*
X153062500Y-112675000D03*
%TO.N,PSRAM_A8*%
X154662500Y-111375000D03*
X149250000Y-102275000D03*
%TO.N,PSRAM_DQ9*%
X149450000Y-112675000D03*
X153200000Y-104775000D03*
%TO.N,PSRAM_DQ12*%
X150362500Y-110875000D03*
X153850000Y-104050000D03*
%TO.N,VCAP1*%
X151950000Y-97065000D03*
%TO.N,WIFI_UART_TX*%
X126250000Y-92025000D03*
X126850000Y-91425000D03*
D55*
%TO.N,VCC*%
X165875000Y-87775000D03*
X176100000Y-114600000D03*
X170725000Y-101175000D03*
X174100000Y-114600000D03*
X175100000Y-114600000D03*
D54*
%TO.N,SDMMC_SW*%
X153100000Y-90300000D03*
X135550000Y-84200000D03*
%TO.N,PD6*%
X151875000Y-87150000D03*
X151875000Y-86075000D03*
%TO.N,PI3*%
X152550000Y-87150000D03*
X152550000Y-86075000D03*
%TO.N,PI1*%
X158400000Y-93100000D03*
X156100000Y-81900000D03*
%TO.N,PA10*%
X158800000Y-93800000D03*
X156900000Y-81900000D03*
%TO.N,PI0*%
X157700000Y-81900000D03*
X159300000Y-94450000D03*
%TO.N,PA9*%
X158500000Y-81900000D03*
X159700000Y-95150000D03*
%TO.N,PC7*%
X159300000Y-81900000D03*
X160100000Y-95900000D03*
%TO.N,PG8*%
X160100000Y-81900000D03*
X160550000Y-96600000D03*
%TD*%
D56*
%TO.N,PB5*%
X127500000Y-72175000D02*
X127500000Y-67500000D01*
X130825000Y-75500000D02*
X127500000Y-72175000D01*
X148700000Y-91375000D02*
X148700000Y-84200000D01*
X148700000Y-84200000D02*
X140000000Y-75500000D01*
X140000000Y-75500000D02*
X130825000Y-75500000D01*
%TO.N,PG14*%
X141325000Y-74825000D02*
X135275000Y-74825000D01*
X135275000Y-74825000D02*
X132580000Y-72130000D01*
X149350000Y-82850000D02*
X141325000Y-74825000D01*
X149350000Y-91375000D02*
X149350000Y-82850000D01*
X132580000Y-72130000D02*
X132580000Y-67500000D01*
%TO.N,PG13*%
X137660000Y-72210000D02*
X137660000Y-67500000D01*
X150000000Y-91375000D02*
X150000000Y-81500000D01*
X142625000Y-74125000D02*
X139575000Y-74125000D01*
X150000000Y-81500000D02*
X142625000Y-74125000D01*
X139575000Y-74125000D02*
X137660000Y-72210000D01*
%TO.N,PB4*%
X142740000Y-72240000D02*
X142740000Y-67500000D01*
X150650000Y-80150000D02*
X142740000Y-72240000D01*
X150650000Y-91375000D02*
X150650000Y-80150000D01*
%TO.N,PG15*%
X149025000Y-83525000D02*
X140650000Y-75150000D01*
X133075000Y-75150000D02*
X130040000Y-72115000D01*
X130040000Y-72115000D02*
X130040000Y-67500000D01*
X149025000Y-91700000D02*
X149025000Y-83525000D01*
X140650000Y-75150000D02*
X133075000Y-75150000D01*
X149350000Y-92025000D02*
X149025000Y-91700000D01*
%TO.N,PG12*%
X149675000Y-82175000D02*
X142000000Y-74500000D01*
X142000000Y-74500000D02*
X137425000Y-74500000D01*
X149675000Y-91700000D02*
X149675000Y-82175000D01*
X150000000Y-92025000D02*
X149675000Y-91700000D01*
X137425000Y-74500000D02*
X135120000Y-72195000D01*
X135120000Y-72195000D02*
X135120000Y-67500000D01*
%TO.N,PG11*%
X141825000Y-73800000D02*
X140200000Y-72175000D01*
X150325000Y-91700000D02*
X150325000Y-80825000D01*
X150650000Y-92025000D02*
X150325000Y-91700000D01*
X140200000Y-72175000D02*
X140200000Y-67500000D01*
X143300000Y-73800000D02*
X141825000Y-73800000D01*
X150325000Y-80825000D02*
X143300000Y-73800000D01*
%TO.N,PG10*%
X145280000Y-73780000D02*
X145280000Y-67500000D01*
X150975000Y-79475000D02*
X145280000Y-73780000D01*
X151300000Y-92025000D02*
X150975000Y-91700000D01*
X150975000Y-91700000D02*
X150975000Y-79475000D01*
%TO.N,VCAP2*%
X153250000Y-94625000D02*
X153493750Y-94381250D01*
%TO.N,VDD*%
X144475000Y-100475000D02*
X143825000Y-99825000D01*
D57*
X169640000Y-109500000D02*
X169640000Y-111165000D01*
D58*
X143825000Y-99825000D02*
X142525000Y-99825000D01*
D57*
X171750000Y-111450000D02*
X169925000Y-111450000D01*
D59*
X166500000Y-110500000D02*
X168000000Y-110500000D01*
D56*
X125635000Y-109600000D02*
X126175000Y-109600000D01*
D58*
X121575000Y-107800000D02*
X121575000Y-109275000D01*
X125605000Y-82730000D02*
X127885000Y-80450000D01*
D57*
X172975000Y-119015000D02*
X173460000Y-119500000D01*
X176000000Y-119500000D02*
X173460000Y-119500000D01*
D56*
X145450000Y-100475000D02*
X144475000Y-100475000D01*
D59*
X168000000Y-110500000D02*
X168500000Y-110500000D01*
D60*
X150812500Y-99175000D02*
X150000000Y-99175000D01*
D58*
X120010000Y-82730000D02*
X125605000Y-82730000D01*
D56*
X125125000Y-91740000D02*
X125125000Y-91150000D01*
X137070000Y-78200000D02*
X137560000Y-78200000D01*
D61*
X159447500Y-90887500D02*
X160100000Y-90887500D01*
D62*
X150842500Y-114155000D02*
X150842500Y-113375000D01*
D56*
X145450000Y-99825000D02*
X143825000Y-99825000D01*
D61*
X162600000Y-88400000D02*
X161905000Y-88400000D01*
D59*
X168000000Y-111625000D02*
X168000000Y-110500000D01*
D60*
X153250000Y-96575000D02*
X152600000Y-96575000D01*
D58*
X121575000Y-109275000D02*
X121900000Y-109600000D01*
D56*
X144225000Y-92675000D02*
X145450000Y-92675000D01*
X137070000Y-79200000D02*
X137560000Y-79200000D01*
X123975000Y-91745000D02*
X123975000Y-91155000D01*
D57*
X169640000Y-111165000D02*
X169700000Y-111225000D01*
D63*
X147400000Y-106250000D02*
X147400000Y-107162500D01*
D56*
X137070000Y-84200000D02*
X137560000Y-84200000D01*
D62*
X149987500Y-107500000D02*
X149987500Y-105480000D01*
D56*
X133490000Y-80200000D02*
X135580000Y-80200000D01*
D61*
X132260000Y-80200000D02*
X133490000Y-80200000D01*
D59*
X166800000Y-111500000D02*
X166800000Y-110800000D01*
D58*
X132010000Y-80450000D02*
X132260000Y-80200000D01*
D56*
X147920000Y-97550000D02*
X147725000Y-97550000D01*
D62*
X150737500Y-113270000D02*
X150842500Y-113375000D01*
X149987500Y-105480000D02*
X149882500Y-105375000D01*
X150737500Y-111250000D02*
X150737500Y-113270000D01*
D60*
X152112500Y-96575000D02*
X152600000Y-96575000D01*
D62*
X149882500Y-104595000D02*
X149862500Y-104575000D01*
D57*
X169925000Y-111450000D02*
X169700000Y-111225000D01*
D62*
X143250000Y-110187500D02*
X144200000Y-110187500D01*
D56*
X147725000Y-97550000D02*
X147400000Y-97225000D01*
D63*
X148050000Y-105600000D02*
X147400000Y-106250000D01*
D59*
X168000000Y-111625000D02*
X169300000Y-111625000D01*
D60*
X151300000Y-99175000D02*
X150812500Y-99175000D01*
D56*
X137070000Y-82200000D02*
X137560000Y-82200000D01*
D61*
X161905000Y-88400000D02*
X161147500Y-89157500D01*
D59*
X169300000Y-111625000D02*
X169700000Y-111225000D01*
D58*
X127885000Y-80450000D02*
X132010000Y-80450000D01*
D57*
X172975000Y-115700000D02*
X172975000Y-117200000D01*
D58*
X121900000Y-109600000D02*
X122925000Y-109600000D01*
D56*
X135580000Y-80200000D02*
X136080000Y-80200000D01*
D60*
X151950000Y-96412500D02*
X152112500Y-96575000D01*
D62*
X149882500Y-105375000D02*
X149882500Y-104595000D01*
D59*
X166800000Y-110800000D02*
X166500000Y-110500000D01*
D57*
X172975000Y-117200000D02*
X172975000Y-119015000D01*
D56*
X137070000Y-83200000D02*
X137560000Y-83200000D01*
D62*
X150862500Y-114175000D02*
X150842500Y-114155000D01*
D58*
X141550000Y-99825000D02*
X142525000Y-99825000D01*
D61*
X161147500Y-89157500D02*
X160345500Y-89157500D01*
D56*
X137070000Y-81200000D02*
X137560000Y-81200000D01*
X137070000Y-77200000D02*
X137560000Y-77200000D01*
D63*
X147400000Y-107162500D02*
X147737500Y-107500000D01*
D60*
X153250000Y-95275000D02*
X153250000Y-96575000D01*
D62*
%TO.N,VSS*%
X178972000Y-110100000D02*
X180900000Y-110100000D01*
D60*
X151950000Y-94950000D02*
X152437500Y-94950000D01*
D58*
X121125000Y-92310000D02*
X121125000Y-92900000D01*
D59*
X176400000Y-67350000D02*
X176400000Y-73650000D01*
D57*
X171425000Y-115700000D02*
X171425000Y-117200000D01*
D59*
X168500000Y-114300000D02*
X168000000Y-114300000D01*
X169300000Y-80500000D02*
X168300000Y-80500000D01*
D62*
X178322000Y-109450000D02*
X178322000Y-109750000D01*
D56*
X183050000Y-93600000D02*
X184300000Y-93600000D01*
X183050000Y-97600000D02*
X184300000Y-97600000D01*
D58*
X138650000Y-96650000D02*
X137700000Y-97600000D01*
D61*
X159417500Y-84887500D02*
X160087500Y-84887500D01*
D62*
X176750000Y-101450000D02*
X175950000Y-101450000D01*
X150737500Y-107500000D02*
X150737500Y-105480000D01*
X149882500Y-114155000D02*
X149862500Y-114175000D01*
X134140000Y-79200000D02*
X132810000Y-79200000D01*
D56*
X176000000Y-103890000D02*
X176000000Y-103300000D01*
D57*
X132825000Y-93800000D02*
X133575000Y-93800000D01*
D62*
X143225000Y-108712500D02*
X143300000Y-108637500D01*
D57*
X171425000Y-117200000D02*
X171425000Y-118995000D01*
X132825000Y-107800000D02*
X133575000Y-107800000D01*
D64*
X140000000Y-88100000D02*
X139380000Y-88100000D01*
D60*
X167208000Y-84000000D02*
X168400000Y-84000000D01*
D61*
X162592500Y-87407500D02*
X161937500Y-87407500D01*
D56*
X147425000Y-97875000D02*
X147400000Y-97875000D01*
D58*
X173500000Y-109500000D02*
X174950000Y-109500000D01*
D62*
X180800000Y-102700000D02*
X178972000Y-102700000D01*
D56*
X173508000Y-106400000D02*
X176300000Y-106400000D01*
D57*
X175125000Y-112400000D02*
X175900000Y-111625000D01*
D62*
X178972000Y-102700000D02*
X178322000Y-103350000D01*
D58*
X132825000Y-94850000D02*
X132825000Y-93800000D01*
D62*
X150842500Y-104595000D02*
X150862500Y-104575000D01*
D58*
X121575000Y-93800000D02*
X121575000Y-94550000D01*
D56*
X183050000Y-95600000D02*
X184300000Y-95600000D01*
D58*
X143825000Y-98865000D02*
X143115000Y-98865000D01*
D59*
X174900000Y-110500000D02*
X176900000Y-110500000D01*
D58*
X120010000Y-80530000D02*
X121040000Y-80530000D01*
D56*
X144165000Y-98525000D02*
X143825000Y-98865000D01*
X138720000Y-97600000D02*
X139220000Y-98100000D01*
D59*
X166800000Y-113300000D02*
X166800000Y-114000000D01*
D58*
X120725000Y-109225000D02*
X120350000Y-109600000D01*
D62*
X134140000Y-82200000D02*
X132810000Y-82200000D01*
D64*
X140620000Y-88100000D02*
X140000000Y-88100000D01*
D58*
X120350000Y-109600000D02*
X119325000Y-109600000D01*
D62*
X149987500Y-111250000D02*
X149987500Y-113270000D01*
D56*
X137040000Y-80200000D02*
X137560000Y-80200000D01*
D58*
X141550000Y-98275000D02*
X142525000Y-98275000D01*
D59*
X167175000Y-86500000D02*
X166900000Y-86225000D01*
D56*
X118725000Y-91320000D02*
X118725000Y-90800000D01*
D57*
X165875000Y-86225000D02*
X166900000Y-86225000D01*
D58*
X122425000Y-93800000D02*
X122425000Y-94550000D01*
D56*
X137990000Y-96650000D02*
X138720000Y-96650000D01*
D57*
X171425000Y-118995000D02*
X170920000Y-119500000D01*
X170920000Y-119500000D02*
X168380000Y-119500000D01*
D62*
X143300000Y-108637500D02*
X144200000Y-108637500D01*
D58*
X143115000Y-98865000D02*
X142525000Y-98275000D01*
D56*
X145450000Y-98525000D02*
X144165000Y-98525000D01*
X145450000Y-99175000D02*
X144135000Y-99175000D01*
X144135000Y-99175000D02*
X143825000Y-98865000D01*
D61*
X161147500Y-86617500D02*
X160345500Y-86617500D01*
D60*
X152600000Y-95925000D02*
X152600000Y-94625000D01*
D56*
X176000000Y-108910000D02*
X176000000Y-109500000D01*
D60*
X152437500Y-94950000D02*
X152600000Y-94787500D01*
D56*
X138720000Y-96650000D02*
X138720000Y-97600000D01*
D62*
X174600000Y-101175000D02*
X175675000Y-101175000D01*
D60*
X152600000Y-94787500D02*
X152600000Y-94625000D01*
D62*
X149882500Y-113375000D02*
X149882500Y-114155000D01*
D56*
X178322000Y-103050000D02*
X178322000Y-103350000D01*
D62*
X171800000Y-102725000D02*
X170725000Y-102725000D01*
X178322000Y-109450000D02*
X178972000Y-110100000D01*
D59*
X171620000Y-80500000D02*
X169300000Y-80500000D01*
D62*
X150842500Y-105375000D02*
X150842500Y-104595000D01*
D59*
X168000000Y-113175000D02*
X168000000Y-114300000D01*
D56*
X147700000Y-98150000D02*
X147425000Y-97875000D01*
D62*
X134140000Y-80700000D02*
X132810000Y-80700000D01*
D58*
X138720000Y-96650000D02*
X138650000Y-96650000D01*
D59*
X168000000Y-114300000D02*
X166500000Y-114300000D01*
D57*
X174250000Y-112400000D02*
X175125000Y-112400000D01*
D62*
X175675000Y-101175000D02*
X175950000Y-101450000D01*
D59*
X175900000Y-110500000D02*
X175900000Y-111625000D01*
D62*
X150737500Y-105480000D02*
X150842500Y-105375000D01*
D60*
X150000000Y-98525000D02*
X150650000Y-98525000D01*
D62*
X149987500Y-113270000D02*
X149882500Y-113375000D01*
D58*
X120725000Y-107800000D02*
X120725000Y-109225000D01*
D62*
X176800000Y-101500000D02*
X176750000Y-101450000D01*
D56*
X137320000Y-95980000D02*
X137990000Y-96650000D01*
D61*
X161937500Y-87407500D02*
X161147500Y-86617500D01*
D59*
X166800000Y-114000000D02*
X166500000Y-114300000D01*
D61*
X160087500Y-84887500D02*
X160100000Y-84900000D01*
D59*
X168150000Y-86500000D02*
X167175000Y-86500000D01*
D56*
%TO.N,SDMMC_CK*%
X133490000Y-79700000D02*
X135050000Y-79700000D01*
X152600000Y-91070000D02*
X152600000Y-91375000D01*
X127060000Y-79700000D02*
X133490000Y-79700000D01*
X125150000Y-81610000D02*
X127060000Y-79700000D01*
X135550000Y-79200000D02*
X136050000Y-79200000D01*
X152370000Y-90840000D02*
X152600000Y-91070000D01*
X135050000Y-79700000D02*
X135550000Y-79200000D01*
X120060000Y-81610000D02*
X125150000Y-81610000D01*
%TO.N,SDMMC_D3*%
X135550000Y-82200000D02*
X136050000Y-82200000D01*
X153575000Y-89475000D02*
X153575000Y-91700000D01*
X153575000Y-91700000D02*
X153250000Y-92025000D01*
X133490000Y-81700000D02*
X135050000Y-81700000D01*
X135050000Y-81700000D02*
X135550000Y-82200000D01*
X153450000Y-89350000D02*
X153575000Y-89475000D01*
X133490000Y-81700000D02*
X129560000Y-81700000D01*
X129560000Y-81700000D02*
X126350000Y-84910000D01*
X126350000Y-84910000D02*
X120060000Y-84910000D01*
%TO.N,SDMMC_D2*%
X154225000Y-91700000D02*
X154225000Y-90725000D01*
X153900000Y-92025000D02*
X154225000Y-91700000D01*
X154350000Y-89350000D02*
X154225000Y-89475000D01*
X129810000Y-82700000D02*
X133490000Y-82700000D01*
X126500000Y-86010000D02*
X129810000Y-82700000D01*
X120060000Y-86010000D02*
X126500000Y-86010000D01*
X154225000Y-89475000D02*
X154225000Y-90775000D01*
X133490000Y-82700000D02*
X135050000Y-82700000D01*
X135550000Y-83200000D02*
X136050000Y-83200000D01*
X135050000Y-82700000D02*
X135550000Y-83200000D01*
%TO.N,SDMMC_CMD*%
X135550000Y-81200000D02*
X136050000Y-81200000D01*
X151875000Y-93875000D02*
X152425000Y-93325000D01*
X126200000Y-83810000D02*
X120060000Y-83810000D01*
X128810000Y-81200000D02*
X126200000Y-83810000D01*
X133490000Y-81200000D02*
X135550000Y-81200000D01*
X152425000Y-93325000D02*
X152600000Y-93325000D01*
X133490000Y-81200000D02*
X128810000Y-81200000D01*
%TO.N,SDMMC_D1*%
X156100000Y-94500000D02*
X155900000Y-94300000D01*
X126450000Y-78310000D02*
X126560000Y-78200000D01*
X134550000Y-78200000D02*
X135550000Y-77200000D01*
X120060000Y-78310000D02*
X126450000Y-78310000D01*
X155900000Y-94300000D02*
X154225000Y-94300000D01*
X135550000Y-77200000D02*
X136050000Y-77200000D01*
X154225000Y-94300000D02*
X153900000Y-94625000D01*
X126560000Y-78200000D02*
X133490000Y-78200000D01*
X133490000Y-78200000D02*
X134550000Y-78200000D01*
%TO.N,SDMMC_D0*%
X154247500Y-94927500D02*
X153900000Y-95275000D01*
X155372500Y-94927500D02*
X154247500Y-94927500D01*
X126350000Y-79410000D02*
X127060000Y-78700000D01*
X127060000Y-78700000D02*
X133490000Y-78700000D01*
X135550000Y-78200000D02*
X136050000Y-78200000D01*
X135050000Y-78700000D02*
X135550000Y-78200000D01*
X155550000Y-94750000D02*
X155372500Y-94927500D01*
X120060000Y-79410000D02*
X126350000Y-79410000D01*
X133490000Y-78700000D02*
X135050000Y-78700000D01*
%TO.N,USB_HOST_DP*%
X161571920Y-92161500D02*
X163550000Y-90183420D01*
X163550000Y-90183420D02*
X163550000Y-85183420D01*
X163550000Y-85183420D02*
X164921920Y-83811500D01*
X154550000Y-92025000D02*
X156063500Y-92025000D01*
D60*
X166545600Y-83644400D02*
X167190000Y-83000000D01*
D56*
X156200000Y-92161500D02*
X161571920Y-92161500D01*
X165339099Y-83811500D02*
X165506199Y-83644400D01*
X156063500Y-92025000D02*
X156200000Y-92161500D01*
X164921920Y-83811500D02*
X165339099Y-83811500D01*
D60*
X166192000Y-83644400D02*
X166545600Y-83644400D01*
D56*
X165506199Y-83644400D02*
X166192000Y-83644400D01*
%TO.N,USB_HOST_DN*%
X163950000Y-90316580D02*
X163950000Y-85316580D01*
X156200000Y-92538500D02*
X161728080Y-92538500D01*
D60*
X166545600Y-84355600D02*
X167190000Y-85000000D01*
D56*
X165339099Y-84188500D02*
X165506199Y-84355600D01*
X156063500Y-92675000D02*
X156200000Y-92538500D01*
X165078080Y-84188500D02*
X165339099Y-84188500D01*
X165506199Y-84355600D02*
X166192000Y-84355600D01*
D60*
X166192000Y-84355600D02*
X166545600Y-84355600D01*
D56*
X163950000Y-85316580D02*
X165078080Y-84188500D01*
X161728080Y-92538500D02*
X163950000Y-90316580D01*
X154550000Y-92675000D02*
X156063500Y-92675000D01*
%TO.N,USB_DEV_DN*%
X172492000Y-106755600D02*
X174225600Y-106755600D01*
X171806199Y-106755600D02*
X172492000Y-106755600D01*
X154036499Y-101040579D02*
X154959420Y-101963500D01*
X163734420Y-101963500D02*
X168359420Y-106588500D01*
X154036499Y-100611499D02*
X154036499Y-101040579D01*
X153900000Y-100475000D02*
X154036499Y-100611499D01*
X154959420Y-101963500D02*
X163734420Y-101963500D01*
X174225600Y-106755600D02*
X174490000Y-107020000D01*
X168359420Y-106588500D02*
X171639099Y-106588500D01*
X171639099Y-106588500D02*
X171806199Y-106755600D01*
%TO.N,USB_DEV_DP*%
X172492000Y-106044400D02*
X174225600Y-106044400D01*
X174225600Y-106044400D02*
X174490000Y-105780000D01*
X171806199Y-106044400D02*
X172492000Y-106044400D01*
X154550000Y-100475000D02*
X154413501Y-100611499D01*
X171639099Y-106211500D02*
X171806199Y-106044400D01*
X154413501Y-100884421D02*
X155115580Y-101586500D01*
X168515580Y-106211500D02*
X171639099Y-106211500D01*
X155115580Y-101586500D02*
X163890580Y-101586500D01*
X154413501Y-100611499D02*
X154413501Y-100884421D01*
X163890580Y-101586500D02*
X168515580Y-106211500D01*
%TO.N,PSRAM_A19*%
X145050000Y-90975000D02*
X145050000Y-90825000D01*
X145450000Y-91375000D02*
X145050000Y-90975000D01*
D63*
X153362500Y-110875000D02*
X154344500Y-111857000D01*
X154344500Y-111857000D02*
X154344500Y-111865299D01*
X152237500Y-110500000D02*
X152612500Y-110875000D01*
X154654201Y-112175000D02*
X154662500Y-112175000D01*
X152612500Y-110875000D02*
X153362500Y-110875000D01*
X154344500Y-111865299D02*
X154654201Y-112175000D01*
%TO.N,PSRAM_NBL1*%
X146912500Y-89912500D02*
X146750000Y-90075000D01*
X147312500Y-110875000D02*
X148112500Y-110875000D01*
X148112500Y-110875000D02*
X148487500Y-110500000D01*
X147012500Y-111175000D02*
X147312500Y-110875000D01*
D56*
X146750000Y-91375000D02*
X146750000Y-90725000D01*
D63*
X146750000Y-90075000D02*
X146750000Y-90725000D01*
X146762500Y-112525000D02*
X147012500Y-112275000D01*
X146762500Y-112675000D02*
X146762500Y-112525000D01*
X147012500Y-112275000D02*
X147012500Y-111175000D01*
%TO.N,PSRAM_NBL0*%
X147362500Y-112475000D02*
X147562500Y-112675000D01*
X147487500Y-111250000D02*
X147362500Y-111375000D01*
X147737500Y-111250000D02*
X147487500Y-111250000D01*
D56*
X147400000Y-91375000D02*
X147400000Y-90725000D01*
D63*
X147362500Y-111375000D02*
X147362500Y-112475000D01*
X147400000Y-90562500D02*
X147400000Y-90725000D01*
X147237500Y-90400000D02*
X147400000Y-90562500D01*
D56*
%TO.N,SYS_SWO*%
X151300000Y-91375000D02*
X151300000Y-86975000D01*
X151300000Y-86975000D02*
X151657500Y-86617500D01*
X151657500Y-86617500D02*
X155529500Y-86617500D01*
D63*
%TO.N,PSRAM_CE#*%
X147940000Y-104780000D02*
X147100000Y-105620000D01*
X147100000Y-105620000D02*
X147100000Y-107612500D01*
D56*
X151950000Y-91375000D02*
X152193750Y-91618750D01*
D63*
X148112500Y-107875000D02*
X148487500Y-108250000D01*
X147362500Y-107875000D02*
X148112500Y-107875000D01*
X147100000Y-107612500D02*
X147362500Y-107875000D01*
D56*
%TO.N,SYS_SWCLK*%
X154562500Y-87887500D02*
X155529500Y-87887500D01*
X153900000Y-91375000D02*
X153900000Y-88550000D01*
X153900000Y-88550000D02*
X154562500Y-87887500D01*
%TO.N,SYS_SWDIO*%
X154550000Y-89950000D02*
X155342500Y-89157500D01*
X155342500Y-89157500D02*
X155529500Y-89157500D01*
X154550000Y-91375000D02*
X154550000Y-89950000D01*
D63*
%TO.N,PSRAM_A20*%
X153362500Y-107375000D02*
X153362500Y-106275000D01*
X153237500Y-107500000D02*
X153362500Y-107375000D01*
X152987500Y-107500000D02*
X153237500Y-107500000D01*
X153362500Y-106275000D02*
X153162500Y-106075000D01*
D56*
X145350000Y-92025000D02*
X145050000Y-91725000D01*
X145450000Y-92025000D02*
X145350000Y-92025000D01*
D63*
%TO.N,PSRAM_A21*%
X150737500Y-109750000D02*
X151100000Y-109387500D01*
D56*
X146100000Y-92025000D02*
X145850000Y-91775000D01*
D63*
%TO.N,PSRAM_DQ2*%
X148880000Y-105870000D02*
X148880000Y-106150000D01*
D56*
X152600000Y-92025000D02*
X152356250Y-92268750D01*
D63*
X149237500Y-106507500D02*
X149237500Y-107500000D01*
X148880000Y-106150000D02*
X149237500Y-106507500D01*
D56*
%TO.N,PSRAM_WE#*%
X151065000Y-94060000D02*
X151625000Y-93500000D01*
D63*
X152837500Y-107875000D02*
X152462500Y-108250000D01*
X152462500Y-108250000D02*
X152237500Y-108250000D01*
X153962500Y-106225000D02*
X153712500Y-106475000D01*
D56*
X151050000Y-94060000D02*
X151065000Y-94060000D01*
D63*
X153962500Y-106075000D02*
X153962500Y-106225000D01*
X153712500Y-106475000D02*
X153712500Y-107575000D01*
X153412500Y-107875000D02*
X152837500Y-107875000D01*
D56*
X151625000Y-93500000D02*
X151625000Y-93000000D01*
D63*
X153712500Y-107575000D02*
X153412500Y-107875000D01*
D56*
X151625000Y-93000000D02*
X151950000Y-92675000D01*
D63*
%TO.N,PSRAM_DQ3*%
X149987500Y-108250000D02*
X150362500Y-107875000D01*
D56*
X152600000Y-92675000D02*
X152843750Y-92918750D01*
D63*
%TO.N,PSRAM_OE#*%
X146662500Y-111625000D02*
X146112500Y-112175000D01*
X147187500Y-110500000D02*
X146662500Y-111025000D01*
D56*
X151115000Y-93325000D02*
X151300000Y-93325000D01*
D63*
X147737500Y-110500000D02*
X147187500Y-110500000D01*
D56*
X150370000Y-94070000D02*
X151115000Y-93325000D01*
D63*
X146662500Y-111025000D02*
X146662500Y-111625000D01*
X146112500Y-112175000D02*
X146062500Y-112175000D01*
D56*
X150110000Y-94070000D02*
X150370000Y-94070000D01*
%TO.N,RCC_OSC32_IN*%
X143575000Y-93975000D02*
X141250000Y-91650000D01*
X145450000Y-93975000D02*
X143575000Y-93975000D01*
X141250000Y-91650000D02*
X141250000Y-89800000D01*
X141250000Y-89800000D02*
X141250000Y-88430000D01*
X141250000Y-88430000D02*
X141580000Y-88100000D01*
D63*
%TO.N,PSRAM_A0*%
X147737500Y-109750000D02*
X147037500Y-109750000D01*
D56*
X147954214Y-94750000D02*
X147504214Y-94300000D01*
X146425000Y-94300000D02*
X146100000Y-93975000D01*
D63*
X146212500Y-110575000D02*
X146062500Y-110575000D01*
D56*
X147504214Y-94300000D02*
X146425000Y-94300000D01*
X148200000Y-94750000D02*
X147954214Y-94750000D01*
D63*
X147037500Y-109750000D02*
X146212500Y-110575000D01*
D56*
%TO.N,RCC_OSC32_OUT*%
X143325000Y-94625000D02*
X140200000Y-91500000D01*
X140200000Y-91500000D02*
X139810000Y-91500000D01*
X145450000Y-94625000D02*
X143325000Y-94625000D01*
%TO.N,RCC_OSC_IN*%
X137990000Y-94350000D02*
X137320000Y-95020000D01*
X139645000Y-95275000D02*
X138720000Y-94350000D01*
X145450000Y-95275000D02*
X139645000Y-95275000D01*
X138720000Y-94350000D02*
X137990000Y-94350000D01*
%TO.N,RCC_OSC_OUT*%
X145450000Y-95925000D02*
X143485000Y-95925000D01*
X143485000Y-95925000D02*
X143210000Y-96200000D01*
%TO.N,PSRAM_A2*%
X144150000Y-96575000D02*
X144475000Y-96250000D01*
D63*
X145850000Y-106950000D02*
X145850000Y-106962500D01*
X147137500Y-108250000D02*
X147737500Y-108250000D01*
X145850000Y-106962500D02*
X147137500Y-108250000D01*
D56*
X144475000Y-96250000D02*
X145775000Y-96250000D01*
X145775000Y-96250000D02*
X146100000Y-95925000D01*
%TO.N,PSRAM_A1*%
X147837500Y-95487500D02*
X147725000Y-95600000D01*
D63*
X146100000Y-109000000D02*
X147737500Y-109000000D01*
D56*
X147075000Y-95600000D02*
X146750000Y-95925000D01*
X147725000Y-95600000D02*
X147075000Y-95600000D01*
D63*
X146050000Y-108950000D02*
X146100000Y-109000000D01*
D61*
%TO.N,NRST*%
X158457500Y-87182500D02*
X159175000Y-87900000D01*
X158457500Y-84887500D02*
X158457500Y-87182500D01*
X160333000Y-87900000D02*
X160345500Y-87887500D01*
X159175000Y-87900000D02*
X160333000Y-87900000D01*
X158427500Y-88647500D02*
X159175000Y-87900000D01*
D56*
X162000000Y-83300000D02*
X159100000Y-83300000D01*
D59*
X172600000Y-67350000D02*
X172600000Y-73650000D01*
D56*
X172600000Y-73650000D02*
X171650000Y-73650000D01*
X159100000Y-83300000D02*
X158457500Y-83942500D01*
X145300000Y-96725000D02*
X145450000Y-96575000D01*
X158457500Y-83942500D02*
X158457500Y-84887500D01*
X144750000Y-96725000D02*
X145300000Y-96725000D01*
D61*
X158427500Y-90887500D02*
X158427500Y-88647500D01*
D56*
X171650000Y-73650000D02*
X162000000Y-83300000D01*
D63*
%TO.N,PSRAM_A3*%
X147162500Y-110125000D02*
X146412500Y-110875000D01*
X148487500Y-109750000D02*
X148112500Y-110125000D01*
X146112500Y-111375000D02*
X146062500Y-111375000D01*
X146412500Y-111075000D02*
X146112500Y-111375000D01*
D56*
X146100000Y-96575000D02*
X145875000Y-96800000D01*
D63*
X148112500Y-110125000D02*
X147162500Y-110125000D01*
X146412500Y-110875000D02*
X146412500Y-111075000D01*
%TO.N,PSRAM_A4*%
X148112500Y-108625000D02*
X148487500Y-109000000D01*
X146862500Y-108625000D02*
X148112500Y-108625000D01*
D56*
X147887500Y-96087500D02*
X147746500Y-96228500D01*
X147746500Y-96228500D02*
X147096500Y-96228500D01*
X147096500Y-96228500D02*
X146750000Y-96575000D01*
D63*
X146387500Y-108150000D02*
X146862500Y-108625000D01*
X146050000Y-108150000D02*
X146387500Y-108150000D01*
D56*
%TO.N,PSRAM_A5*%
X147097500Y-96877500D02*
X146750000Y-97225000D01*
X147820000Y-96890000D02*
X147807500Y-96877500D01*
D63*
X146762500Y-109375000D02*
X148862500Y-109375000D01*
X146362500Y-109775000D02*
X146762500Y-109375000D01*
X148862500Y-109375000D02*
X149237500Y-109750000D01*
D56*
X147807500Y-96877500D02*
X147097500Y-96877500D01*
D63*
X146062500Y-109775000D02*
X146362500Y-109775000D01*
%TO.N,PSRAM_A15*%
X154662500Y-108975000D02*
X154362500Y-108975000D01*
D56*
X153250000Y-97225000D02*
X153493750Y-96981250D01*
D63*
X153962500Y-109375000D02*
X151862500Y-109375000D01*
X151862500Y-109375000D02*
X151487500Y-109000000D01*
X154362500Y-108975000D02*
X153962500Y-109375000D01*
%TO.N,PSRAM_A14*%
X151112500Y-112325000D02*
X151112500Y-110125000D01*
X151112500Y-110125000D02*
X151487500Y-109750000D01*
X155200000Y-97275000D02*
X155100000Y-97375000D01*
X151462500Y-112675000D02*
X151112500Y-112325000D01*
X155200000Y-96900000D02*
X155200000Y-97275000D01*
D56*
X153900000Y-97225000D02*
X154225000Y-96900000D01*
X154225000Y-96900000D02*
X155200000Y-96900000D01*
D63*
%TO.N,PSRAM_A13*%
X152237500Y-109000000D02*
X152612500Y-108625000D01*
X154312500Y-107675000D02*
X154612500Y-107375000D01*
X154312500Y-107875000D02*
X154312500Y-107675000D01*
X154612500Y-107375000D02*
X154662500Y-107375000D01*
X152612500Y-108625000D02*
X153562500Y-108625000D01*
D56*
X154550000Y-97225000D02*
X154306250Y-97468750D01*
D63*
X153562500Y-108625000D02*
X154312500Y-107875000D01*
%TO.N,PSRAM_DQ1*%
X148862500Y-107875000D02*
X149237500Y-108250000D01*
X148862500Y-107202500D02*
X148862500Y-107875000D01*
X148650000Y-106720000D02*
X148650000Y-106990000D01*
X153900000Y-97875000D02*
X153656250Y-98118750D01*
X148650000Y-106990000D02*
X148862500Y-107202500D01*
%TO.N,PSRAM_A12*%
X154312500Y-110575000D02*
X153862500Y-110125000D01*
X155200000Y-97875000D02*
X155700000Y-97875000D01*
X152612500Y-110125000D02*
X152237500Y-109750000D01*
X153862500Y-110125000D02*
X152612500Y-110125000D01*
D56*
X154550000Y-97875000D02*
X155200000Y-97875000D01*
D63*
X155700000Y-97875000D02*
X155850000Y-97725000D01*
X154662500Y-110575000D02*
X154312500Y-110575000D01*
D56*
%TO.N,PSRAM_A11*%
X151250000Y-97875000D02*
X150175000Y-97875000D01*
D63*
X152987500Y-108250000D02*
X153537500Y-108250000D01*
X153537500Y-108250000D02*
X154062500Y-107725000D01*
X154612500Y-106575000D02*
X154662500Y-106575000D01*
D56*
X150175000Y-97875000D02*
X149525000Y-98525000D01*
D63*
X154062500Y-107725000D02*
X154062500Y-107125000D01*
X154062500Y-107125000D02*
X154612500Y-106575000D01*
D56*
X149525000Y-98525000D02*
X149350000Y-98525000D01*
D63*
%TO.N,PSRAM_DQ0*%
X153900000Y-98525000D02*
X153656250Y-98768750D01*
X147962500Y-106975000D02*
X148487500Y-107500000D01*
X147850000Y-106975000D02*
X147962500Y-106975000D01*
D56*
%TO.N,PSRAM_A18*%
X154550000Y-98525000D02*
X155200000Y-98525000D01*
D63*
X153500000Y-111675000D02*
X153412500Y-111675000D01*
X155550000Y-98175000D02*
X155200000Y-98525000D01*
X156700000Y-98175000D02*
X155550000Y-98175000D01*
X153412500Y-111675000D02*
X152987500Y-111250000D01*
D56*
%TO.N,PSRAM_A7*%
X148375000Y-98200000D02*
X148375000Y-98850000D01*
X148700000Y-97875000D02*
X148375000Y-98200000D01*
D63*
X149987500Y-109000000D02*
X149612500Y-109375000D01*
D56*
X148375000Y-98850000D02*
X148700000Y-99175000D01*
D63*
%TO.N,PSRAM_A10*%
X153687500Y-109000000D02*
X154512500Y-108175000D01*
D56*
X149537500Y-97909700D02*
X149025000Y-98422200D01*
X149537500Y-97887500D02*
X149537500Y-97909700D01*
X149025000Y-98422200D02*
X149025000Y-98850000D01*
D63*
X154512500Y-108175000D02*
X154662500Y-108175000D01*
D56*
X149025000Y-98850000D02*
X149350000Y-99175000D01*
D63*
X152987500Y-109000000D02*
X153687500Y-109000000D01*
D56*
%TO.N,PSRAM_DQ10*%
X151950000Y-99175000D02*
X152193750Y-99418750D01*
D63*
X148862500Y-110875000D02*
X149237500Y-110500000D01*
%TO.N,PSRAM_A17*%
X155925000Y-99500000D02*
X155200000Y-99500000D01*
D56*
X153250000Y-99175000D02*
X153575000Y-99500000D01*
X153575000Y-99500000D02*
X155200000Y-99500000D01*
D63*
X149987500Y-109750000D02*
X150350000Y-109387500D01*
X156250000Y-99825000D02*
X155925000Y-99500000D01*
X150350000Y-109387500D02*
X150350000Y-109375000D01*
D56*
%TO.N,PSRAM_A16*%
X153900000Y-99175000D02*
X154225000Y-98850000D01*
D63*
X150350000Y-108625000D02*
X150362500Y-108625000D01*
X150362500Y-108625000D02*
X150737500Y-109000000D01*
D56*
X154225000Y-98850000D02*
X155200000Y-98850000D01*
D63*
X155900000Y-98775000D02*
X155825000Y-98850000D01*
X155825000Y-98850000D02*
X155200000Y-98850000D01*
%TO.N,PSRAM_DQ15*%
X156800000Y-100800000D02*
X156800000Y-99625000D01*
X156350000Y-99175000D02*
X155200000Y-99175000D01*
D56*
X154550000Y-99175000D02*
X155200000Y-99175000D01*
D63*
X152237500Y-111250000D02*
X152862500Y-111875000D01*
X153062500Y-111875000D02*
X153862500Y-112675000D01*
X156800000Y-99625000D02*
X156350000Y-99175000D01*
X152862500Y-111875000D02*
X153062500Y-111875000D01*
%TO.N,PSRAM_A6*%
X148851000Y-104861000D02*
X148851000Y-102074000D01*
X149025000Y-101900000D02*
X149025000Y-101125000D01*
X149400000Y-106100000D02*
X149400000Y-105410000D01*
D56*
X148700000Y-99825000D02*
X149025000Y-100150000D01*
D63*
X149612500Y-108625000D02*
X149612500Y-106312500D01*
X148851000Y-102074000D02*
X149025000Y-101900000D01*
X149612500Y-106312500D02*
X149400000Y-106100000D01*
X149400000Y-105410000D02*
X148851000Y-104861000D01*
D56*
X149025000Y-100150000D02*
X149025000Y-101125000D01*
D63*
X149237500Y-109000000D02*
X149612500Y-108625000D01*
D56*
%TO.N,PSRAM_A9*%
X149675000Y-100150000D02*
X149675000Y-101125000D01*
X149350000Y-99825000D02*
X149675000Y-100150000D01*
D63*
X152987500Y-109750000D02*
X154637500Y-109750000D01*
X149600000Y-102825000D02*
X149675000Y-102750000D01*
X154637500Y-109750000D02*
X154662500Y-109775000D01*
X149675000Y-102750000D02*
X149675000Y-101125000D01*
D56*
%TO.N,PSRAM_DQ5*%
X150000000Y-99825000D02*
X150325000Y-100150000D01*
D63*
X151862500Y-104456357D02*
X151190143Y-103784000D01*
X151862500Y-107712500D02*
X151862500Y-104456357D01*
X151487500Y-108087500D02*
X151862500Y-107712500D01*
X150325000Y-103200000D02*
X150325000Y-101125000D01*
X151487500Y-108250000D02*
X151487500Y-108087500D01*
D56*
X150325000Y-100150000D02*
X150325000Y-101125000D01*
D63*
X150909000Y-103784000D02*
X150325000Y-103200000D01*
X151190143Y-103784000D02*
X150909000Y-103784000D01*
%TO.N,PSRAM_DQ6*%
X151850000Y-108425000D02*
X151850000Y-108125000D01*
D56*
X150975000Y-100800000D02*
X150975000Y-101125000D01*
D63*
X151100000Y-108400000D02*
X151325000Y-108625000D01*
X151487500Y-107500000D02*
X151487500Y-107725000D01*
X151100000Y-108112500D02*
X151100000Y-108400000D01*
X152600000Y-107675000D02*
X152600000Y-107300000D01*
X152500000Y-107200000D02*
X152500000Y-106587500D01*
X151650000Y-108625000D02*
X151850000Y-108425000D01*
D56*
X150650000Y-99825000D02*
X150975000Y-100150000D01*
D63*
X151850000Y-108125000D02*
X152100000Y-107875000D01*
X152100000Y-107875000D02*
X152400000Y-107875000D01*
X151325000Y-108625000D02*
X151650000Y-108625000D01*
D56*
X150975000Y-100150000D02*
X150975000Y-100800000D01*
D63*
X151487500Y-107725000D02*
X151100000Y-108112500D01*
X152600000Y-104577261D02*
X150975000Y-102952261D01*
X152400000Y-107875000D02*
X152600000Y-107675000D01*
X152600000Y-107300000D02*
X152500000Y-107200000D01*
X150975000Y-102952261D02*
X150975000Y-101125000D01*
X152600000Y-106487500D02*
X152600000Y-104577261D01*
X152500000Y-106587500D02*
X152600000Y-106487500D01*
%TO.N,PSRAM_DQ8*%
X148500000Y-111262500D02*
X148487500Y-111250000D01*
X151625000Y-102800000D02*
X151625000Y-101125000D01*
X148500000Y-112200000D02*
X148500000Y-111262500D01*
X153000000Y-103950000D02*
X152975000Y-103925000D01*
X152975000Y-103925000D02*
X152750000Y-103925000D01*
D56*
X151300000Y-99825000D02*
X151625000Y-100150000D01*
X151625000Y-100150000D02*
X151625000Y-101125000D01*
D63*
X148700000Y-112400000D02*
X148500000Y-112200000D01*
X152750000Y-103925000D02*
X151625000Y-102800000D01*
%TO.N,PSRAM_DQ11*%
X152275000Y-102500000D02*
X152275000Y-101125000D01*
X153800000Y-103250000D02*
X153025000Y-103250000D01*
X149987500Y-110500000D02*
X150362500Y-110125000D01*
X153025000Y-103250000D02*
X152275000Y-102500000D01*
D56*
X151950000Y-99825000D02*
X152275000Y-100150000D01*
X152275000Y-100150000D02*
X152275000Y-101125000D01*
D63*
%TO.N,PSRAM_DQ14*%
X155150000Y-100300000D02*
X155000000Y-100150000D01*
X152312500Y-112625000D02*
X152312500Y-112425000D01*
X151487500Y-111600000D02*
X151487500Y-111250000D01*
X152312500Y-112425000D02*
X151487500Y-111600000D01*
D56*
X155000000Y-100150000D02*
X154225000Y-100150000D01*
D63*
X155150000Y-100425000D02*
X155150000Y-100300000D01*
X152262500Y-112675000D02*
X152312500Y-112625000D01*
D56*
X154225000Y-100150000D02*
X153900000Y-99825000D01*
D63*
%TO.N,PSRAM_DQ13*%
X155950000Y-100575000D02*
X155200000Y-99825000D01*
D56*
X154550000Y-99825000D02*
X155200000Y-99825000D01*
D63*
X151862500Y-111425000D02*
X153062500Y-112625000D01*
X153062500Y-112625000D02*
X153062500Y-112675000D01*
X155950000Y-100650000D02*
X155950000Y-100575000D01*
X151487500Y-110500000D02*
X151862500Y-110875000D01*
X151862500Y-110875000D02*
X151862500Y-111425000D01*
%TO.N,PSRAM_A8*%
X154662500Y-111375000D02*
X154462500Y-111375000D01*
X149350000Y-102175000D02*
X149350000Y-101125000D01*
X154462500Y-111375000D02*
X153587500Y-110500000D01*
D56*
X149350000Y-100475000D02*
X149350000Y-101125000D01*
D63*
X153587500Y-110500000D02*
X152987500Y-110500000D01*
X149250000Y-102275000D02*
X149350000Y-102175000D01*
%TO.N,PSRAM_DQ4*%
X151462500Y-105610728D02*
X151075500Y-105997728D01*
X151075500Y-107687000D02*
X150737500Y-108025000D01*
X151462500Y-104364655D02*
X151462500Y-105610728D01*
X151099845Y-104002000D02*
X151462500Y-104364655D01*
X150000000Y-103325000D02*
X150677000Y-104002000D01*
X151075500Y-105997728D02*
X151075500Y-107687000D01*
X150737500Y-108025000D02*
X150737500Y-108250000D01*
X150677000Y-104002000D02*
X151099845Y-104002000D01*
X150000000Y-101125000D02*
X150000000Y-103325000D01*
D56*
X150000000Y-100475000D02*
X150000000Y-101125000D01*
D63*
%TO.N,PSRAM_DQ7*%
X150650000Y-103075000D02*
X150650000Y-101125000D01*
X152237500Y-104523059D02*
X151280441Y-103566000D01*
D56*
X150650000Y-100475000D02*
X150650000Y-101125000D01*
D63*
X152237500Y-107500000D02*
X152237500Y-104523059D01*
X151141000Y-103566000D02*
X150650000Y-103075000D01*
X151280441Y-103566000D02*
X151141000Y-103566000D01*
%TO.N,PSRAM_DQ9*%
X153200000Y-104775000D02*
X152949000Y-104524000D01*
X152651000Y-104226000D02*
X151300000Y-102875000D01*
D56*
X151300000Y-100475000D02*
X151300000Y-101125000D01*
D63*
X151300000Y-102875000D02*
X151300000Y-101125000D01*
X149450000Y-112675000D02*
X149237500Y-112462500D01*
X149237500Y-112462500D02*
X149237500Y-111250000D01*
X152949000Y-104524000D02*
X152884728Y-104524000D01*
X152884728Y-104524000D02*
X152651000Y-104290272D01*
X152651000Y-104290272D02*
X152651000Y-104226000D01*
%TO.N,PSRAM_DQ12*%
X152742000Y-103467000D02*
X151950000Y-102675000D01*
X150737500Y-110500000D02*
X150362500Y-110875000D01*
X153267000Y-103467000D02*
X152742000Y-103467000D01*
X153850000Y-104050000D02*
X153267000Y-103467000D01*
X151950000Y-102675000D02*
X151950000Y-101125000D01*
D56*
X151950000Y-100475000D02*
X151950000Y-101125000D01*
%TO.N,VCAP1*%
X151625000Y-98200000D02*
X151950000Y-97875000D01*
X151300000Y-98525000D02*
X151625000Y-98200000D01*
X151950000Y-97875000D02*
X151950000Y-97065000D01*
%TO.N,WIFI_UART_RX*%
X125125000Y-92760000D02*
X124975000Y-92910000D01*
X145000000Y-86900000D02*
X138550000Y-86900000D01*
X147725000Y-91700000D02*
X147725000Y-89625000D01*
X124975000Y-92910000D02*
X124975000Y-93800000D01*
X138550000Y-86900000D02*
X133100000Y-92350000D01*
X127152500Y-92760000D02*
X125125000Y-92760000D01*
X147725000Y-89625000D02*
X145000000Y-86900000D01*
X133100000Y-92350000D02*
X127562500Y-92350000D01*
X127562500Y-92350000D02*
X127152500Y-92760000D01*
X148050000Y-92025000D02*
X147725000Y-91700000D01*
%TO.N,WIFI_UART_TX*%
X145100000Y-86100000D02*
X148375000Y-89375000D01*
X123975000Y-92760000D02*
X124125000Y-92910000D01*
X124534500Y-92200500D02*
X123975000Y-92760000D01*
X126074500Y-92200500D02*
X124534500Y-92200500D01*
X124125000Y-92910000D02*
X124125000Y-93800000D01*
X126250000Y-92025000D02*
X126074500Y-92200500D01*
X138350000Y-86100000D02*
X145100000Y-86100000D01*
X126850000Y-91425000D02*
X127125000Y-91700000D01*
X132750000Y-91700000D02*
X138350000Y-86100000D01*
X127125000Y-91700000D02*
X132750000Y-91700000D01*
X148375000Y-91700000D02*
X148700000Y-92025000D01*
X148375000Y-89375000D02*
X148375000Y-91700000D01*
%TO.N,WIFI_ENABLE*%
X148050000Y-89500000D02*
X145050000Y-86500000D01*
X125537500Y-90697500D02*
X122987500Y-90697500D01*
X138462500Y-86500000D02*
X132937500Y-92025000D01*
X122385000Y-91290000D02*
X121125000Y-91290000D01*
X121125000Y-91290000D02*
X119925000Y-91290000D01*
X132937500Y-92025000D02*
X126850000Y-92025000D01*
X145050000Y-86500000D02*
X138462500Y-86500000D01*
X126850000Y-92025000D02*
X125525000Y-90700000D01*
X122975000Y-90700000D02*
X122385000Y-91290000D01*
X148050000Y-91375000D02*
X148050000Y-89500000D01*
D62*
%TO.N,VBUS*%
X178322000Y-103850000D02*
X177350000Y-103850000D01*
D57*
X174600000Y-102725000D02*
X173325000Y-102725000D01*
X173325000Y-102725000D02*
X173200000Y-102600000D01*
D62*
X179900000Y-105043964D02*
X179006036Y-104150000D01*
D57*
X174600000Y-102725000D02*
X175675000Y-102725000D01*
X177500000Y-104000000D02*
X178249000Y-104000000D01*
X175950000Y-102450000D02*
X176450000Y-102450000D01*
X175675000Y-102725000D02*
X175950000Y-102450000D01*
X177000000Y-103000000D02*
X177000000Y-103500000D01*
D62*
X179006036Y-108650000D02*
X179900000Y-107756036D01*
D57*
X177000000Y-103500000D02*
X177500000Y-104000000D01*
D56*
X178322000Y-104150000D02*
X178322000Y-103850000D01*
D62*
X179006036Y-104150000D02*
X178322000Y-104150000D01*
X178322000Y-108650000D02*
X179006036Y-108650000D01*
D56*
X178322000Y-108650000D02*
X178322000Y-108950000D01*
D62*
X179900000Y-107756036D02*
X179900000Y-105043964D01*
D57*
X176450000Y-102450000D02*
X177000000Y-103000000D01*
D60*
%TO.N,USB_HOST_RDN*%
X168210000Y-85000000D02*
X171620000Y-85000000D01*
%TO.N,USB_HOST_RDP*%
X168210000Y-83000000D02*
X171620000Y-83000000D01*
D56*
%TO.N,USB_DEV_RDP*%
X179024000Y-105650000D02*
X179300000Y-105926000D01*
X179300000Y-106400000D02*
X179050000Y-106650000D01*
X175510000Y-105780000D02*
X175640000Y-105650000D01*
X179300000Y-105926000D02*
X179300000Y-106400000D01*
X178322000Y-105650000D02*
X179024000Y-105650000D01*
X175640000Y-105650000D02*
X178322000Y-105650000D01*
X179050000Y-106650000D02*
X178322000Y-106650000D01*
%TO.N,USB_DEV_RDN*%
X177400000Y-106900000D02*
X177400000Y-106400000D01*
X178322000Y-107150000D02*
X177650000Y-107150000D01*
X177650000Y-107150000D02*
X177400000Y-106900000D01*
X177400000Y-106400000D02*
X177650000Y-106150000D01*
X177650000Y-106150000D02*
X178322000Y-106150000D01*
X175510000Y-107020000D02*
X175640000Y-107150000D01*
X175640000Y-107150000D02*
X178322000Y-107150000D01*
D57*
%TO.N,VCC*%
X173000000Y-112900000D02*
X173000000Y-111900000D01*
X175725000Y-113350000D02*
X175900000Y-113175000D01*
D59*
X175900000Y-114400000D02*
X176100000Y-114600000D01*
D62*
X171800000Y-101175000D02*
X170725000Y-101175000D01*
D59*
X175900000Y-113175000D02*
X175900000Y-114400000D01*
D57*
X174250000Y-113350000D02*
X175725000Y-113350000D01*
X173075000Y-101175000D02*
X173200000Y-101300000D01*
X174250000Y-113350000D02*
X173450000Y-113350000D01*
X173450000Y-111450000D02*
X174250000Y-111450000D01*
D59*
X168150000Y-87500000D02*
X167175000Y-87500000D01*
D57*
X173450000Y-113350000D02*
X173000000Y-112900000D01*
D59*
X174100000Y-114600000D02*
X176100000Y-114600000D01*
D57*
X173000000Y-111900000D02*
X173450000Y-111450000D01*
D59*
X171620000Y-87500000D02*
X168150000Y-87500000D01*
D57*
X171800000Y-101175000D02*
X173075000Y-101175000D01*
D59*
X167175000Y-87500000D02*
X166900000Y-87775000D01*
D57*
X166900000Y-87775000D02*
X165875000Y-87775000D01*
D56*
%TO.N,CC1*%
X176240000Y-107650000D02*
X176000000Y-107890000D01*
X178322000Y-107650000D02*
X176240000Y-107650000D01*
%TO.N,CC2*%
X178322000Y-104650000D02*
X176260000Y-104650000D01*
X176260000Y-104650000D02*
X176000000Y-104910000D01*
%TO.N,SDMMC_SW*%
X133490000Y-83200000D02*
X134550000Y-83200000D01*
X132905000Y-83200000D02*
X132600000Y-83505000D01*
X135550000Y-84200000D02*
X136050000Y-84200000D01*
X153250000Y-91375000D02*
X153250000Y-90725000D01*
X132600000Y-83505000D02*
X132600000Y-83535000D01*
X153250000Y-90725000D02*
X153250000Y-90450000D01*
X133490000Y-83200000D02*
X132905000Y-83200000D01*
X153250000Y-90450000D02*
X153100000Y-90300000D01*
X134550000Y-83200000D02*
X135550000Y-84200000D01*
%TO.N,WIFI_BOOT*%
X122425000Y-107800000D02*
X122425000Y-108400000D01*
X124225000Y-108650000D02*
X124615000Y-109040000D01*
X124615000Y-109040000D02*
X124615000Y-109600000D01*
X122425000Y-108400000D02*
X122675000Y-108650000D01*
X122675000Y-108650000D02*
X124225000Y-108650000D01*
%TO.N,PB11*%
X153250000Y-101381580D02*
X163300000Y-111431580D01*
X153250000Y-100475000D02*
X153250000Y-101381580D01*
X163300000Y-111431580D02*
X163300000Y-119500000D01*
%TO.N,PB10*%
X158220000Y-107070000D02*
X158220000Y-119500000D01*
X152600000Y-100475000D02*
X152600000Y-101450000D01*
X152600000Y-101450000D02*
X158220000Y-107070000D01*
%TO.N,PB13*%
X165840000Y-113612370D02*
X165840000Y-119500000D01*
X153597500Y-101369870D02*
X165840000Y-113612370D01*
X153597500Y-100349700D02*
X153597500Y-101369870D01*
X153600000Y-100347200D02*
X153597500Y-100349700D01*
X153600000Y-100175000D02*
X153600000Y-100347200D01*
X153250000Y-99825000D02*
X153600000Y-100175000D01*
%TO.N,PB12*%
X160760000Y-109250790D02*
X160760000Y-119500000D01*
X152600000Y-99825000D02*
X152925000Y-100150000D01*
X152925000Y-101415790D02*
X160760000Y-109250790D01*
X152925000Y-100150000D02*
X152925000Y-101415790D01*
%TO.N,PD6*%
X151875000Y-86075000D02*
X151275000Y-85475000D01*
X151950000Y-92025000D02*
X151625000Y-91700000D01*
X151625000Y-91700000D02*
X151625000Y-90725000D01*
X151625000Y-87400000D02*
X151875000Y-87150000D01*
X147825000Y-75325000D02*
X147825000Y-67505000D01*
X151275000Y-78775000D02*
X147825000Y-75325000D01*
X151275000Y-85475000D02*
X151275000Y-78775000D01*
X151625000Y-90725000D02*
X151625000Y-87400000D01*
X147825000Y-67505000D02*
X147820000Y-67500000D01*
%TO.N,PI3*%
X151600000Y-78100000D02*
X150360000Y-76860000D01*
X152682500Y-90472935D02*
X152682500Y-90462500D01*
X153250000Y-92675000D02*
X152925000Y-92350000D01*
X152682500Y-90462500D02*
X152630000Y-90410000D01*
X151879000Y-89296000D02*
X151950000Y-89225000D01*
X151950000Y-87750000D02*
X152550000Y-87150000D01*
X151950000Y-89225000D02*
X151950000Y-87750000D01*
X152925000Y-92350000D02*
X152925000Y-90715435D01*
X150360000Y-76860000D02*
X150360000Y-67500000D01*
X152925000Y-90715435D02*
X152682500Y-90472935D01*
X152630000Y-90410000D02*
X152070000Y-90410000D01*
X151600000Y-85125000D02*
X151600000Y-78100000D01*
X152070000Y-90410000D02*
X151879000Y-90219000D01*
X151879000Y-90219000D02*
X151879000Y-89296000D01*
X152550000Y-86075000D02*
X151600000Y-85125000D01*
%TO.N,PI1*%
X158400000Y-93100000D02*
X158300000Y-93000000D01*
X156100000Y-67600000D02*
X156000000Y-67500000D01*
X154225000Y-93000000D02*
X153900000Y-93325000D01*
X156100000Y-81900000D02*
X156100000Y-67600000D01*
X158300000Y-93000000D02*
X154225000Y-93000000D01*
%TO.N,PA10*%
X156900000Y-81900000D02*
X156900000Y-71600000D01*
X158800000Y-93800000D02*
X157950000Y-93800000D01*
X157950000Y-93800000D02*
X157475000Y-93325000D01*
X157475000Y-93325000D02*
X154550000Y-93325000D01*
X156900000Y-71600000D02*
X158540000Y-69960000D01*
X158540000Y-69960000D02*
X158540000Y-67500000D01*
%TO.N,PI0*%
X158100000Y-94450000D02*
X157300000Y-93650000D01*
X161080000Y-70020000D02*
X161080000Y-67500000D01*
X157700000Y-73400000D02*
X161080000Y-70020000D01*
X157300000Y-93650000D02*
X154225000Y-93650000D01*
X157700000Y-81900000D02*
X157700000Y-73400000D01*
X154225000Y-93650000D02*
X153900000Y-93975000D01*
X159300000Y-94450000D02*
X158100000Y-94450000D01*
%TO.N,PA9*%
X158500000Y-81900000D02*
X158500000Y-75100000D01*
X158500000Y-75100000D02*
X163620000Y-69980000D01*
X157125000Y-93975000D02*
X154550000Y-93975000D01*
X163620000Y-69980000D02*
X163620000Y-67500000D01*
X158300000Y-95150000D02*
X157125000Y-93975000D01*
X159700000Y-95150000D02*
X158300000Y-95150000D01*
%TO.N,PC7*%
X160100000Y-95900000D02*
X158400000Y-95900000D01*
X157775000Y-95275000D02*
X154550000Y-95275000D01*
X166160000Y-70040000D02*
X166160000Y-67500000D01*
X159300000Y-76900000D02*
X166160000Y-70040000D01*
X159300000Y-81900000D02*
X159300000Y-76900000D01*
X158400000Y-95900000D02*
X157775000Y-95275000D01*
%TO.N,PG8*%
X160100000Y-78600000D02*
X168700000Y-70000000D01*
X157500000Y-95600000D02*
X154225000Y-95600000D01*
X160100000Y-81900000D02*
X160100000Y-78600000D01*
X160550000Y-96600000D02*
X158500000Y-96600000D01*
X154225000Y-95600000D02*
X153900000Y-95925000D01*
X158500000Y-96600000D02*
X157500000Y-95600000D01*
X168700000Y-70000000D02*
X168700000Y-67500000D01*
%TO.N,Net-(C30-Pad1)*%
X119875000Y-92360000D02*
X119875000Y-93800000D01*
X119895000Y-92280000D02*
X119925000Y-92310000D01*
X119925000Y-92310000D02*
X119875000Y-92360000D01*
X118725000Y-92280000D02*
X119895000Y-92280000D01*
%TO.N,Net-(C31-Pad1)*%
X142190000Y-96200000D02*
X141070000Y-96200000D01*
X140620000Y-97660000D02*
X140180000Y-98100000D01*
X141070000Y-96200000D02*
X140620000Y-96650000D01*
X140620000Y-96650000D02*
X140620000Y-97660000D01*
%TO.N,Net-(C34-Pad1)*%
X138750000Y-91460000D02*
X138790000Y-91500000D01*
X138750000Y-89800000D02*
X138750000Y-91460000D01*
X138750000Y-89800000D02*
X138750000Y-88430000D01*
X138750000Y-88430000D02*
X138420000Y-88100000D01*
D58*
%TO.N,Net-(LED1-Pad2)*%
X180210000Y-97600000D02*
X181550000Y-97600000D01*
%TO.N,Net-(LED2-Pad2)*%
X180210000Y-95600000D02*
X181550000Y-95600000D01*
%TO.N,Net-(LED3-Pad2)*%
X180210000Y-93600000D02*
X181550000Y-93600000D01*
%TO.N,Net-(LED4-Pad2)*%
X170660000Y-109500000D02*
X172000000Y-109500000D01*
D56*
%TO.N,STATUS_LED_1*%
X158100000Y-98000000D02*
X177100000Y-98000000D01*
X177500000Y-97600000D02*
X179190000Y-97600000D01*
X177100000Y-98000000D02*
X177500000Y-97600000D01*
X156675000Y-96575000D02*
X158100000Y-98000000D01*
X154550000Y-96575000D02*
X156675000Y-96575000D01*
%TO.N,STATUS_LED_2*%
X154225000Y-96250000D02*
X156950000Y-96250000D01*
X153900000Y-96575000D02*
X154225000Y-96250000D01*
X156950000Y-96250000D02*
X158300000Y-97600000D01*
X158300000Y-97600000D02*
X175500000Y-97600000D01*
X175500000Y-97600000D02*
X177500000Y-95600000D01*
X177500000Y-95600000D02*
X179190000Y-95600000D01*
%TO.N,STATUS_LED_3*%
X173900000Y-97200000D02*
X177500000Y-93600000D01*
X154550000Y-95925000D02*
X157225000Y-95925000D01*
X157225000Y-95925000D02*
X158500000Y-97200000D01*
X158500000Y-97200000D02*
X173900000Y-97200000D01*
X177500000Y-93600000D02*
X179190000Y-93600000D01*
%TO.N,PA2*%
X145775000Y-100150000D02*
X145775000Y-101992110D01*
X128267110Y-119500000D02*
X127500000Y-119500000D01*
X146100000Y-99825000D02*
X145775000Y-100150000D01*
X145775000Y-101992110D02*
X128267110Y-119500000D01*
%TO.N,PA6*%
X137660000Y-111543950D02*
X137660000Y-119500000D01*
X146750000Y-99825000D02*
X147075000Y-100150000D01*
X147075000Y-102128950D02*
X137660000Y-111543950D01*
X147075000Y-100150000D02*
X147075000Y-102128950D01*
%TO.N,PA5*%
X147725000Y-102197370D02*
X141738000Y-108184370D01*
X141738000Y-108184370D02*
X141738000Y-111955630D01*
X141738000Y-111955630D02*
X142740000Y-112957630D01*
X147725000Y-100150000D02*
X147725000Y-102197370D01*
X147400000Y-99825000D02*
X147725000Y-100150000D01*
X142740000Y-112957630D02*
X142740000Y-119500000D01*
%TO.N,PC5*%
X148375000Y-100150000D02*
X148375000Y-101765790D01*
X148050000Y-99825000D02*
X148375000Y-100150000D01*
X148246000Y-102394790D02*
X142246000Y-108394790D01*
X142246000Y-108394790D02*
X142246000Y-111745210D01*
X148246000Y-101894790D02*
X148246000Y-102394790D01*
X142246000Y-111745210D02*
X147820000Y-117319210D01*
X147820000Y-117319210D02*
X147820000Y-119500000D01*
X148375000Y-101765790D02*
X148246000Y-101894790D01*
%TO.N,PA0*%
X146750000Y-99175000D02*
X146425000Y-99500000D01*
X146425000Y-99500000D02*
X146425000Y-102060530D01*
X146425000Y-102060530D02*
X132580000Y-115905530D01*
X132580000Y-115905530D02*
X132580000Y-119500000D01*
%TO.N,PA3*%
X146100000Y-100475000D02*
X146100000Y-101125000D01*
X146125000Y-101125000D02*
X146171000Y-101171000D01*
X146171000Y-101955320D02*
X130040000Y-118086320D01*
X130040000Y-118086320D02*
X130040000Y-119500000D01*
X146171000Y-101171000D02*
X146171000Y-101955320D01*
X146100000Y-101125000D02*
X146125000Y-101125000D01*
%TO.N,PF11*%
X142500000Y-111640000D02*
X150360000Y-119500000D01*
X148700000Y-101800000D02*
X148500000Y-102000000D01*
X148700000Y-100475000D02*
X148700000Y-101800000D01*
X148500000Y-102500000D02*
X142500000Y-108500000D01*
X148500000Y-102000000D02*
X148500000Y-102500000D01*
X142500000Y-108500000D02*
X142500000Y-111640000D01*
%TO.N,PB0*%
X141992000Y-108289580D02*
X141992000Y-111850420D01*
X141992000Y-111850420D02*
X145280000Y-115138420D01*
X148050000Y-101731580D02*
X147992000Y-101789580D01*
X148050000Y-100475000D02*
X148050000Y-101731580D01*
X145280000Y-115138420D02*
X145280000Y-119500000D01*
X147992000Y-102289580D02*
X141992000Y-108289580D01*
X147992000Y-101789580D02*
X147992000Y-102289580D01*
%TO.N,PB1*%
X147400000Y-102163160D02*
X140200000Y-109363160D01*
X140200000Y-109363160D02*
X140200000Y-119500000D01*
X147400000Y-100475000D02*
X147400000Y-102163160D01*
%TO.N,PA7*%
X146750000Y-100475000D02*
X146750000Y-102094740D01*
X135120000Y-113724740D02*
X135120000Y-119500000D01*
X146750000Y-102094740D02*
X135120000Y-113724740D01*
D59*
%TO.N,Net-(IC6-Pad5)*%
X169925000Y-113350000D02*
X169700000Y-113575000D01*
X171750000Y-113350000D02*
X169925000Y-113350000D01*
%TD*%
%TA.AperFunction,Conductor*%
%TO.N,VSS*%
G36*
X150505952Y-98218452D02*
G01*
X150650000Y-98362500D01*
X150749500Y-98362500D01*
X150794048Y-98380952D01*
X150812500Y-98425500D01*
X150812500Y-98624500D01*
X150794048Y-98669048D01*
X150749500Y-98687500D01*
X149964316Y-98687500D01*
X149919768Y-98669048D01*
X149901316Y-98624500D01*
X149919768Y-98579952D01*
X150281268Y-98218452D01*
X150325816Y-98200000D01*
X150461404Y-98200000D01*
X150505952Y-98218452D01*
G37*
%TD.AperFunction*%
%TD*%
%TA.AperFunction,Conductor*%
%TO.N,VSS*%
G36*
X149850093Y-94473056D02*
G01*
X149893936Y-94502240D01*
X149901447Y-94507240D01*
X149905730Y-94508578D01*
X149905732Y-94508579D01*
X150008597Y-94540716D01*
X150032549Y-94548199D01*
X150105766Y-94549541D01*
X150165389Y-94550634D01*
X150165391Y-94550634D01*
X150169876Y-94550716D01*
X150302391Y-94514589D01*
X150306209Y-94512245D01*
X150306213Y-94512243D01*
X150372060Y-94471812D01*
X150405024Y-94462500D01*
X150770207Y-94462500D01*
X150805115Y-94473056D01*
X150841447Y-94497240D01*
X150845730Y-94498578D01*
X150845732Y-94498579D01*
X150968266Y-94536861D01*
X150972549Y-94538199D01*
X151045766Y-94539541D01*
X151105389Y-94540634D01*
X151105391Y-94540634D01*
X151109876Y-94540716D01*
X151242391Y-94504589D01*
X151295772Y-94471813D01*
X151328736Y-94462500D01*
X151399500Y-94462500D01*
X151444048Y-94480952D01*
X151462500Y-94525500D01*
X151462500Y-97324500D01*
X151444048Y-97369048D01*
X151399500Y-97387500D01*
X148600500Y-97387500D01*
X148555952Y-97369048D01*
X148537500Y-97324500D01*
X148537500Y-95115999D01*
X148553792Y-95073721D01*
X148598601Y-95024217D01*
X148598602Y-95024215D01*
X148601612Y-95020890D01*
X148661499Y-94897283D01*
X148684286Y-94761836D01*
X148684431Y-94750000D01*
X148664959Y-94614036D01*
X148636560Y-94551576D01*
X148634919Y-94503386D01*
X148667834Y-94468150D01*
X148693910Y-94462500D01*
X149815184Y-94462500D01*
X149850093Y-94473056D01*
G37*
%TD.AperFunction*%
%TD*%
%TA.AperFunction,Conductor*%
%TO.N,VSS*%
G36*
X146156232Y-94480952D02*
G01*
X146188376Y-94513096D01*
X146192089Y-94517148D01*
X146217440Y-94547360D01*
X146222212Y-94550115D01*
X146222213Y-94550116D01*
X146230999Y-94555188D01*
X146260353Y-94593441D01*
X146262500Y-94609748D01*
X146262500Y-95374500D01*
X146244048Y-95419048D01*
X146199500Y-95437500D01*
X146000500Y-95437500D01*
X145955952Y-95419048D01*
X145937500Y-95374500D01*
X145937500Y-95275000D01*
X145793452Y-95130952D01*
X145775000Y-95086404D01*
X145775000Y-94813596D01*
X145793452Y-94769048D01*
X145937500Y-94625000D01*
X145937500Y-94525500D01*
X145955952Y-94480952D01*
X146000500Y-94462500D01*
X146111684Y-94462500D01*
X146156232Y-94480952D01*
G37*
%TD.AperFunction*%
%TD*%
%TA.AperFunction,Conductor*%
%TO.N,VSS*%
G36*
X119206548Y-93418452D02*
G01*
X119225000Y-93463000D01*
X119225000Y-94650000D01*
X120911767Y-94650000D01*
X120956315Y-94668452D01*
X120974767Y-94713231D01*
X120925233Y-108137000D01*
X120925232Y-108137232D01*
X120906615Y-108181712D01*
X120862232Y-108200000D01*
X118488000Y-108200000D01*
X118443452Y-108181548D01*
X118425000Y-108137000D01*
X118425000Y-93463000D01*
X118443452Y-93418452D01*
X118488000Y-93400000D01*
X119162000Y-93400000D01*
X119206548Y-93418452D01*
G37*
%TD.AperFunction*%
%TD*%
%TA.AperFunction,Conductor*%
%TO.N,VDD*%
G36*
X148544041Y-92356867D02*
G01*
X148585334Y-92377907D01*
X148610356Y-92381870D01*
X148681425Y-92393126D01*
X148700000Y-92396068D01*
X148718576Y-92393126D01*
X148789644Y-92381870D01*
X148814666Y-92377907D01*
X148855959Y-92356867D01*
X148884561Y-92350000D01*
X149165439Y-92350000D01*
X149194041Y-92356867D01*
X149235334Y-92377907D01*
X149260356Y-92381870D01*
X149331425Y-92393126D01*
X149350000Y-92396068D01*
X149368576Y-92393126D01*
X149439644Y-92381870D01*
X149464666Y-92377907D01*
X149505959Y-92356867D01*
X149534561Y-92350000D01*
X149815439Y-92350000D01*
X149844041Y-92356867D01*
X149885334Y-92377907D01*
X149910356Y-92381870D01*
X149981425Y-92393126D01*
X150000000Y-92396068D01*
X150018576Y-92393126D01*
X150089644Y-92381870D01*
X150114666Y-92377907D01*
X150155959Y-92356867D01*
X150184561Y-92350000D01*
X150465439Y-92350000D01*
X150494041Y-92356867D01*
X150535334Y-92377907D01*
X150560356Y-92381870D01*
X150631425Y-92393126D01*
X150650000Y-92396068D01*
X150654900Y-92395292D01*
X150739645Y-92381870D01*
X150786531Y-92393126D01*
X150811724Y-92434239D01*
X150812500Y-92444094D01*
X150812500Y-92774500D01*
X150794048Y-92819048D01*
X150749500Y-92837500D01*
X147950500Y-92837500D01*
X147905952Y-92819048D01*
X147887500Y-92774500D01*
X147887500Y-92444094D01*
X147905952Y-92399546D01*
X147950500Y-92381094D01*
X147960355Y-92381870D01*
X148045100Y-92395292D01*
X148050000Y-92396068D01*
X148068576Y-92393126D01*
X148139644Y-92381870D01*
X148164666Y-92377907D01*
X148205959Y-92356867D01*
X148234561Y-92350000D01*
X148515439Y-92350000D01*
X148544041Y-92356867D01*
G37*
%TD.AperFunction*%
%TD*%
%TA.AperFunction,Conductor*%
%TO.N,VSS*%
G36*
X150720232Y-93180952D02*
G01*
X150738684Y-93225500D01*
X150720232Y-93270048D01*
X150375831Y-93614449D01*
X150331283Y-93632901D01*
X150313528Y-93629133D01*
X150313196Y-93630244D01*
X150185900Y-93592175D01*
X150181603Y-93590890D01*
X150112929Y-93590471D01*
X150048740Y-93590078D01*
X150048737Y-93590078D01*
X150044255Y-93590051D01*
X150039946Y-93591283D01*
X150039943Y-93591283D01*
X149916509Y-93626561D01*
X149916508Y-93626562D01*
X149912192Y-93627795D01*
X149892403Y-93640281D01*
X149858785Y-93650000D01*
X147950500Y-93650000D01*
X147905952Y-93631548D01*
X147887500Y-93587000D01*
X147887500Y-93225500D01*
X147905952Y-93180952D01*
X147950500Y-93162500D01*
X150675684Y-93162500D01*
X150720232Y-93180952D01*
G37*
%TD.AperFunction*%
%TD*%
%TA.AperFunction,Conductor*%
%TO.N,VDD*%
G36*
X153525454Y-95130952D02*
G01*
X153543906Y-95175500D01*
X153543130Y-95185355D01*
X153533604Y-95245500D01*
X153528932Y-95275000D01*
X153547093Y-95389666D01*
X153549345Y-95394085D01*
X153549345Y-95394086D01*
X153568133Y-95430959D01*
X153575000Y-95459561D01*
X153575000Y-95740439D01*
X153568133Y-95769041D01*
X153547093Y-95810334D01*
X153528932Y-95925000D01*
X153547093Y-96039666D01*
X153549345Y-96044085D01*
X153549345Y-96044086D01*
X153568133Y-96080959D01*
X153575000Y-96109561D01*
X153575000Y-96390439D01*
X153568133Y-96419041D01*
X153549344Y-96455915D01*
X153549343Y-96455918D01*
X153547608Y-96459324D01*
X153547606Y-96459326D01*
X153547093Y-96460334D01*
X153546851Y-96460211D01*
X153517310Y-96494802D01*
X153488322Y-96501669D01*
X153432490Y-96501328D01*
X153432487Y-96501328D01*
X153428005Y-96501301D01*
X153423696Y-96502533D01*
X153423693Y-96502533D01*
X153300259Y-96537811D01*
X153300258Y-96537812D01*
X153295942Y-96539045D01*
X153292145Y-96541441D01*
X153183573Y-96609944D01*
X153183571Y-96609946D01*
X153179781Y-96612337D01*
X153088859Y-96715286D01*
X153086994Y-96713639D01*
X153053811Y-96736191D01*
X153041035Y-96737500D01*
X152329685Y-96737500D01*
X152281959Y-96715624D01*
X152271385Y-96703352D01*
X152271379Y-96703347D01*
X152268453Y-96699951D01*
X152153196Y-96625244D01*
X152148899Y-96623959D01*
X152148897Y-96623958D01*
X152025900Y-96587175D01*
X152021603Y-96585890D01*
X151952929Y-96585470D01*
X151888740Y-96585078D01*
X151888737Y-96585078D01*
X151884255Y-96585051D01*
X151879946Y-96586282D01*
X151879942Y-96586283D01*
X151867812Y-96589750D01*
X151819908Y-96584249D01*
X151789925Y-96546487D01*
X151787500Y-96529175D01*
X151787500Y-96313000D01*
X151805952Y-96268452D01*
X151850500Y-96250000D01*
X152086404Y-96250000D01*
X152130952Y-96268452D01*
X152275000Y-96412500D01*
X153250000Y-96412500D01*
X153250000Y-95175500D01*
X153268452Y-95130952D01*
X153313000Y-95112500D01*
X153480906Y-95112500D01*
X153525454Y-95130952D01*
G37*
%TD.AperFunction*%
%TD*%
%TA.AperFunction,Conductor*%
%TO.N,VSS*%
G36*
X127793452Y-97918452D02*
G01*
X128706548Y-98831548D01*
X128725000Y-98876096D01*
X128725000Y-102723904D01*
X128706548Y-102768452D01*
X127793452Y-103681548D01*
X127748904Y-103700000D01*
X123851096Y-103700000D01*
X123806548Y-103681548D01*
X122943452Y-102818452D01*
X122925000Y-102773904D01*
X122925000Y-98826096D01*
X122943452Y-98781548D01*
X123806548Y-97918452D01*
X123851096Y-97900000D01*
X127748904Y-97900000D01*
X127793452Y-97918452D01*
G37*
%TD.AperFunction*%
%TD*%
%TA.AperFunction,Conductor*%
%TO.N,VDD*%
G36*
X146923952Y-94636452D02*
G01*
X147056548Y-94769048D01*
X147075000Y-94813596D01*
X147075000Y-95086404D01*
X147056548Y-95130952D01*
X146912500Y-95275000D01*
X146912500Y-95290252D01*
X146894048Y-95334800D01*
X146880999Y-95344812D01*
X146872213Y-95349884D01*
X146872212Y-95349885D01*
X146867440Y-95352640D01*
X146863898Y-95356861D01*
X146842089Y-95382852D01*
X146838376Y-95386904D01*
X146806232Y-95419048D01*
X146761684Y-95437500D01*
X146650500Y-95437500D01*
X146605952Y-95419048D01*
X146587500Y-95374500D01*
X146587500Y-94681000D01*
X146605952Y-94636452D01*
X146650500Y-94618000D01*
X146879404Y-94618000D01*
X146923952Y-94636452D01*
G37*
%TD.AperFunction*%
%TD*%
%TA.AperFunction,Conductor*%
%TO.N,VSS*%
G36*
X152744048Y-94480952D02*
G01*
X152762500Y-94525500D01*
X152762500Y-96024500D01*
X152744048Y-96069048D01*
X152699500Y-96087500D01*
X152463596Y-96087500D01*
X152419048Y-96069048D01*
X151950000Y-95600000D01*
X151462500Y-95600000D01*
X151462500Y-94625000D01*
X152275000Y-94625000D01*
X152419048Y-94480952D01*
X152463596Y-94462500D01*
X152699500Y-94462500D01*
X152744048Y-94480952D01*
G37*
%TD.AperFunction*%
%TD*%
M02*
