%TF.GenerationSoftware,KiCad,Pcbnew,(6.0.10)*%
%TF.CreationDate,2023-06-21T21:11:03+02:00*%
%TF.ProjectId,FOX-PDA-v1,464f582d-5044-4412-9d76-312e6b696361,rev?*%
%TF.SameCoordinates,Original*%
%TF.FileFunction,Soldermask,Top*%
%TF.FilePolarity,Negative*%
%FSLAX46Y46*%
G04 Gerber Fmt 4.6, Leading zero omitted, Abs format (unit mm)*
G04 Created by KiCad (PCBNEW (6.0.10)) date 2023-06-21 21:11:03*
%MOMM*%
%LPD*%
G01*
G04 APERTURE LIST*
G04 Aperture macros list*
%AMRoundRect*
0 Rectangle with rounded corners*
0 $1 Rounding radius*
0 $2 $3 $4 $5 $6 $7 $8 $9 X,Y pos of 4 corners*
0 Add a 4 corners polygon primitive as box body*
4,1,4,$2,$3,$4,$5,$6,$7,$8,$9,$2,$3,0*
0 Add four circle primitives for the rounded corners*
1,1,$1+$1,$2,$3*
1,1,$1+$1,$4,$5*
1,1,$1+$1,$6,$7*
1,1,$1+$1,$8,$9*
0 Add four rect primitives between the rounded corners*
20,1,$1+$1,$2,$3,$4,$5,0*
20,1,$1+$1,$4,$5,$6,$7,0*
20,1,$1+$1,$6,$7,$8,$9,0*
20,1,$1+$1,$8,$9,$2,$3,0*%
G04 Aperture macros list end*
%ADD10RoundRect,0.225000X0.250000X-0.225000X0.250000X0.225000X-0.250000X0.225000X-0.250000X-0.225000X0*%
%ADD11RoundRect,0.135000X-0.135000X-0.185000X0.135000X-0.185000X0.135000X0.185000X-0.135000X0.185000X0*%
%ADD12R,1.000000X1.700000*%
%ADD13RoundRect,0.140000X0.170000X-0.140000X0.170000X0.140000X-0.170000X0.140000X-0.170000X-0.140000X0*%
%ADD14R,1.100000X1.900000*%
%ADD15RoundRect,0.135000X0.135000X0.185000X-0.135000X0.185000X-0.135000X-0.185000X0.135000X-0.185000X0*%
%ADD16R,1.100000X1.300000*%
%ADD17C,0.800000*%
%ADD18C,6.400000*%
%ADD19RoundRect,0.225000X-0.250000X0.225000X-0.250000X-0.225000X0.250000X-0.225000X0.250000X0.225000X0*%
%ADD20C,1.300000*%
%ADD21R,1.385000X0.650000*%
%ADD22RoundRect,0.225000X0.225000X0.250000X-0.225000X0.250000X-0.225000X-0.250000X0.225000X-0.250000X0*%
%ADD23R,0.320000X0.510000*%
%ADD24C,0.224000*%
%ADD25R,1.150000X0.600000*%
%ADD26C,0.001000*%
%ADD27R,1.150000X0.300000*%
%ADD28R,2.000000X2.180000*%
%ADD29R,0.950000X0.950000*%
%ADD30R,0.500000X0.260000*%
%ADD31R,0.590000X0.260000*%
%ADD32R,0.620000X0.560000*%
%ADD33R,0.600000X0.550000*%
%ADD34R,1.000000X1.150000*%
%ADD35R,0.400000X0.800000*%
%ADD36R,0.800000X0.400000*%
%ADD37R,1.200000X1.200000*%
%ADD38R,0.800000X0.800000*%
%ADD39RoundRect,0.135000X0.185000X-0.135000X0.185000X0.135000X-0.185000X0.135000X-0.185000X-0.135000X0*%
%ADD40RoundRect,0.140000X0.140000X0.170000X-0.140000X0.170000X-0.140000X-0.170000X0.140000X-0.170000X0*%
%ADD41RoundRect,0.140000X-0.140000X-0.170000X0.140000X-0.170000X0.140000X0.170000X-0.140000X0.170000X0*%
%ADD42RoundRect,0.135000X-0.185000X0.135000X-0.185000X-0.135000X0.185000X-0.135000X0.185000X0.135000X0*%
%ADD43R,0.930000X0.900000*%
%ADD44R,0.780000X1.050000*%
%ADD45R,1.830000X1.140000*%
%ADD46R,2.800000X0.860000*%
%ADD47R,3.330000X0.700000*%
%ADD48R,1.100000X0.700000*%
%ADD49R,0.914400X0.254000*%
%ADD50R,0.914400X0.203200*%
%ADD51RoundRect,0.140000X-0.170000X0.140000X-0.170000X-0.140000X0.170000X-0.140000X0.170000X0.140000X0*%
%ADD52R,3.000000X1.300000*%
%ADD53C,3.570000*%
%ADD54C,0.330000*%
G04 APERTURE END LIST*
D10*
%TO.C,C24*%
X174600000Y-102725000D03*
X174600000Y-101175000D03*
%TD*%
D11*
%TO.C,R18*%
X136050000Y-81200000D03*
X137070000Y-81200000D03*
%TD*%
D10*
%TO.C,C25*%
X144200000Y-110175000D03*
X144200000Y-108625000D03*
%TD*%
%TO.C,C40*%
X168000000Y-113175000D03*
X168000000Y-111625000D03*
%TD*%
D12*
%TO.C,S1*%
X172600000Y-73650000D03*
X172600000Y-67350000D03*
X176400000Y-73650000D03*
X176400000Y-67350000D03*
%TD*%
D13*
%TO.C,C35*%
X143825000Y-99825000D03*
X143825000Y-98865000D03*
%TD*%
D11*
%TO.C,R4*%
X174490000Y-107020000D03*
X175510000Y-107020000D03*
%TD*%
D14*
%TO.C,Y2*%
X141250000Y-89800000D03*
X138750000Y-89800000D03*
%TD*%
D15*
%TO.C,R22*%
X180210000Y-97600000D03*
X179190000Y-97600000D03*
%TD*%
D11*
%TO.C,R19*%
X136050000Y-79200000D03*
X137070000Y-79200000D03*
%TD*%
D16*
%TO.C,Y1*%
X140620000Y-96650000D03*
X140620000Y-94350000D03*
X138720000Y-94350000D03*
X138720000Y-96650000D03*
%TD*%
D17*
%TO.C,H2*%
X179100000Y-70000000D03*
X183900000Y-70000000D03*
D18*
X181500000Y-70000000D03*
D17*
X181500000Y-67600000D03*
X179802944Y-68302944D03*
X183197056Y-71697056D03*
X183197056Y-68302944D03*
X181500000Y-72400000D03*
X179802944Y-71697056D03*
%TD*%
D19*
%TO.C,C23*%
X171800000Y-101175000D03*
X171800000Y-102725000D03*
%TD*%
D20*
%TO.C,J6*%
X150360000Y-119500000D03*
X147820000Y-119500000D03*
X145280000Y-119500000D03*
X142740000Y-119500000D03*
X140200000Y-119500000D03*
X137660000Y-119500000D03*
X135120000Y-119500000D03*
X132580000Y-119500000D03*
X130040000Y-119500000D03*
X127500000Y-119500000D03*
%TD*%
%TO.C,J7*%
X156000000Y-67500000D03*
X158540000Y-67500000D03*
X161080000Y-67500000D03*
X163620000Y-67500000D03*
X166160000Y-67500000D03*
X168700000Y-67500000D03*
%TD*%
D21*
%TO.C,J4*%
X160345500Y-89157500D03*
X155529500Y-89157500D03*
X160345500Y-87887500D03*
X155529500Y-87887500D03*
X160345500Y-86617500D03*
X155529500Y-86617500D03*
%TD*%
D22*
%TO.C,C37*%
X121925000Y-109600000D03*
X120375000Y-109600000D03*
%TD*%
D23*
%TO.C,D3*%
X175950000Y-102450000D03*
X175950000Y-101450000D03*
%TD*%
D24*
%TO.C,IC1*%
X145450000Y-91375000D03*
X146100000Y-91375000D03*
X146750000Y-91375000D03*
X147400000Y-91375000D03*
X148050000Y-91375000D03*
X148700000Y-91375000D03*
X149350000Y-91375000D03*
X150000000Y-91375000D03*
X150650000Y-91375000D03*
X151300000Y-91375000D03*
X151950000Y-91375000D03*
X152600000Y-91375000D03*
X153250000Y-91375000D03*
X153900000Y-91375000D03*
X154550000Y-91375000D03*
X145450000Y-92025000D03*
X146100000Y-92025000D03*
X146750000Y-92025000D03*
X147400000Y-92025000D03*
X148050000Y-92025000D03*
X148700000Y-92025000D03*
X149350000Y-92025000D03*
X150000000Y-92025000D03*
X150650000Y-92025000D03*
X151300000Y-92025000D03*
X151950000Y-92025000D03*
X152600000Y-92025000D03*
X153250000Y-92025000D03*
X153900000Y-92025000D03*
X154550000Y-92025000D03*
X145450000Y-92675000D03*
X146100000Y-92675000D03*
X146750000Y-92675000D03*
X147400000Y-92675000D03*
X148050000Y-92675000D03*
X148700000Y-92675000D03*
X149350000Y-92675000D03*
X150000000Y-92675000D03*
X150650000Y-92675000D03*
X151300000Y-92675000D03*
X151950000Y-92675000D03*
X152600000Y-92675000D03*
X153250000Y-92675000D03*
X153900000Y-92675000D03*
X154550000Y-92675000D03*
X145450000Y-93325000D03*
X146100000Y-93325000D03*
X146750000Y-93325000D03*
X147400000Y-93325000D03*
X148050000Y-93325000D03*
X148700000Y-93325000D03*
X149350000Y-93325000D03*
X150000000Y-93325000D03*
X150650000Y-93325000D03*
X151300000Y-93325000D03*
X151950000Y-93325000D03*
X152600000Y-93325000D03*
X153250000Y-93325000D03*
X153900000Y-93325000D03*
X154550000Y-93325000D03*
X145450000Y-93975000D03*
X146100000Y-93975000D03*
X146750000Y-93975000D03*
X147400000Y-93975000D03*
X152600000Y-93975000D03*
X153250000Y-93975000D03*
X153900000Y-93975000D03*
X154550000Y-93975000D03*
X145450000Y-94625000D03*
X146100000Y-94625000D03*
X146750000Y-94625000D03*
X147400000Y-94625000D03*
X148700000Y-94625000D03*
X149350000Y-94625000D03*
X150000000Y-94625000D03*
X150650000Y-94625000D03*
X151300000Y-94625000D03*
X152600000Y-94625000D03*
X153250000Y-94625000D03*
X153900000Y-94625000D03*
X154550000Y-94625000D03*
X145450000Y-95275000D03*
X146100000Y-95275000D03*
X146750000Y-95275000D03*
X147400000Y-95275000D03*
X148700000Y-95275000D03*
X149350000Y-95275000D03*
X150000000Y-95275000D03*
X150650000Y-95275000D03*
X151300000Y-95275000D03*
X152600000Y-95275000D03*
X153250000Y-95275000D03*
X153900000Y-95275000D03*
X154550000Y-95275000D03*
X145450000Y-95925000D03*
X146100000Y-95925000D03*
X146750000Y-95925000D03*
X147400000Y-95925000D03*
X148700000Y-95925000D03*
X149350000Y-95925000D03*
X150000000Y-95925000D03*
X150650000Y-95925000D03*
X151300000Y-95925000D03*
X152600000Y-95925000D03*
X153250000Y-95925000D03*
X153900000Y-95925000D03*
X154550000Y-95925000D03*
X145450000Y-96575000D03*
X146100000Y-96575000D03*
X146750000Y-96575000D03*
X147400000Y-96575000D03*
X148700000Y-96575000D03*
X149350000Y-96575000D03*
X150000000Y-96575000D03*
X150650000Y-96575000D03*
X151300000Y-96575000D03*
X152600000Y-96575000D03*
X153250000Y-96575000D03*
X153900000Y-96575000D03*
X154550000Y-96575000D03*
X145450000Y-97225000D03*
X146100000Y-97225000D03*
X146750000Y-97225000D03*
X147400000Y-97225000D03*
X148700000Y-97225000D03*
X149350000Y-97225000D03*
X150000000Y-97225000D03*
X150650000Y-97225000D03*
X151300000Y-97225000D03*
X152600000Y-97225000D03*
X153250000Y-97225000D03*
X153900000Y-97225000D03*
X154550000Y-97225000D03*
X145450000Y-97875000D03*
X146100000Y-97875000D03*
X146750000Y-97875000D03*
X147400000Y-97875000D03*
X152600000Y-97875000D03*
X153250000Y-97875000D03*
X153900000Y-97875000D03*
X154550000Y-97875000D03*
X145450000Y-98525000D03*
X146100000Y-98525000D03*
X146750000Y-98525000D03*
X147400000Y-98525000D03*
X148050000Y-98525000D03*
X148700000Y-98525000D03*
X149350000Y-98525000D03*
X150000000Y-98525000D03*
X150650000Y-98525000D03*
X151300000Y-98525000D03*
X151950000Y-98525000D03*
X152600000Y-98525000D03*
X153250000Y-98525000D03*
X153900000Y-98525000D03*
X154550000Y-98525000D03*
X145450000Y-99175000D03*
X146100000Y-99175000D03*
X146750000Y-99175000D03*
X147400000Y-99175000D03*
X148050000Y-99175000D03*
X148700000Y-99175000D03*
X149350000Y-99175000D03*
X150000000Y-99175000D03*
X150650000Y-99175000D03*
X151300000Y-99175000D03*
X151950000Y-99175000D03*
X152600000Y-99175000D03*
X153250000Y-99175000D03*
X153900000Y-99175000D03*
X154550000Y-99175000D03*
X145450000Y-99825000D03*
X146100000Y-99825000D03*
X146750000Y-99825000D03*
X147400000Y-99825000D03*
X148050000Y-99825000D03*
X148700000Y-99825000D03*
X149350000Y-99825000D03*
X150000000Y-99825000D03*
X150650000Y-99825000D03*
X151300000Y-99825000D03*
X151950000Y-99825000D03*
X152600000Y-99825000D03*
X153250000Y-99825000D03*
X153900000Y-99825000D03*
X154550000Y-99825000D03*
X145450000Y-100475000D03*
X146100000Y-100475000D03*
X146750000Y-100475000D03*
X147400000Y-100475000D03*
X148050000Y-100475000D03*
X148700000Y-100475000D03*
X149350000Y-100475000D03*
X150000000Y-100475000D03*
X150650000Y-100475000D03*
X151300000Y-100475000D03*
X151950000Y-100475000D03*
X152600000Y-100475000D03*
X153250000Y-100475000D03*
X153900000Y-100475000D03*
X154550000Y-100475000D03*
%TD*%
D25*
%TO.C,IC6*%
X174250000Y-113350000D03*
X174250000Y-112400000D03*
X174250000Y-111450000D03*
X171750000Y-111450000D03*
X171750000Y-113350000D03*
%TD*%
D13*
%TO.C,C30*%
X118725000Y-92280000D03*
X118725000Y-91320000D03*
%TD*%
D26*
%TO.C,J2*%
X179397000Y-103510000D03*
X179397000Y-109290000D03*
D27*
X178322000Y-109750000D03*
X178322000Y-108950000D03*
X178322000Y-107650000D03*
X178322000Y-106650000D03*
X178322000Y-106150000D03*
X178322000Y-105150000D03*
X178322000Y-103850000D03*
X178322000Y-103050000D03*
X178322000Y-103350000D03*
X178322000Y-104150000D03*
X178322000Y-104650000D03*
X178322000Y-105650000D03*
X178322000Y-107150000D03*
X178322000Y-108150000D03*
X178322000Y-108650000D03*
X178322000Y-109450000D03*
D28*
X182827000Y-111510000D03*
X182827000Y-101290000D03*
X178897000Y-111510000D03*
X178897000Y-101290000D03*
%TD*%
D29*
%TO.C,LED2*%
X183050000Y-95600000D03*
X181550000Y-95600000D03*
%TD*%
D30*
%TO.C,D1*%
X133490000Y-78200000D03*
X133490000Y-78700000D03*
D31*
X133535000Y-79200000D03*
D30*
X133490000Y-79700000D03*
X133490000Y-80200000D03*
D31*
X133535000Y-80700000D03*
D30*
X133490000Y-81200000D03*
X133490000Y-81700000D03*
D31*
X133535000Y-82200000D03*
D30*
X133490000Y-82700000D03*
X133490000Y-83200000D03*
D31*
X134745000Y-82200000D03*
X134745000Y-80700000D03*
X134745000Y-79200000D03*
D32*
X134140000Y-79200000D03*
X134140000Y-80700000D03*
X134140000Y-82200000D03*
%TD*%
D11*
%TO.C,R13*%
X136050000Y-84200000D03*
X137070000Y-84200000D03*
%TD*%
D33*
%TO.C,FB1*%
X173200000Y-101300000D03*
X173200000Y-102600000D03*
%TD*%
D20*
%TO.C,J5*%
X127500000Y-67500000D03*
X130040000Y-67500000D03*
X132580000Y-67500000D03*
X135120000Y-67500000D03*
X137660000Y-67500000D03*
X140200000Y-67500000D03*
X142740000Y-67500000D03*
X145280000Y-67500000D03*
X147820000Y-67500000D03*
X150360000Y-67500000D03*
%TD*%
D11*
%TO.C,R2*%
X167190000Y-85000000D03*
X168210000Y-85000000D03*
%TD*%
D34*
%TO.C,L1*%
X169700000Y-111225000D03*
X169700000Y-113575000D03*
%TD*%
D11*
%TO.C,R7*%
X158430000Y-90880000D03*
X159450000Y-90880000D03*
%TD*%
D35*
%TO.C,IC3*%
X119875000Y-107800000D03*
X120725000Y-107800000D03*
X121575000Y-107800000D03*
X122425000Y-107800000D03*
X123275000Y-107800000D03*
X124125000Y-107800000D03*
X124975000Y-107800000D03*
X125825000Y-107800000D03*
X126675000Y-107800000D03*
X127525000Y-107800000D03*
X128375000Y-107800000D03*
X129225000Y-107800000D03*
X130075000Y-107800000D03*
X130925000Y-107800000D03*
X131775000Y-107800000D03*
D36*
X132825000Y-106750000D03*
X132825000Y-105900000D03*
X132825000Y-105050000D03*
X132825000Y-104200000D03*
X132825000Y-103350000D03*
X132825000Y-102500000D03*
X132825000Y-101650000D03*
X132825000Y-100800000D03*
X132825000Y-99950000D03*
X132825000Y-99100000D03*
X132825000Y-98250000D03*
X132825000Y-97400000D03*
X132825000Y-96550000D03*
X132825000Y-95700000D03*
X132825000Y-94850000D03*
D35*
X131775000Y-93800000D03*
X130925000Y-93800000D03*
X130075000Y-93800000D03*
X129225000Y-93800000D03*
X128375000Y-93800000D03*
X127525000Y-93800000D03*
X126675000Y-93800000D03*
X125825000Y-93800000D03*
X124975000Y-93800000D03*
X124125000Y-93800000D03*
X123275000Y-93800000D03*
X122425000Y-93800000D03*
X121575000Y-93800000D03*
X120725000Y-93800000D03*
X119875000Y-93800000D03*
D36*
X118825000Y-94850000D03*
X118825000Y-95700000D03*
X118825000Y-96550000D03*
X118825000Y-97400000D03*
X118825000Y-98250000D03*
X118825000Y-99100000D03*
X118825000Y-99950000D03*
X118825000Y-100800000D03*
X118825000Y-101650000D03*
X118825000Y-102500000D03*
X118825000Y-103350000D03*
X118825000Y-104200000D03*
X118825000Y-105050000D03*
X118825000Y-105900000D03*
X118825000Y-106750000D03*
D37*
X125825000Y-100800000D03*
D38*
X118825000Y-107800000D03*
X132825000Y-107800000D03*
X132825000Y-93800000D03*
X118825000Y-93800000D03*
D37*
X124175000Y-102450000D03*
X125825000Y-102450000D03*
X127475000Y-102450000D03*
X127475000Y-100800000D03*
X127475000Y-99150000D03*
X125825000Y-99150000D03*
X124175000Y-99150000D03*
X124175000Y-100800000D03*
%TD*%
D19*
%TO.C,C39*%
X175900000Y-111625000D03*
X175900000Y-113175000D03*
%TD*%
D39*
%TO.C,R11*%
X125125000Y-92710000D03*
X125125000Y-91690000D03*
%TD*%
D15*
%TO.C,R23*%
X180210000Y-95600000D03*
X179190000Y-95600000D03*
%TD*%
D11*
%TO.C,R12*%
X124610000Y-109600000D03*
X125630000Y-109600000D03*
%TD*%
D17*
%TO.C,H1*%
X181500000Y-114600000D03*
X183197056Y-118697056D03*
X179802944Y-118697056D03*
X181500000Y-119400000D03*
X179802944Y-115302944D03*
D18*
X181500000Y-117000000D03*
D17*
X183197056Y-115302944D03*
X183900000Y-117000000D03*
X179100000Y-117000000D03*
%TD*%
D40*
%TO.C,C31*%
X140180000Y-98100000D03*
X139220000Y-98100000D03*
%TD*%
D17*
%TO.C,H3*%
X123697056Y-118697056D03*
X124400000Y-117000000D03*
X120302944Y-118697056D03*
X119600000Y-117000000D03*
X122000000Y-119400000D03*
D18*
X122000000Y-117000000D03*
D17*
X123697056Y-115302944D03*
X122000000Y-114600000D03*
X120302944Y-115302944D03*
%TD*%
D41*
%TO.C,C21*%
X149895000Y-105425000D03*
X150855000Y-105425000D03*
%TD*%
D40*
%TO.C,C33*%
X141580000Y-88100000D03*
X140620000Y-88100000D03*
%TD*%
D15*
%TO.C,R21*%
X139810000Y-91500000D03*
X138790000Y-91500000D03*
%TD*%
D11*
%TO.C,R3*%
X174490000Y-105780000D03*
X175510000Y-105780000D03*
%TD*%
D22*
%TO.C,C27*%
X172975000Y-115700000D03*
X171425000Y-115700000D03*
%TD*%
D41*
%TO.C,C34*%
X138420000Y-88100000D03*
X139380000Y-88100000D03*
%TD*%
D11*
%TO.C,R17*%
X136050000Y-82200000D03*
X137070000Y-82200000D03*
%TD*%
D42*
%TO.C,R5*%
X176000000Y-107890000D03*
X176000000Y-108910000D03*
%TD*%
D29*
%TO.C,LED4*%
X173500000Y-109500000D03*
X172000000Y-109500000D03*
%TD*%
D42*
%TO.C,R9*%
X121120000Y-91290000D03*
X121120000Y-92310000D03*
%TD*%
D23*
%TO.C,D2*%
X168150000Y-87500000D03*
X168150000Y-86500000D03*
%TD*%
D15*
%TO.C,R24*%
X180210000Y-93600000D03*
X179190000Y-93600000D03*
%TD*%
D39*
%TO.C,R10*%
X123975000Y-92710000D03*
X123975000Y-91690000D03*
%TD*%
D11*
%TO.C,R15*%
X136050000Y-77200000D03*
X137070000Y-77200000D03*
%TD*%
D22*
%TO.C,C26*%
X172975000Y-117150000D03*
X171425000Y-117150000D03*
%TD*%
D29*
%TO.C,LED1*%
X183050000Y-97600000D03*
X181550000Y-97600000D03*
%TD*%
D11*
%TO.C,R14*%
X136050000Y-78200000D03*
X137070000Y-78200000D03*
%TD*%
D39*
%TO.C,R8*%
X119880000Y-92310000D03*
X119880000Y-91290000D03*
%TD*%
D43*
%TO.C,J8*%
X132525000Y-87800000D03*
D44*
X132600000Y-83535000D03*
D45*
X120075000Y-89890000D03*
D46*
X120560000Y-77230000D03*
D47*
X131325000Y-77150000D03*
X131325000Y-90110000D03*
D48*
X120060000Y-86010000D03*
X120060000Y-84910000D03*
X120060000Y-83810000D03*
X120060000Y-82710000D03*
X120060000Y-81610000D03*
X120060000Y-80510000D03*
X120060000Y-79410000D03*
X120060000Y-78310000D03*
%TD*%
D18*
%TO.C,H4*%
X122000000Y-70000000D03*
D17*
X124400000Y-70000000D03*
X120302944Y-68302944D03*
X122000000Y-72400000D03*
X123697056Y-71697056D03*
X120302944Y-71697056D03*
X119600000Y-70000000D03*
X123697056Y-68302944D03*
X122000000Y-67600000D03*
%TD*%
D49*
%TO.C,IC5*%
X166192000Y-83644400D03*
X166192000Y-84355600D03*
D50*
X167208000Y-84000000D03*
%TD*%
D29*
%TO.C,LED3*%
X183050000Y-93600000D03*
X181550000Y-93600000D03*
%TD*%
D15*
%TO.C,R25*%
X170660000Y-109500000D03*
X169640000Y-109500000D03*
%TD*%
D41*
%TO.C,C38*%
X136080000Y-80200000D03*
X137040000Y-80200000D03*
%TD*%
D10*
%TO.C,C22*%
X166900000Y-87775000D03*
X166900000Y-86225000D03*
%TD*%
D11*
%TO.C,R20*%
X142190000Y-96200000D03*
X143210000Y-96200000D03*
%TD*%
D49*
%TO.C,IC4*%
X172492000Y-106044400D03*
X172492000Y-106755600D03*
D50*
X173508000Y-106400000D03*
%TD*%
D20*
%TO.C,J3*%
X176000000Y-119500000D03*
X173460000Y-119500000D03*
X170920000Y-119500000D03*
X168380000Y-119500000D03*
X165840000Y-119500000D03*
X163300000Y-119500000D03*
X160760000Y-119500000D03*
X158220000Y-119500000D03*
%TD*%
D11*
%TO.C,R16*%
X136050000Y-83200000D03*
X137070000Y-83200000D03*
%TD*%
D13*
%TO.C,C32*%
X137320000Y-95980000D03*
X137320000Y-95020000D03*
%TD*%
D40*
%TO.C,C29*%
X159430000Y-84900000D03*
X158470000Y-84900000D03*
%TD*%
D51*
%TO.C,C28*%
X161950000Y-87420000D03*
X161950000Y-88380000D03*
%TD*%
D52*
%TO.C,J1*%
X171620000Y-87500000D03*
X171620000Y-85000000D03*
X171620000Y-83000000D03*
X171620000Y-80500000D03*
D53*
X175320000Y-90400000D03*
X175320000Y-77600000D03*
%TD*%
D10*
%TO.C,C36*%
X142525000Y-99825000D03*
X142525000Y-98275000D03*
%TD*%
D54*
%TO.C,IC2*%
X147737500Y-111250000D03*
X147737500Y-110500000D03*
X147737500Y-109750000D03*
X147737500Y-109000000D03*
X147737500Y-108250000D03*
X147737500Y-107500000D03*
X148487500Y-111250000D03*
X148487500Y-110500000D03*
X148487500Y-109750000D03*
X148487500Y-109000000D03*
X148487500Y-108250000D03*
X148487500Y-107500000D03*
X149237500Y-111250000D03*
X149237500Y-110500000D03*
X149237500Y-109750000D03*
X149237500Y-109000000D03*
X149237500Y-108250000D03*
X149237500Y-107500000D03*
X149987500Y-111250000D03*
X149987500Y-110500000D03*
X149987500Y-109750000D03*
X149987500Y-109000000D03*
X149987500Y-108250000D03*
X149987500Y-107500000D03*
X150737500Y-111250000D03*
X150737500Y-110500000D03*
X150737500Y-109750000D03*
X150737500Y-109000000D03*
X150737500Y-108250000D03*
X150737500Y-107500000D03*
X151487500Y-111250000D03*
X151487500Y-110500000D03*
X151487500Y-109750000D03*
X151487500Y-109000000D03*
X151487500Y-108250000D03*
X151487500Y-107500000D03*
X152237500Y-111250000D03*
X152237500Y-110500000D03*
X152237500Y-109750000D03*
X152237500Y-109000000D03*
X152237500Y-108250000D03*
X152237500Y-107500000D03*
X152987500Y-111250000D03*
X152987500Y-110500000D03*
X152987500Y-109750000D03*
X152987500Y-109000000D03*
X152987500Y-108250000D03*
X152987500Y-107500000D03*
%TD*%
D39*
%TO.C,R6*%
X176000000Y-104910000D03*
X176000000Y-103890000D03*
%TD*%
D11*
%TO.C,R1*%
X167190000Y-83000000D03*
X168210000Y-83000000D03*
%TD*%
D40*
%TO.C,C13*%
X150855000Y-113325000D03*
X149895000Y-113325000D03*
%TD*%
M02*
